<svg width="780" height="151" viewBox="0 0 780 151" fill="none" xmlns="http://www.w3.org/2000/svg">
<path d="M92.8701 149C92.8701 149.9 93.5999 150.63 94.5 150.63C95.4001 150.63 96.1299 149.9 96.1299 149C96.1299 148.1 95.4001 147.37 94.5 147.37C93.5999 147.37 92.8701 148.1 92.8701 149ZM388.369 2C388.369 2.90014 389.099 3.62985 389.999 3.62985C390.899 3.62985 391.629 2.90014 391.629 2C391.629 1.09986 390.899 0.370149 389.999 0.370149C389.099 0.370149 388.369 1.09986 388.369 2ZM94.5 149.306H95.1118V148.694H94.5V149.306ZM96.3355 149.306H97.5591V148.694H96.3355V149.306ZM98.7827 149.306H100.006V148.694H98.7827V149.306ZM101.23 149.306H102.454V148.694H101.23V149.306ZM103.677 149.306H104.901V148.694H103.677V149.306ZM106.125 149.306H107.348V148.694H106.125V149.306ZM108.572 149.306H109.795V148.694H108.572V149.306ZM111.019 149.306H112.243V148.694H111.019V149.306ZM113.466 149.306H114.69V148.694H113.466V149.306ZM115.914 149.306H117.137V148.694H115.914V149.306ZM118.361 149.306H119.585V148.694H118.361V149.306ZM120.808 149.306H122.032V148.694H120.808V149.306ZM123.255 149.306H124.479V148.694H123.255V149.306ZM125.703 149.306H126.926V148.694H125.703V149.306ZM128.15 149.306H129.374V148.694H128.15V149.306ZM130.597 149.306H131.821V148.694H130.597V149.306ZM133.045 149.306H134.268V148.694H133.045V149.306ZM135.492 149.306H136.716V148.694H135.492V149.306ZM137.939 149.306H139.163V148.694H137.939V149.306ZM140.386 149.306H141.61V148.694H140.386V149.306ZM142.834 149.306H144.057V148.694H142.834V149.306ZM145.281 149.306H146.505V148.694H145.281V149.306ZM147.728 149.306H148.952V148.694H147.728V149.306ZM150.176 149.306H151.399V148.694H150.176V149.306ZM152.623 149.306H153.846V148.694H152.623V149.306ZM155.07 149.306H156.294V148.694H155.07V149.306ZM157.517 149.306H158.741V148.694H157.517V149.306ZM159.965 149.306H161.188V148.694H159.965V149.306ZM162.412 149.306H163.636V148.694H162.412V149.306ZM164.859 149.306H166.083V148.694H164.859V149.306ZM167.306 149.306H168.53V148.694H167.306V149.306ZM169.754 149.306H170.977V148.694H169.754V149.306ZM172.201 149.306H173.425V148.694H172.201V149.306ZM174.648 149.306H175.872V148.694H174.648V149.306ZM177.096 149.306H178.319V148.694H177.096V149.306ZM179.543 149.306H180.766V148.694H179.543V149.306ZM181.99 149.306H183.214V148.694H181.99V149.306ZM184.437 149.306H185.661V148.694H184.437V149.306ZM186.885 149.306H188.108V148.694H186.885V149.306ZM189.332 149.306H190.556V148.694H189.332V149.306ZM191.779 149.306H193.003V148.694H191.779V149.306ZM194.227 149.306H195.45V148.694H194.227V149.306ZM196.674 149.306H197.897V148.694H196.674V149.306ZM199.121 149.306H200.345V148.694H199.121V149.306ZM201.568 149.306H202.792V148.694H201.568V149.306ZM204.016 149.306H205.239V148.694H204.016V149.306ZM206.463 149.306H207.687V148.694H206.463V149.306ZM208.91 149.306H210.134V148.694H208.91V149.306ZM211.357 149.306H212.581V148.694H211.357V149.306ZM213.805 149.306H215.028V148.694H213.805V149.306ZM216.252 149.306H217.476V148.694H216.252V149.306ZM218.699 149.306H219.923V148.694H218.699V149.306ZM221.147 149.306H222.37V148.694H221.147V149.306ZM223.594 149.306H224.818V148.694H223.594V149.306ZM226.041 149.306H227.265V148.694H226.041V149.306ZM228.488 149.306H229.712V148.694H228.488V149.306ZM230.936 149.306H232.159V148.694H230.936V149.306ZM233.383 149.306H234.607V148.694H233.383V149.306ZM235.83 149.306H237.054V148.694H235.83V149.306ZM238.277 149.306H239.501V148.694H238.277V149.306ZM240.725 149.306H241.948V148.694H240.725V149.306ZM243.172 149.306H244.396V148.694H243.172V149.306ZM245.619 149.306H246.843V148.694H245.619V149.306ZM248.067 149.306H249.29V148.694H248.067V149.306ZM250.514 149.306H251.737V148.694H250.514V149.306ZM252.961 149.306H254.185V148.694H252.961V149.306ZM255.408 149.306H256.632V148.694H255.408V149.306ZM257.856 149.306H259.079V148.694H257.856V149.306ZM260.303 149.306H261.527V148.694H260.303V149.306ZM262.75 149.306H263.974V148.694H262.75V149.306ZM265.197 149.306H266.421V148.694H265.197V149.306ZM267.645 149.306H268.868V148.694H267.645V149.306ZM270.092 149.306H271.316V148.694H270.092V149.306ZM272.539 149.306H273.763V148.694H272.539V149.306ZM274.986 149.306H276.21V148.694H274.986V149.306ZM277.434 149.306H278.657V148.694H277.434V149.306ZM279.881 149.306H281.105V148.694H279.881V149.306ZM282.328 149.306H283.552V148.694H282.328V149.306ZM284.776 149.306H285.999V148.694H284.776V149.306ZM287.223 149.306H288.446V148.694H287.223V149.306ZM289.67 149.306H290.894V148.694H289.67V149.306ZM292.117 149.306H293.341V148.694H292.117V149.306ZM294.565 149.306H295.788V148.694H294.565V149.306ZM297.012 149.306H298.236V148.694H297.012V149.306ZM299.459 149.306H300.683V148.694H299.459V149.306ZM301.906 149.306H303.13V148.694H301.906V149.306ZM304.354 149.306H305.577V148.694H304.354V149.306ZM306.801 149.306H308.025V148.694H306.801V149.306ZM309.248 149.306H310.472V148.694H309.248V149.306ZM311.695 149.306H312.919V148.694H311.695V149.306ZM314.143 149.306H315.366V148.694H314.143V149.306ZM316.59 149.306H317.814V148.694H316.59V149.306ZM319.037 149.306H320.261V148.694H319.037V149.306ZM321.485 149.306H322.708V148.694H321.485V149.306ZM323.932 149.306H325.155V148.694H323.932V149.306ZM326.379 149.306H327.603V148.694H326.379V149.306ZM328.826 149.306H330.05V148.694H328.826V149.306ZM331.274 149.306H332.497V148.694H331.274V149.306ZM333.721 149.306H334.944V148.694H333.721V149.306ZM336.168 149.306H337.392V148.694H336.168V149.306ZM338.615 149.306H339.839V148.694H338.615V149.306ZM341.063 149.306H342.286V148.694H341.063V149.306ZM343.51 149.306H344.734V148.694H343.51V149.306ZM345.957 149.306H347.181V148.694H345.957V149.306ZM348.404 149.306H349.628V148.694H348.404V149.306ZM350.852 149.306H352.075V148.694H350.852V149.306ZM353.299 149.306H354.523V148.694H353.299V149.306ZM355.746 149.306H356.97V148.694H355.746V149.306ZM358.194 149.306H359.417V148.694H358.194V149.306ZM360.641 149.306H361.864V148.694H360.641V149.306ZM363.088 149.306H364.312V148.694H363.088V149.306ZM365.535 149.306H366.759V148.694H365.535V149.306ZM367.983 149.306H369.206V148.694H367.983V149.306ZM370.43 149.306H371.653V148.694H370.43V149.306ZM372.877 149.306H374.101V148.694H372.877V149.306ZM375.324 149.306H376.548V148.694H375.324V149.306ZM377.772 149.306H378.995V148.694H377.772V149.306ZM380.219 149.306H380.831V148.694H380.219V149.306ZM380.831 149.306C381.039 149.306 381.246 149.299 381.451 149.286L381.412 148.676C381.22 148.688 381.026 148.694 380.831 148.694V149.306ZM382.68 149.125C383.089 149.044 383.489 148.937 383.877 148.805L383.681 148.226C383.318 148.35 382.944 148.45 382.561 148.526L382.68 149.125ZM385.022 148.33C385.394 148.147 385.753 147.939 386.095 147.71L385.755 147.202C385.435 147.416 385.1 147.61 384.752 147.782L385.022 148.33ZM387.078 146.955C387.388 146.682 387.681 146.389 387.954 146.079L387.495 145.675C387.239 145.966 386.965 146.24 386.675 146.495L387.078 146.955ZM388.709 145.096C388.938 144.754 389.146 144.395 389.33 144.023L388.782 143.752C388.61 144.1 388.416 144.436 388.201 144.756L388.709 145.096ZM389.804 142.878C389.936 142.49 390.043 142.09 390.124 141.681L389.525 141.562C389.449 141.945 389.349 142.319 389.226 142.682L389.804 142.878ZM390.285 140.452C390.298 140.247 390.305 140.04 390.305 139.832H389.694C389.694 140.027 389.687 140.221 389.675 140.413L390.285 140.452ZM390.305 139.832V139.217H389.694V139.832H390.305ZM390.305 137.986V136.755H389.694V137.986H390.305ZM390.305 135.525V134.294H389.694V135.525H390.305ZM390.305 133.064V131.833H389.694V133.064H390.305ZM390.305 130.602V129.372H389.694V130.602H390.305ZM390.305 128.141V126.91H389.694V128.141H390.305ZM390.305 125.68V124.449H389.694V125.68H390.305ZM390.305 123.218V121.988H389.694V123.218H390.305ZM390.305 120.757V119.526H389.694V120.757H390.305ZM390.305 118.296V117.065H389.694V118.296H390.305ZM390.305 115.835V114.604H389.694V115.835H390.305ZM390.305 113.373V112.143H389.694V113.373H390.305ZM390.305 110.912V109.681H389.694V110.912H390.305ZM390.305 108.451V107.22H389.694V108.451H390.305ZM390.305 105.989V104.759H389.694V105.989H390.305ZM390.305 103.528V102.297H389.694V103.528H390.305ZM390.305 101.067V99.8362H389.694V101.067H390.305ZM390.305 98.6055V97.3749H389.694V98.6055H390.305ZM390.305 96.1442V94.9136H389.694V96.1442H390.305ZM390.305 93.6829V92.4523H389.694V93.6829H390.305ZM390.305 91.2217V89.991H389.694V91.2217H390.305ZM390.305 88.7604V87.5297H389.694V88.7604H390.305ZM390.305 86.2991V85.0684H389.694V86.2991H390.305ZM390.305 83.8378V82.6071H389.694V83.8378H390.305ZM390.305 81.3765V80.1459H389.694V81.3765H390.305ZM390.305 78.9152V77.6846H389.694V78.9152H390.305ZM390.305 76.4539V75.2233H389.694V76.4539H390.305ZM390.305 73.9926V72.762H389.694V73.9926H390.305ZM390.305 71.5313V70.3007H389.694V71.5313H390.305ZM390.305 69.0701V67.8394H389.694V69.0701H390.305ZM390.305 66.6088V65.3781H389.694V66.6088H390.305ZM390.305 64.1475V62.9168H389.694V64.1475H390.305ZM390.305 61.6862V60.4555H389.694V61.6862H390.305ZM390.305 59.2249V57.9943H389.694V59.2249H390.305ZM390.305 56.7636V55.533H389.694V56.7636H390.305ZM390.305 54.3023V53.0717H389.694V54.3023H390.305ZM390.305 51.841V50.6104H389.694V51.841H390.305ZM390.305 49.3798V48.1491H389.694V49.3798H390.305ZM390.305 46.9185V45.6878H389.694V46.9185H390.305ZM390.305 44.4572V43.2265H389.694V44.4572H390.305ZM390.305 41.9959V40.7652H389.694V41.9959H390.305ZM390.305 39.5346V38.304H389.694V39.5346H390.305ZM390.305 37.0733V35.8427H389.694V37.0733H390.305ZM390.305 34.612V33.3814H389.694V34.612H390.305ZM390.305 32.1507V30.9201H389.694V32.1507H390.305ZM390.305 29.6894V28.4588H389.694V29.6894H390.305ZM390.305 27.2282V25.9975H389.694V27.2282H390.305ZM390.305 24.7669V23.5362H389.694V24.7669H390.305ZM390.305 22.3056V21.0749H389.694V22.3056H390.305ZM390.305 19.8443V18.6137H389.694V19.8443H390.305ZM390.305 17.383V16.1524H389.694V17.383H390.305ZM390.305 14.9217V13.6911H389.694V14.9217H390.305ZM390.305 12.4604V11.2298H389.694V12.4604H390.305ZM390.305 9.99915V8.76851H389.694V9.99915H390.305ZM390.305 7.53788V6.30724H389.694V7.53788H390.305ZM390.305 5.0766V3.84596H389.694V5.0766H390.305ZM390.305 2.61533V2H389.694V2.61533H390.305ZM92.8701 149C92.8701 149.9 93.5999 150.63 94.5 150.63C95.4001 150.63 96.1299 149.9 96.1299 149C96.1299 148.1 95.4001 147.37 94.5 147.37C93.5999 147.37 92.8701 148.1 92.8701 149ZM388.369 2C388.369 2.90014 389.099 3.62985 389.999 3.62985C390.899 3.62985 391.629 2.90014 391.629 2C391.629 1.09986 390.899 0.370149 389.999 0.370149C389.099 0.370149 388.369 1.09986 388.369 2ZM94.5 149.306H95.1118V148.694H94.5V149.306ZM96.3355 149.306H97.5591V148.694H96.3355V149.306ZM98.7827 149.306H100.006V148.694H98.7827V149.306ZM101.23 149.306H102.454V148.694H101.23V149.306ZM103.677 149.306H104.901V148.694H103.677V149.306ZM106.125 149.306H107.348V148.694H106.125V149.306ZM108.572 149.306H109.795V148.694H108.572V149.306ZM111.019 149.306H112.243V148.694H111.019V149.306ZM113.466 149.306H114.69V148.694H113.466V149.306ZM115.914 149.306H117.137V148.694H115.914V149.306ZM118.361 149.306H119.585V148.694H118.361V149.306ZM120.808 149.306H122.032V148.694H120.808V149.306ZM123.255 149.306H124.479V148.694H123.255V149.306ZM125.703 149.306H126.926V148.694H125.703V149.306ZM128.15 149.306H129.374V148.694H128.15V149.306ZM130.597 149.306H131.821V148.694H130.597V149.306ZM133.045 149.306H134.268V148.694H133.045V149.306ZM135.492 149.306H136.716V148.694H135.492V149.306ZM137.939 149.306H139.163V148.694H137.939V149.306ZM140.386 149.306H141.61V148.694H140.386V149.306ZM142.834 149.306H144.057V148.694H142.834V149.306ZM145.281 149.306H146.505V148.694H145.281V149.306ZM147.728 149.306H148.952V148.694H147.728V149.306ZM150.176 149.306H151.399V148.694H150.176V149.306ZM152.623 149.306H153.846V148.694H152.623V149.306ZM155.07 149.306H156.294V148.694H155.07V149.306ZM157.517 149.306H158.741V148.694H157.517V149.306ZM159.965 149.306H161.188V148.694H159.965V149.306ZM162.412 149.306H163.636V148.694H162.412V149.306ZM164.859 149.306H166.083V148.694H164.859V149.306ZM167.306 149.306H168.53V148.694H167.306V149.306ZM169.754 149.306H170.977V148.694H169.754V149.306ZM172.201 149.306H173.425V148.694H172.201V149.306ZM174.648 149.306H175.872V148.694H174.648V149.306ZM177.096 149.306H178.319V148.694H177.096V149.306ZM179.543 149.306H180.766V148.694H179.543V149.306ZM181.99 149.306H183.214V148.694H181.99V149.306ZM184.437 149.306H185.661V148.694H184.437V149.306ZM186.885 149.306H188.108V148.694H186.885V149.306ZM189.332 149.306H190.556V148.694H189.332V149.306ZM191.779 149.306H193.003V148.694H191.779V149.306ZM194.227 149.306H195.45V148.694H194.227V149.306ZM196.674 149.306H197.897V148.694H196.674V149.306ZM199.121 149.306H200.345V148.694H199.121V149.306ZM201.568 149.306H202.792V148.694H201.568V149.306ZM204.016 149.306H205.239V148.694H204.016V149.306ZM206.463 149.306H207.687V148.694H206.463V149.306ZM208.91 149.306H210.134V148.694H208.91V149.306ZM211.357 149.306H212.581V148.694H211.357V149.306ZM213.805 149.306H215.028V148.694H213.805V149.306ZM216.252 149.306H217.476V148.694H216.252V149.306ZM218.699 149.306H219.923V148.694H218.699V149.306ZM221.147 149.306H222.37V148.694H221.147V149.306ZM223.594 149.306H224.818V148.694H223.594V149.306ZM226.041 149.306H227.265V148.694H226.041V149.306ZM228.488 149.306H229.712V148.694H228.488V149.306ZM230.936 149.306H232.159V148.694H230.936V149.306ZM233.383 149.306H234.607V148.694H233.383V149.306ZM235.83 149.306H237.054V148.694H235.83V149.306ZM238.277 149.306H239.501V148.694H238.277V149.306ZM240.725 149.306H241.948V148.694H240.725V149.306ZM243.172 149.306H244.396V148.694H243.172V149.306ZM245.619 149.306H246.843V148.694H245.619V149.306ZM248.067 149.306H249.29V148.694H248.067V149.306ZM250.514 149.306H251.737V148.694H250.514V149.306ZM252.961 149.306H254.185V148.694H252.961V149.306ZM255.408 149.306H256.632V148.694H255.408V149.306ZM257.856 149.306H259.079V148.694H257.856V149.306ZM260.303 149.306H261.527V148.694H260.303V149.306ZM262.75 149.306H263.974V148.694H262.75V149.306ZM265.197 149.306H266.421V148.694H265.197V149.306ZM267.645 149.306H268.868V148.694H267.645V149.306ZM270.092 149.306H271.316V148.694H270.092V149.306ZM272.539 149.306H273.763V148.694H272.539V149.306ZM274.986 149.306H276.21V148.694H274.986V149.306ZM277.434 149.306H278.657V148.694H277.434V149.306ZM279.881 149.306H281.105V148.694H279.881V149.306ZM282.328 149.306H283.552V148.694H282.328V149.306ZM284.776 149.306H285.999V148.694H284.776V149.306ZM287.223 149.306H288.446V148.694H287.223V149.306ZM289.67 149.306H290.894V148.694H289.67V149.306ZM292.117 149.306H293.341V148.694H292.117V149.306ZM294.565 149.306H295.788V148.694H294.565V149.306ZM297.012 149.306H298.236V148.694H297.012V149.306ZM299.459 149.306H300.683V148.694H299.459V149.306ZM301.906 149.306H303.13V148.694H301.906V149.306ZM304.354 149.306H305.577V148.694H304.354V149.306ZM306.801 149.306H308.025V148.694H306.801V149.306ZM309.248 149.306H310.472V148.694H309.248V149.306ZM311.695 149.306H312.919V148.694H311.695V149.306ZM314.143 149.306H315.366V148.694H314.143V149.306ZM316.59 149.306H317.814V148.694H316.59V149.306ZM319.037 149.306H320.261V148.694H319.037V149.306ZM321.485 149.306H322.708V148.694H321.485V149.306ZM323.932 149.306H325.155V148.694H323.932V149.306ZM326.379 149.306H327.603V148.694H326.379V149.306ZM328.826 149.306H330.05V148.694H328.826V149.306ZM331.274 149.306H332.497V148.694H331.274V149.306ZM333.721 149.306H334.944V148.694H333.721V149.306ZM336.168 149.306H337.392V148.694H336.168V149.306ZM338.615 149.306H339.839V148.694H338.615V149.306ZM341.063 149.306H342.286V148.694H341.063V149.306ZM343.51 149.306H344.734V148.694H343.51V149.306ZM345.957 149.306H347.181V148.694H345.957V149.306ZM348.404 149.306H349.628V148.694H348.404V149.306ZM350.852 149.306H352.075V148.694H350.852V149.306ZM353.299 149.306H354.523V148.694H353.299V149.306ZM355.746 149.306H356.97V148.694H355.746V149.306ZM358.194 149.306H359.417V148.694H358.194V149.306ZM360.641 149.306H361.864V148.694H360.641V149.306ZM363.088 149.306H364.312V148.694H363.088V149.306ZM365.535 149.306H366.759V148.694H365.535V149.306ZM367.983 149.306H369.206V148.694H367.983V149.306ZM370.43 149.306H371.653V148.694H370.43V149.306ZM372.877 149.306H374.101V148.694H372.877V149.306ZM375.324 149.306H376.548V148.694H375.324V149.306ZM377.772 149.306H378.995V148.694H377.772V149.306ZM380.219 149.306H380.831V148.694H380.219V149.306ZM380.831 149.306C381.039 149.306 381.246 149.299 381.451 149.286L381.412 148.676C381.22 148.688 381.026 148.694 380.831 148.694V149.306ZM382.68 149.125C383.089 149.044 383.489 148.937 383.877 148.805L383.681 148.226C383.318 148.35 382.944 148.45 382.561 148.526L382.68 149.125ZM385.022 148.33C385.394 148.147 385.753 147.939 386.095 147.71L385.755 147.202C385.435 147.416 385.1 147.61 384.752 147.782L385.022 148.33ZM387.078 146.955C387.388 146.682 387.681 146.389 387.954 146.079L387.495 145.675C387.239 145.966 386.965 146.24 386.675 146.495L387.078 146.955ZM388.709 145.096C388.938 144.754 389.146 144.395 389.33 144.023L388.782 143.752C388.61 144.1 388.416 144.436 388.201 144.756L388.709 145.096ZM389.804 142.878C389.936 142.49 390.043 142.09 390.124 141.681L389.525 141.562C389.449 141.945 389.349 142.319 389.226 142.682L389.804 142.878ZM390.285 140.452C390.298 140.247 390.305 140.04 390.305 139.832H389.694C389.694 140.027 389.687 140.221 389.675 140.413L390.285 140.452ZM390.305 139.832V139.217H389.694V139.832H390.305ZM390.305 137.986V136.755H389.694V137.986H390.305ZM390.305 135.525V134.294H389.694V135.525H390.305ZM390.305 133.064V131.833H389.694V133.064H390.305ZM390.305 130.602V129.372H389.694V130.602H390.305ZM390.305 128.141V126.91H389.694V128.141H390.305ZM390.305 125.68V124.449H389.694V125.68H390.305ZM390.305 123.218V121.988H389.694V123.218H390.305ZM390.305 120.757V119.526H389.694V120.757H390.305ZM390.305 118.296V117.065H389.694V118.296H390.305ZM390.305 115.835V114.604H389.694V115.835H390.305ZM390.305 113.373V112.143H389.694V113.373H390.305ZM390.305 110.912V109.681H389.694V110.912H390.305ZM390.305 108.451V107.22H389.694V108.451H390.305ZM390.305 105.989V104.759H389.694V105.989H390.305ZM390.305 103.528V102.297H389.694V103.528H390.305ZM390.305 101.067V99.8362H389.694V101.067H390.305ZM390.305 98.6055V97.3749H389.694V98.6055H390.305ZM390.305 96.1442V94.9136H389.694V96.1442H390.305ZM390.305 93.6829V92.4523H389.694V93.6829H390.305ZM390.305 91.2217V89.991H389.694V91.2217H390.305ZM390.305 88.7604V87.5297H389.694V88.7604H390.305ZM390.305 86.2991V85.0684H389.694V86.2991H390.305ZM390.305 83.8378V82.6071H389.694V83.8378H390.305ZM390.305 81.3765V80.1459H389.694V81.3765H390.305ZM390.305 78.9152V77.6846H389.694V78.9152H390.305ZM390.305 76.4539V75.2233H389.694V76.4539H390.305ZM390.305 73.9926V72.762H389.694V73.9926H390.305ZM390.305 71.5313V70.3007H389.694V71.5313H390.305ZM390.305 69.0701V67.8394H389.694V69.0701H390.305ZM390.305 66.6088V65.3781H389.694V66.6088H390.305ZM390.305 64.1475V62.9168H389.694V64.1475H390.305ZM390.305 61.6862V60.4555H389.694V61.6862H390.305ZM390.305 59.2249V57.9943H389.694V59.2249H390.305ZM390.305 56.7636V55.533H389.694V56.7636H390.305ZM390.305 54.3023V53.0717H389.694V54.3023H390.305ZM390.305 51.841V50.6104H389.694V51.841H390.305ZM390.305 49.3798V48.1491H389.694V49.3798H390.305ZM390.305 46.9185V45.6878H389.694V46.9185H390.305ZM390.305 44.4572V43.2265H389.694V44.4572H390.305ZM390.305 41.9959V40.7652H389.694V41.9959H390.305ZM390.305 39.5346V38.304H389.694V39.5346H390.305ZM390.305 37.0733V35.8427H389.694V37.0733H390.305ZM390.305 34.612V33.3814H389.694V34.612H390.305ZM390.305 32.1507V30.9201H389.694V32.1507H390.305ZM390.305 29.6894V28.4588H389.694V29.6894H390.305ZM390.305 27.2282V25.9975H389.694V27.2282H390.305ZM390.305 24.7669V23.5362H389.694V24.7669H390.305ZM390.305 22.3056V21.0749H389.694V22.3056H390.305ZM390.305 19.8443V18.6137H389.694V19.8443H390.305ZM390.305 17.383V16.1524H389.694V17.383H390.305ZM390.305 14.9217V13.6911H389.694V14.9217H390.305ZM390.305 12.4604V11.2298H389.694V12.4604H390.305ZM390.305 9.99915V8.76851H389.694V9.99915H390.305ZM390.305 7.53788V6.30724H389.694V7.53788H390.305ZM390.305 5.0766V3.84596H389.694V5.0766H390.305ZM390.305 2.61533V2H389.694V2.61533H390.305Z" fill="white"/>
</svg>
