<svg width="4" height="97" viewBox="0 0 4 97" fill="none" xmlns="http://www.w3.org/2000/svg">
<path d="M0.370149 2C0.370149 1.09986 1.09986 0.370148 2 0.370148C2.90014 0.370148 3.62985 1.09986 3.62985 2C3.62985 2.90014 2.90014 3.62985 2 3.62985C1.09986 3.62985 0.370149 2.90014 0.370149 2ZM1.99921 58.4099L1.69361 58.4099V58.4099L1.99921 58.4099ZM0.369936 95C0.369936 94.0999 1.09964 93.3701 1.99979 93.3701C2.89993 93.3701 3.62964 94.0999 3.62964 95C3.62964 95.9001 2.89993 96.6299 1.99979 96.6299C1.09964 96.6299 0.369936 95.9001 0.369936 95ZM1.69419 95L1.69418 94.3902L2.30537 94.3902L2.30538 95L1.69419 95ZM1.69416 93.1705L1.69414 91.9508L2.30534 91.9508L2.30535 93.1705L1.69416 93.1705ZM1.69412 90.7312L1.6941 89.5115L2.3053 89.5115L2.30532 90.7312L1.69412 90.7312ZM1.69408 88.2918L1.69406 87.0722L2.30526 87.0721L2.30528 88.2918L1.69408 88.2918ZM1.69405 85.8525L1.69403 84.6328L2.30522 84.6328L2.30524 85.8525L1.69405 85.8525ZM1.69401 83.4131L1.69399 82.1935L2.30518 82.1935L2.3052 83.4131L1.69401 83.4131ZM1.69397 80.9738L1.69395 79.7541L2.30514 79.7541L2.30516 80.9738L1.69397 80.9738ZM1.69393 78.5345L1.69391 77.3148L2.3051 77.3148L2.30512 78.5345L1.69393 78.5345ZM1.69389 76.0951L1.69387 74.8755L2.30507 74.8754L2.30509 76.0951L1.69389 76.0951ZM1.69385 73.6558L1.69383 72.4361L2.30503 72.4361L2.30505 73.6558L1.69385 73.6558ZM1.69381 71.2165L1.6938 69.9968L2.30499 69.9968L2.30501 71.2164L1.69381 71.2165ZM1.69378 68.7771L1.69376 67.5574L2.30495 67.5574L2.30497 68.7771L1.69378 68.7771ZM1.69374 66.3378L1.69372 65.1181L2.30491 65.1181L2.30493 66.3378L1.69374 66.3378ZM1.6937 63.8984L1.69368 62.6788L2.30487 62.6788L2.30489 63.8984L1.6937 63.8984ZM1.69366 61.4591L1.69364 60.2394L2.30484 60.2394L2.30485 61.4591L1.69366 61.4591ZM1.69362 59.0198L1.69361 58.4099L2.30481 58.4099L2.30482 59.0197L1.69362 59.0198ZM1.69361 58.4099L1.69362 57.7968L2.30481 57.7968L2.30481 58.4099L1.69361 58.4099ZM1.69364 56.5705L1.69366 55.3442L2.30485 55.3442L2.30483 56.5705L1.69364 56.5705ZM1.69367 54.1179L1.69369 52.8915L2.30488 52.8916L2.30487 54.1179L1.69367 54.1179ZM1.69371 51.6652L1.69372 50.4389L2.30492 50.439L2.3049 51.6653L1.69371 51.6652ZM1.69374 49.2126L1.69376 47.9863L2.30495 47.9863L2.30494 49.2127L1.69374 49.2126ZM1.69378 46.76L1.69379 45.5337L2.30499 45.5337L2.30497 46.76L1.69378 46.76ZM1.69381 44.3074L1.69383 43.0811L2.30502 43.0811L2.305 44.3074L1.69381 44.3074ZM1.69384 41.8548L1.69386 40.6285L2.30506 40.6285L2.30504 41.8548L1.69384 41.8548ZM1.69388 39.4022L1.6939 38.1759L2.30509 38.1759L2.30507 39.4022L1.69388 39.4022ZM1.69391 36.9496L1.69393 35.7233L2.30512 35.7233L2.30511 36.9496L1.69391 36.9496ZM1.69395 34.497L1.69396 33.2707L2.30516 33.2707L2.30514 34.497L1.69395 34.497ZM1.69398 32.0444L1.694 30.8181L2.30519 30.8181L2.30518 32.0444L1.69398 32.0444ZM1.69402 29.5918L1.69403 28.3655L2.30523 28.3655L2.30521 29.5918L1.69402 29.5918ZM1.69405 27.1392L1.69407 25.9129L2.30526 25.9129L2.30524 27.1392L1.69405 27.1392ZM1.69408 24.6866L1.6941 23.4603L2.3053 23.4603L2.30528 24.6866L1.69408 24.6866ZM1.69412 22.234L1.69414 21.0077L2.30533 21.0077L2.30531 22.234L1.69412 22.234ZM1.69415 19.7814L1.69417 18.5551L2.30536 18.5551L2.30535 19.7814L1.69415 19.7814ZM1.69419 17.3288L1.69421 16.1025L2.3054 16.1025L2.30538 17.3288L1.69419 17.3288ZM1.69422 14.8762L1.69424 13.6499L2.30543 13.6499L2.30542 14.8762L1.69422 14.8762ZM1.69426 12.4236L1.69427 11.1973L2.30547 11.1973L2.30545 12.4236L1.69426 12.4236ZM1.69429 9.97095L1.69431 8.74464L2.3055 8.74465L2.30549 9.97095L1.69429 9.97095ZM1.69433 7.51834L1.69434 6.29204L2.30554 6.29205L2.30552 7.51835L1.69433 7.51834ZM1.69436 5.06573L1.69438 3.83943L2.30557 3.83944L2.30555 5.06574L1.69436 5.06573ZM1.69439 2.61313L1.6944 1.99999L2.3056 2.00001L2.30559 2.61314L1.69439 2.61313ZM0.370149 2C0.370149 1.09986 1.09986 0.370148 2 0.370148C2.90014 0.370148 3.62985 1.09986 3.62985 2C3.62985 2.90014 2.90014 3.62985 2 3.62985C1.09986 3.62985 0.370149 2.90014 0.370149 2ZM1.99921 58.4099L1.69361 58.4099V58.4099L1.99921 58.4099ZM0.369936 95C0.369936 94.0999 1.09964 93.3701 1.99979 93.3701C2.89993 93.3701 3.62964 94.0999 3.62964 95C3.62964 95.9001 2.89993 96.6299 1.99979 96.6299C1.09964 96.6299 0.369936 95.9001 0.369936 95ZM1.69419 95L1.69418 94.3902L2.30537 94.3902L2.30538 95L1.69419 95ZM1.69416 93.1705L1.69414 91.9508L2.30534 91.9508L2.30535 93.1705L1.69416 93.1705ZM1.69412 90.7312L1.6941 89.5115L2.3053 89.5115L2.30532 90.7312L1.69412 90.7312ZM1.69408 88.2918L1.69406 87.0722L2.30526 87.0721L2.30528 88.2918L1.69408 88.2918ZM1.69405 85.8525L1.69403 84.6328L2.30522 84.6328L2.30524 85.8525L1.69405 85.8525ZM1.69401 83.4131L1.69399 82.1935L2.30518 82.1935L2.3052 83.4131L1.69401 83.4131ZM1.69397 80.9738L1.69395 79.7541L2.30514 79.7541L2.30516 80.9738L1.69397 80.9738ZM1.69393 78.5345L1.69391 77.3148L2.3051 77.3148L2.30512 78.5345L1.69393 78.5345ZM1.69389 76.0951L1.69387 74.8755L2.30507 74.8754L2.30509 76.0951L1.69389 76.0951ZM1.69385 73.6558L1.69383 72.4361L2.30503 72.4361L2.30505 73.6558L1.69385 73.6558ZM1.69381 71.2165L1.6938 69.9968L2.30499 69.9968L2.30501 71.2164L1.69381 71.2165ZM1.69378 68.7771L1.69376 67.5574L2.30495 67.5574L2.30497 68.7771L1.69378 68.7771ZM1.69374 66.3378L1.69372 65.1181L2.30491 65.1181L2.30493 66.3378L1.69374 66.3378ZM1.6937 63.8984L1.69368 62.6788L2.30487 62.6788L2.30489 63.8984L1.6937 63.8984ZM1.69366 61.4591L1.69364 60.2394L2.30484 60.2394L2.30485 61.4591L1.69366 61.4591ZM1.69362 59.0198L1.69361 58.4099L2.30481 58.4099L2.30482 59.0197L1.69362 59.0198ZM1.69361 58.4099L1.69362 57.7968L2.30481 57.7968L2.30481 58.4099L1.69361 58.4099ZM1.69364 56.5705L1.69366 55.3442L2.30485 55.3442L2.30483 56.5705L1.69364 56.5705ZM1.69367 54.1179L1.69369 52.8915L2.30488 52.8916L2.30487 54.1179L1.69367 54.1179ZM1.69371 51.6652L1.69372 50.4389L2.30492 50.439L2.3049 51.6653L1.69371 51.6652ZM1.69374 49.2126L1.69376 47.9863L2.30495 47.9863L2.30494 49.2127L1.69374 49.2126ZM1.69378 46.76L1.69379 45.5337L2.30499 45.5337L2.30497 46.76L1.69378 46.76ZM1.69381 44.3074L1.69383 43.0811L2.30502 43.0811L2.305 44.3074L1.69381 44.3074ZM1.69384 41.8548L1.69386 40.6285L2.30506 40.6285L2.30504 41.8548L1.69384 41.8548ZM1.69388 39.4022L1.6939 38.1759L2.30509 38.1759L2.30507 39.4022L1.69388 39.4022ZM1.69391 36.9496L1.69393 35.7233L2.30512 35.7233L2.30511 36.9496L1.69391 36.9496ZM1.69395 34.497L1.69396 33.2707L2.30516 33.2707L2.30514 34.497L1.69395 34.497ZM1.69398 32.0444L1.694 30.8181L2.30519 30.8181L2.30518 32.0444L1.69398 32.0444ZM1.69402 29.5918L1.69403 28.3655L2.30523 28.3655L2.30521 29.5918L1.69402 29.5918ZM1.69405 27.1392L1.69407 25.9129L2.30526 25.9129L2.30524 27.1392L1.69405 27.1392ZM1.69408 24.6866L1.6941 23.4603L2.3053 23.4603L2.30528 24.6866L1.69408 24.6866ZM1.69412 22.234L1.69414 21.0077L2.30533 21.0077L2.30531 22.234L1.69412 22.234ZM1.69415 19.7814L1.69417 18.5551L2.30536 18.5551L2.30535 19.7814L1.69415 19.7814ZM1.69419 17.3288L1.69421 16.1025L2.3054 16.1025L2.30538 17.3288L1.69419 17.3288ZM1.69422 14.8762L1.69424 13.6499L2.30543 13.6499L2.30542 14.8762L1.69422 14.8762ZM1.69426 12.4236L1.69427 11.1973L2.30547 11.1973L2.30545 12.4236L1.69426 12.4236ZM1.69429 9.97095L1.69431 8.74464L2.3055 8.74465L2.30549 9.97095L1.69429 9.97095ZM1.69433 7.51834L1.69434 6.29204L2.30554 6.29205L2.30552 7.51835L1.69433 7.51834ZM1.69436 5.06573L1.69438 3.83943L2.30557 3.83944L2.30555 5.06574L1.69436 5.06573ZM1.69439 2.61313L1.6944 1.99999L2.3056 2.00001L2.30559 2.61314L1.69439 2.61313Z" fill="white"/>
</svg>
