<svg width="348" height="97" viewBox="0 0 348 97" fill="none" xmlns="http://www.w3.org/2000/svg">
<path d="M0.37094 2C0.37094 1.09986 1.10065 0.370148 2.00079 0.370148C2.90093 0.370148 3.63064 1.09986 3.63064 2C3.63064 2.90014 2.90093 3.62985 2.00079 3.62985C1.10065 3.62985 0.37094 2.90014 0.37094 2ZM2.00013 49.2419L2.30573 49.2419L2.00013 49.2419ZM11.168 58.4099V58.7155V58.4099ZM336.832 58.4099V58.1043V58.4099ZM344.37 95C344.37 94.0999 345.1 93.3701 346 93.3701C346.9 93.3701 347.63 94.0999 347.63 95C347.63 95.9001 346.9 96.6299 346 96.6299C345.1 96.6299 344.37 95.9001 344.37 95ZM2.30639 2.00001L2.30638 2.6216L1.69519 2.6216L1.69519 1.99999L2.30639 2.00001ZM2.30636 3.86481L2.30634 5.10802L1.69515 5.10802L1.69517 3.86481L2.30636 3.86481ZM2.30633 6.35123L2.30631 7.59444L1.69512 7.59443L1.69513 6.35122L2.30633 6.35123ZM2.30629 8.83765L2.30627 10.0808L1.69508 10.0808L1.6951 8.83763L2.30629 8.83765ZM2.30626 11.3241L2.30624 12.5673L1.69505 12.5673L1.69506 11.3241L2.30626 11.3241ZM2.30622 13.8105L2.3062 15.0537L1.69501 15.0537L1.69503 13.8105L2.30622 13.8105ZM2.30619 16.2969L2.30617 17.5401L1.69498 17.5401L1.69499 16.2969L2.30619 16.2969ZM2.30615 18.7833L2.30614 20.0265L1.69494 20.0265L1.69496 18.7833L2.30615 18.7833ZM2.30612 21.2697L2.3061 22.5129L1.69491 22.5129L1.69492 21.2697L2.30612 21.2697ZM2.30608 23.7561L2.30607 24.9993L1.69487 24.9993L1.69489 23.7561L2.30608 23.7561ZM2.30605 26.2425L2.30603 27.4858L1.69484 27.4857L1.69485 26.2425L2.30605 26.2425ZM2.30601 28.729L2.306 29.9722L1.6948 29.9722L1.69482 28.729L2.30601 28.729ZM2.30598 31.2154L2.30596 32.4586L1.69477 32.4586L1.69478 31.2154L2.30598 31.2154ZM2.30594 33.7018L2.30593 34.945L1.69473 34.945L1.69475 33.7018L2.30594 33.7018ZM2.30591 36.1882L2.30589 37.4314L1.6947 37.4314L1.69471 36.1882L2.30591 36.1882ZM2.30587 38.6746L2.30586 39.9178L1.69466 39.9178L1.69468 38.6746L2.30587 38.6746ZM2.30584 41.161L2.30582 42.4042L1.69463 42.4042L1.69464 41.161L2.30584 41.161ZM2.3058 43.6474L2.30579 44.8906L1.69459 44.8906L1.69461 43.6474L2.3058 43.6474ZM2.30577 46.1339L2.30575 47.3771L1.69456 47.3771L1.69458 46.1338L2.30577 46.1339ZM2.30573 48.6203L2.30573 49.2419L1.69453 49.2419L1.69454 48.6203L2.30573 48.6203ZM2.30573 49.2419C2.30572 49.4369 2.31202 49.6305 2.32441 49.8224L1.71449 49.8618C1.70125 49.6568 1.69453 49.4501 1.69453 49.2419L2.30573 49.2419ZM2.4744 50.9718C2.55011 51.3546 2.65047 51.7284 2.77376 52.0917L2.19498 52.2881C2.06312 51.8996 1.95579 51.4997 1.87482 51.0904L2.4744 50.9718ZM3.21769 53.1623C3.38962 53.5103 3.58374 53.8454 3.79822 54.1658L3.29033 54.5058C3.06109 54.1633 2.85356 53.8051 2.66972 53.433L3.21769 53.1623ZM4.50476 55.0852C4.75997 55.376 5.03392 55.65 5.32471 55.9052L4.92154 56.3646C4.61082 56.0919 4.3181 55.7991 4.04539 55.4884L4.50476 55.0852ZM6.24417 56.6118C6.56455 56.8262 6.89965 57.0204 7.24763 57.1923L6.97689 57.7403C6.60481 57.5564 6.24658 57.3489 5.90415 57.1196L6.24417 56.6118ZM8.31822 57.6362C8.68149 57.7595 9.05535 57.8599 9.4381 57.9356L9.31949 58.5352C8.91018 58.4542 8.51033 58.3469 8.12179 58.215L8.31822 57.6362ZM10.5876 58.0856C10.7794 58.098 10.973 58.1043 11.168 58.1043V58.7155C10.9598 58.7155 10.7531 58.7088 10.5481 58.6955L10.5876 58.0856ZM11.168 58.1043H11.7802V58.7155H11.168V58.1043ZM13.0045 58.1043L14.2288 58.1043V58.7155H13.0045V58.1043ZM15.4531 58.1043H16.6774V58.7155H15.4531V58.1043ZM17.9017 58.1043H19.126V58.7155H17.9017V58.1043ZM20.3503 58.1043H21.5746V58.7155H20.3503L20.3503 58.1043ZM22.7989 58.1043H24.0232V58.7155H22.7989V58.1043ZM25.2475 58.1043H26.4718V58.7155H25.2475V58.1043ZM27.6961 58.1043H28.9204V58.7155H27.6961V58.1043ZM30.1447 58.1043L31.369 58.1043V58.7155L30.1447 58.7155V58.1043ZM32.5933 58.1043H33.8176V58.7155H32.5933V58.1043ZM35.0419 58.1043H36.2662V58.7155H35.0419V58.1043ZM37.4905 58.1043L38.7148 58.1043V58.7155H37.4905V58.1043ZM39.9391 58.1043H41.1634L41.1634 58.7155H39.9391V58.1043ZM42.3877 58.1043H43.612V58.7155H42.3877V58.1043ZM44.8363 58.1043H46.0606V58.7155H44.8363V58.1043ZM47.2849 58.1043H48.5092V58.7155H47.2849V58.1043ZM49.7335 58.1043H50.9578V58.7155H49.7335V58.1043ZM52.1821 58.1043H53.4064V58.7155H52.1821V58.1043ZM54.6307 58.1043H55.855V58.7155H54.6307V58.1043ZM57.0793 58.1043H58.3036V58.7155H57.0793V58.1043ZM59.5279 58.1043H60.7522V58.7155H59.5279V58.1043ZM61.9765 58.1043H63.2008V58.7155H61.9765V58.1043ZM64.4251 58.1043H65.6494V58.7155H64.4251V58.1043ZM66.8737 58.1043H68.098V58.7155H66.8737V58.1043ZM69.3223 58.1043H70.5466V58.7155H69.3223V58.1043ZM71.7709 58.1043H72.9952V58.7155H71.7709V58.1043ZM74.2195 58.1043H75.4438V58.7155H74.2195V58.1043ZM76.6681 58.1043H77.8924V58.7155H76.6681V58.1043ZM79.1167 58.1043H80.341V58.7155H79.1167V58.1043ZM81.5653 58.1043H82.7896V58.7155H81.5653V58.1043ZM84.0139 58.1043H85.2383V58.7155L84.0139 58.7155V58.1043ZM86.4626 58.1043H87.6869V58.7155H86.4626V58.1043ZM88.9112 58.1043L90.1355 58.1043V58.7155L88.9112 58.7155V58.1043ZM91.3598 58.1043H92.5841V58.7155H91.3598V58.1043ZM93.8084 58.1043H95.0327V58.7155H93.8084V58.1043ZM96.257 58.1043H97.4813V58.7155H96.257V58.1043ZM98.7056 58.1043H99.9299V58.7155H98.7056V58.1043ZM101.154 58.1043H102.379V58.7155H101.154V58.1043ZM103.603 58.1043H104.827V58.7155H103.603V58.1043ZM106.051 58.1043H107.276V58.7155H106.051V58.1043ZM108.5 58.1043H109.724V58.7155L108.5 58.7155V58.1043ZM110.949 58.1043H112.173L112.173 58.7155H110.949V58.1043ZM113.397 58.1043H114.622V58.7155H113.397V58.1043ZM115.846 58.1043H117.07V58.7155H115.846V58.1043ZM118.294 58.1043H119.519V58.7155H118.294V58.1043ZM120.743 58.1043H121.967V58.7155H120.743V58.1043ZM123.192 58.1043H124.416V58.7155H123.192V58.1043ZM125.64 58.1043H126.865V58.7155H125.64V58.1043ZM128.089 58.1043H129.313V58.7155H128.089V58.1043ZM130.538 58.1043H131.762V58.7155H130.538V58.1043ZM132.986 58.1043H134.21V58.7155H132.986V58.1043ZM135.435 58.1043H136.659V58.7155H135.435V58.1043ZM137.883 58.1043L139.108 58.1043V58.7155H137.883V58.1043ZM140.332 58.1043H141.556V58.7155H140.332V58.1043ZM142.781 58.1043H144.005V58.7155H142.781V58.1043ZM145.229 58.1043H146.453V58.7155H145.229V58.1043ZM147.678 58.1043H148.902V58.7155H147.678V58.1043ZM150.126 58.1043H151.351V58.7155H150.126V58.1043ZM152.575 58.1043H153.799V58.7155H152.575V58.1043ZM155.024 58.1043H156.248V58.7155H155.024V58.1043ZM157.472 58.1043H158.696V58.7155H157.472V58.1043ZM159.921 58.1043H161.145V58.7155H159.921V58.1043ZM162.369 58.1043L163.594 58.1043V58.7155H162.369V58.1043ZM164.818 58.1043H166.042V58.7155H164.818V58.1043ZM167.267 58.1043H168.491V58.7155H167.267V58.1043ZM169.715 58.1043H170.94V58.7155H169.715V58.1043ZM172.164 58.1043H173.388V58.7155H172.164V58.1043ZM174.612 58.1043H175.837V58.7155H174.612V58.1043ZM177.061 58.1043H178.285V58.7155H177.061V58.1043ZM179.51 58.1043H180.734V58.7155H179.51V58.1043ZM181.958 58.1043H183.183V58.7155H181.958V58.1043ZM184.407 58.1043H185.631V58.7155L184.407 58.7155V58.1043ZM186.855 58.1043H188.08V58.7155H186.855V58.1043ZM189.304 58.1043H190.528V58.7155H189.304V58.1043ZM191.753 58.1043H192.977V58.7155H191.753V58.1043ZM194.201 58.1043H195.426V58.7155H194.201V58.1043ZM196.65 58.1043H197.874V58.7155H196.65V58.1043ZM199.099 58.1043H200.323V58.7155H199.099V58.1043ZM201.547 58.1043H202.771V58.7155H201.547V58.1043ZM203.996 58.1043L205.22 58.1043V58.7155L203.996 58.7155V58.1043ZM206.444 58.1043H207.669V58.7155H206.444V58.1043ZM208.893 58.1043H210.117V58.7155L208.893 58.7155V58.1043ZM211.342 58.1043H212.566V58.7155H211.342V58.1043ZM213.79 58.1043H215.014V58.7155H213.79V58.1043ZM216.239 58.1043H217.463V58.7155H216.239V58.1043ZM218.687 58.1043H219.912V58.7155H218.687V58.1043ZM221.136 58.1043H222.36V58.7155H221.136V58.1043ZM223.585 58.1043H224.809V58.7155H223.585V58.1043ZM226.033 58.1043H227.258V58.7155H226.033V58.1043ZM228.482 58.1043H229.706V58.7155H228.482V58.1043ZM230.93 58.1043H232.155V58.7155H230.93V58.1043ZM233.379 58.1043H234.603V58.7155H233.379V58.1043ZM235.828 58.1043H237.052V58.7155H235.828V58.1043ZM238.276 58.1043L239.501 58.1043V58.7155H238.276V58.1043ZM240.725 58.1043H241.949V58.7155H240.725V58.1043ZM243.173 58.1043H244.398V58.7155H243.173V58.1043ZM245.622 58.1043H246.846V58.7155H245.622V58.1043ZM248.071 58.1043H249.295V58.7155H248.071V58.1043ZM250.519 58.1043H251.744V58.7155H250.519V58.1043ZM252.968 58.1043H254.192V58.7155H252.968V58.1043ZM255.417 58.1043H256.641V58.7155H255.417V58.1043ZM257.865 58.1043H259.089V58.7155H257.865V58.1043ZM260.314 58.1043H261.538V58.7155H260.314V58.1043ZM262.762 58.1043L263.987 58.1043V58.7155L262.762 58.7155V58.1043ZM265.211 58.1043H266.435V58.7155H265.211V58.1043ZM267.66 58.1043H268.884V58.7155H267.66V58.1043ZM270.108 58.1043H271.332V58.7155H270.108V58.1043ZM272.557 58.1043H273.781V58.7155H272.557V58.1043ZM275.005 58.1043H276.23V58.7155H275.005V58.1043ZM277.454 58.1043H278.678V58.7155H277.454V58.1043ZM279.903 58.1043H281.127V58.7155H279.903V58.1043ZM282.351 58.1043H283.576V58.7155H282.351V58.1043ZM284.8 58.1043H286.024V58.7155H284.8V58.1043ZM287.248 58.1043H288.473V58.7155H287.248V58.1043ZM289.697 58.1043H290.921V58.7155H289.697V58.1043ZM292.146 58.1043H293.37V58.7155H292.146V58.1043ZM294.594 58.1043H295.819V58.7155H294.594V58.1043ZM297.043 58.1043H298.267V58.7155H297.043V58.1043ZM299.491 58.1043H300.716V58.7155H299.491V58.1043ZM301.94 58.1043H303.164V58.7155H301.94V58.1043ZM304.389 58.1043H305.613V58.7155H304.389V58.1043ZM306.837 58.1043H308.062V58.7155H306.837V58.1043ZM309.286 58.1043H310.51V58.7155L309.286 58.7155V58.1043ZM311.734 58.1043H312.959V58.7155H311.734V58.1043ZM314.183 58.1043H315.407V58.7155H314.183V58.1043ZM316.632 58.1043H317.856V58.7155H316.632V58.1043ZM319.08 58.1043H320.305V58.7155H319.08V58.1043ZM321.529 58.1043H322.753V58.7155H321.529V58.1043ZM323.978 58.1043H325.202V58.7155H323.978V58.1043ZM326.426 58.1043H327.65V58.7155H326.426V58.1043ZM328.875 58.1043H330.099V58.7155H328.875V58.1043ZM331.323 58.1043H332.548V58.7155H331.323V58.1043ZM333.772 58.1043H334.996V58.7155L333.772 58.7155V58.1043ZM336.221 58.1043H336.832V58.7155H336.221V58.1043ZM336.832 58.1043C337.04 58.1043 337.247 58.111 337.452 58.1242L337.413 58.7342C337.221 58.7218 337.027 58.7155 336.832 58.7155V58.1043ZM338.681 58.2846C339.09 58.3656 339.49 58.4729 339.878 58.6048L339.682 59.1835C339.319 59.0602 338.945 58.9599 338.562 58.8842L338.681 58.2846ZM341.023 59.0795C341.395 59.2633 341.754 59.4709 342.096 59.7001L341.756 60.208C341.436 59.9935 341.1 59.7994 340.752 59.6275L341.023 59.0795ZM343.079 60.4552C343.389 60.7279 343.682 61.0206 343.955 61.3313L343.495 61.7345C343.24 61.4437 342.966 61.1698 342.675 60.9145L343.079 60.4552ZM344.71 62.3139C344.939 62.6564 345.147 63.0146 345.33 63.3867L344.782 63.6574C344.61 63.3094 344.416 62.9743 344.202 62.6539L344.71 62.3139ZM345.805 64.5316C345.937 64.9201 346.044 65.3199 346.125 65.7292L345.526 65.8479C345.45 65.4651 345.35 65.0912 345.226 64.728L345.805 64.5316ZM346.286 66.9579C346.299 67.1628 346.306 67.3695 346.306 67.5778H345.694C345.694 67.3827 345.688 67.1892 345.676 66.9973L346.286 66.9579ZM346.306 67.5778V68.201H345.694V67.5778H346.306ZM346.306 69.4475V70.6939H345.694V69.4475H346.306ZM346.306 71.9404V73.1869H345.694V71.9404H346.306ZM346.306 74.4333V75.6798H345.694V74.4333H346.306ZM346.306 76.9263V78.1727H345.694V76.9263H346.306ZM346.306 79.4192V80.6657H345.694V79.4192H346.306ZM346.306 81.9121V83.1586H345.694V81.9121H346.306ZM346.306 84.405V85.6515H345.694V84.405H346.306ZM346.306 86.898V88.1444H345.694V86.898H346.306ZM346.306 89.3909V90.6374H345.694V89.3909H346.306ZM346.306 91.8838V93.1303H345.694V91.8838H346.306ZM346.306 94.3768V95H345.694V94.3768H346.306ZM0.37094 2C0.37094 1.09986 1.10065 0.370148 2.00079 0.370148C2.90093 0.370148 3.63064 1.09986 3.63064 2C3.63064 2.90014 2.90093 3.62985 2.00079 3.62985C1.10065 3.62985 0.37094 2.90014 0.37094 2ZM2.00013 49.2419L2.30573 49.2419L2.00013 49.2419ZM11.168 58.4099V58.7155V58.4099ZM336.832 58.4099V58.1043V58.4099ZM344.37 95C344.37 94.0999 345.1 93.3701 346 93.3701C346.9 93.3701 347.63 94.0999 347.63 95C347.63 95.9001 346.9 96.6299 346 96.6299C345.1 96.6299 344.37 95.9001 344.37 95ZM2.30639 2.00001L2.30638 2.6216L1.69519 2.6216L1.69519 1.99999L2.30639 2.00001ZM2.30636 3.86481L2.30634 5.10802L1.69515 5.10802L1.69517 3.86481L2.30636 3.86481ZM2.30633 6.35123L2.30631 7.59444L1.69512 7.59443L1.69513 6.35122L2.30633 6.35123ZM2.30629 8.83765L2.30627 10.0808L1.69508 10.0808L1.6951 8.83763L2.30629 8.83765ZM2.30626 11.3241L2.30624 12.5673L1.69505 12.5673L1.69506 11.3241L2.30626 11.3241ZM2.30622 13.8105L2.3062 15.0537L1.69501 15.0537L1.69503 13.8105L2.30622 13.8105ZM2.30619 16.2969L2.30617 17.5401L1.69498 17.5401L1.69499 16.2969L2.30619 16.2969ZM2.30615 18.7833L2.30614 20.0265L1.69494 20.0265L1.69496 18.7833L2.30615 18.7833ZM2.30612 21.2697L2.3061 22.5129L1.69491 22.5129L1.69492 21.2697L2.30612 21.2697ZM2.30608 23.7561L2.30607 24.9993L1.69487 24.9993L1.69489 23.7561L2.30608 23.7561ZM2.30605 26.2425L2.30603 27.4858L1.69484 27.4857L1.69485 26.2425L2.30605 26.2425ZM2.30601 28.729L2.306 29.9722L1.6948 29.9722L1.69482 28.729L2.30601 28.729ZM2.30598 31.2154L2.30596 32.4586L1.69477 32.4586L1.69478 31.2154L2.30598 31.2154ZM2.30594 33.7018L2.30593 34.945L1.69473 34.945L1.69475 33.7018L2.30594 33.7018ZM2.30591 36.1882L2.30589 37.4314L1.6947 37.4314L1.69471 36.1882L2.30591 36.1882ZM2.30587 38.6746L2.30586 39.9178L1.69466 39.9178L1.69468 38.6746L2.30587 38.6746ZM2.30584 41.161L2.30582 42.4042L1.69463 42.4042L1.69464 41.161L2.30584 41.161ZM2.3058 43.6474L2.30579 44.8906L1.69459 44.8906L1.69461 43.6474L2.3058 43.6474ZM2.30577 46.1339L2.30575 47.3771L1.69456 47.3771L1.69458 46.1338L2.30577 46.1339ZM2.30573 48.6203L2.30573 49.2419L1.69453 49.2419L1.69454 48.6203L2.30573 48.6203ZM2.30573 49.2419C2.30572 49.4369 2.31202 49.6305 2.32441 49.8224L1.71449 49.8618C1.70125 49.6568 1.69453 49.4501 1.69453 49.2419L2.30573 49.2419ZM2.4744 50.9718C2.55011 51.3546 2.65047 51.7284 2.77376 52.0917L2.19498 52.2881C2.06312 51.8996 1.95579 51.4997 1.87482 51.0904L2.4744 50.9718ZM3.21769 53.1623C3.38962 53.5103 3.58374 53.8454 3.79822 54.1658L3.29033 54.5058C3.06109 54.1633 2.85356 53.8051 2.66972 53.433L3.21769 53.1623ZM4.50476 55.0852C4.75997 55.376 5.03392 55.65 5.32471 55.9052L4.92154 56.3646C4.61082 56.0919 4.3181 55.7991 4.04539 55.4884L4.50476 55.0852ZM6.24417 56.6118C6.56455 56.8262 6.89965 57.0204 7.24763 57.1923L6.97689 57.7403C6.60481 57.5564 6.24658 57.3489 5.90415 57.1196L6.24417 56.6118ZM8.31822 57.6362C8.68149 57.7595 9.05535 57.8599 9.4381 57.9356L9.31949 58.5352C8.91018 58.4542 8.51033 58.3469 8.12179 58.215L8.31822 57.6362ZM10.5876 58.0856C10.7794 58.098 10.973 58.1043 11.168 58.1043V58.7155C10.9598 58.7155 10.7531 58.7088 10.5481 58.6955L10.5876 58.0856ZM11.168 58.1043H11.7802V58.7155H11.168V58.1043ZM13.0045 58.1043L14.2288 58.1043V58.7155H13.0045V58.1043ZM15.4531 58.1043H16.6774V58.7155H15.4531V58.1043ZM17.9017 58.1043H19.126V58.7155H17.9017V58.1043ZM20.3503 58.1043H21.5746V58.7155H20.3503L20.3503 58.1043ZM22.7989 58.1043H24.0232V58.7155H22.7989V58.1043ZM25.2475 58.1043H26.4718V58.7155H25.2475V58.1043ZM27.6961 58.1043H28.9204V58.7155H27.6961V58.1043ZM30.1447 58.1043L31.369 58.1043V58.7155L30.1447 58.7155V58.1043ZM32.5933 58.1043H33.8176V58.7155H32.5933V58.1043ZM35.0419 58.1043H36.2662V58.7155H35.0419V58.1043ZM37.4905 58.1043L38.7148 58.1043V58.7155H37.4905V58.1043ZM39.9391 58.1043H41.1634L41.1634 58.7155H39.9391V58.1043ZM42.3877 58.1043H43.612V58.7155H42.3877V58.1043ZM44.8363 58.1043H46.0606V58.7155H44.8363V58.1043ZM47.2849 58.1043H48.5092V58.7155H47.2849V58.1043ZM49.7335 58.1043H50.9578V58.7155H49.7335V58.1043ZM52.1821 58.1043H53.4064V58.7155H52.1821V58.1043ZM54.6307 58.1043H55.855V58.7155H54.6307V58.1043ZM57.0793 58.1043H58.3036V58.7155H57.0793V58.1043ZM59.5279 58.1043H60.7522V58.7155H59.5279V58.1043ZM61.9765 58.1043H63.2008V58.7155H61.9765V58.1043ZM64.4251 58.1043H65.6494V58.7155H64.4251V58.1043ZM66.8737 58.1043H68.098V58.7155H66.8737V58.1043ZM69.3223 58.1043H70.5466V58.7155H69.3223V58.1043ZM71.7709 58.1043H72.9952V58.7155H71.7709V58.1043ZM74.2195 58.1043H75.4438V58.7155H74.2195V58.1043ZM76.6681 58.1043H77.8924V58.7155H76.6681V58.1043ZM79.1167 58.1043H80.341V58.7155H79.1167V58.1043ZM81.5653 58.1043H82.7896V58.7155H81.5653V58.1043ZM84.0139 58.1043H85.2383V58.7155L84.0139 58.7155V58.1043ZM86.4626 58.1043H87.6869V58.7155H86.4626V58.1043ZM88.9112 58.1043L90.1355 58.1043V58.7155L88.9112 58.7155V58.1043ZM91.3598 58.1043H92.5841V58.7155H91.3598V58.1043ZM93.8084 58.1043H95.0327V58.7155H93.8084V58.1043ZM96.257 58.1043H97.4813V58.7155H96.257V58.1043ZM98.7056 58.1043H99.9299V58.7155H98.7056V58.1043ZM101.154 58.1043H102.379V58.7155H101.154V58.1043ZM103.603 58.1043H104.827V58.7155H103.603V58.1043ZM106.051 58.1043H107.276V58.7155H106.051V58.1043ZM108.5 58.1043H109.724V58.7155L108.5 58.7155V58.1043ZM110.949 58.1043H112.173L112.173 58.7155H110.949V58.1043ZM113.397 58.1043H114.622V58.7155H113.397V58.1043ZM115.846 58.1043H117.07V58.7155H115.846V58.1043ZM118.294 58.1043H119.519V58.7155H118.294V58.1043ZM120.743 58.1043H121.967V58.7155H120.743V58.1043ZM123.192 58.1043H124.416V58.7155H123.192V58.1043ZM125.64 58.1043H126.865V58.7155H125.64V58.1043ZM128.089 58.1043H129.313V58.7155H128.089V58.1043ZM130.538 58.1043H131.762V58.7155H130.538V58.1043ZM132.986 58.1043H134.21V58.7155H132.986V58.1043ZM135.435 58.1043H136.659V58.7155H135.435V58.1043ZM137.883 58.1043L139.108 58.1043V58.7155H137.883V58.1043ZM140.332 58.1043H141.556V58.7155H140.332V58.1043ZM142.781 58.1043H144.005V58.7155H142.781V58.1043ZM145.229 58.1043H146.453V58.7155H145.229V58.1043ZM147.678 58.1043H148.902V58.7155H147.678V58.1043ZM150.126 58.1043H151.351V58.7155H150.126V58.1043ZM152.575 58.1043H153.799V58.7155H152.575V58.1043ZM155.024 58.1043H156.248V58.7155H155.024V58.1043ZM157.472 58.1043H158.696V58.7155H157.472V58.1043ZM159.921 58.1043H161.145V58.7155H159.921V58.1043ZM162.369 58.1043L163.594 58.1043V58.7155H162.369V58.1043ZM164.818 58.1043H166.042V58.7155H164.818V58.1043ZM167.267 58.1043H168.491V58.7155H167.267V58.1043ZM169.715 58.1043H170.94V58.7155H169.715V58.1043ZM172.164 58.1043H173.388V58.7155H172.164V58.1043ZM174.612 58.1043H175.837V58.7155H174.612V58.1043ZM177.061 58.1043H178.285V58.7155H177.061V58.1043ZM179.51 58.1043H180.734V58.7155H179.51V58.1043ZM181.958 58.1043H183.183V58.7155H181.958V58.1043ZM184.407 58.1043H185.631V58.7155L184.407 58.7155V58.1043ZM186.855 58.1043H188.08V58.7155H186.855V58.1043ZM189.304 58.1043H190.528V58.7155H189.304V58.1043ZM191.753 58.1043H192.977V58.7155H191.753V58.1043ZM194.201 58.1043H195.426V58.7155H194.201V58.1043ZM196.65 58.1043H197.874V58.7155H196.65V58.1043ZM199.099 58.1043H200.323V58.7155H199.099V58.1043ZM201.547 58.1043H202.771V58.7155H201.547V58.1043ZM203.996 58.1043L205.22 58.1043V58.7155L203.996 58.7155V58.1043ZM206.444 58.1043H207.669V58.7155H206.444V58.1043ZM208.893 58.1043H210.117V58.7155L208.893 58.7155V58.1043ZM211.342 58.1043H212.566V58.7155H211.342V58.1043ZM213.79 58.1043H215.014V58.7155H213.79V58.1043ZM216.239 58.1043H217.463V58.7155H216.239V58.1043ZM218.687 58.1043H219.912V58.7155H218.687V58.1043ZM221.136 58.1043H222.36V58.7155H221.136V58.1043ZM223.585 58.1043H224.809V58.7155H223.585V58.1043ZM226.033 58.1043H227.258V58.7155H226.033V58.1043ZM228.482 58.1043H229.706V58.7155H228.482V58.1043ZM230.93 58.1043H232.155V58.7155H230.93V58.1043ZM233.379 58.1043H234.603V58.7155H233.379V58.1043ZM235.828 58.1043H237.052V58.7155H235.828V58.1043ZM238.276 58.1043L239.501 58.1043V58.7155H238.276V58.1043ZM240.725 58.1043H241.949V58.7155H240.725V58.1043ZM243.173 58.1043H244.398V58.7155H243.173V58.1043ZM245.622 58.1043H246.846V58.7155H245.622V58.1043ZM248.071 58.1043H249.295V58.7155H248.071V58.1043ZM250.519 58.1043H251.744V58.7155H250.519V58.1043ZM252.968 58.1043H254.192V58.7155H252.968V58.1043ZM255.417 58.1043H256.641V58.7155H255.417V58.1043ZM257.865 58.1043H259.089V58.7155H257.865V58.1043ZM260.314 58.1043H261.538V58.7155H260.314V58.1043ZM262.762 58.1043L263.987 58.1043V58.7155L262.762 58.7155V58.1043ZM265.211 58.1043H266.435V58.7155H265.211V58.1043ZM267.66 58.1043H268.884V58.7155H267.66V58.1043ZM270.108 58.1043H271.332V58.7155H270.108V58.1043ZM272.557 58.1043H273.781V58.7155H272.557V58.1043ZM275.005 58.1043H276.23V58.7155H275.005V58.1043ZM277.454 58.1043H278.678V58.7155H277.454V58.1043ZM279.903 58.1043H281.127V58.7155H279.903V58.1043ZM282.351 58.1043H283.576V58.7155H282.351V58.1043ZM284.8 58.1043H286.024V58.7155H284.8V58.1043ZM287.248 58.1043H288.473V58.7155H287.248V58.1043ZM289.697 58.1043H290.921V58.7155H289.697V58.1043ZM292.146 58.1043H293.37V58.7155H292.146V58.1043ZM294.594 58.1043H295.819V58.7155H294.594V58.1043ZM297.043 58.1043H298.267V58.7155H297.043V58.1043ZM299.491 58.1043H300.716V58.7155H299.491V58.1043ZM301.94 58.1043H303.164V58.7155H301.94V58.1043ZM304.389 58.1043H305.613V58.7155H304.389V58.1043ZM306.837 58.1043H308.062V58.7155H306.837V58.1043ZM309.286 58.1043H310.51V58.7155L309.286 58.7155V58.1043ZM311.734 58.1043H312.959V58.7155H311.734V58.1043ZM314.183 58.1043H315.407V58.7155H314.183V58.1043ZM316.632 58.1043H317.856V58.7155H316.632V58.1043ZM319.08 58.1043H320.305V58.7155H319.08V58.1043ZM321.529 58.1043H322.753V58.7155H321.529V58.1043ZM323.978 58.1043H325.202V58.7155H323.978V58.1043ZM326.426 58.1043H327.65V58.7155H326.426V58.1043ZM328.875 58.1043H330.099V58.7155H328.875V58.1043ZM331.323 58.1043H332.548V58.7155H331.323V58.1043ZM333.772 58.1043H334.996V58.7155L333.772 58.7155V58.1043ZM336.221 58.1043H336.832V58.7155H336.221V58.1043ZM336.832 58.1043C337.04 58.1043 337.247 58.111 337.452 58.1242L337.413 58.7342C337.221 58.7218 337.027 58.7155 336.832 58.7155V58.1043ZM338.681 58.2846C339.09 58.3656 339.49 58.4729 339.878 58.6048L339.682 59.1835C339.319 59.0602 338.945 58.9599 338.562 58.8842L338.681 58.2846ZM341.023 59.0795C341.395 59.2633 341.754 59.4709 342.096 59.7001L341.756 60.208C341.436 59.9935 341.1 59.7994 340.752 59.6275L341.023 59.0795ZM343.079 60.4552C343.389 60.7279 343.682 61.0206 343.955 61.3313L343.495 61.7345C343.24 61.4437 342.966 61.1698 342.675 60.9145L343.079 60.4552ZM344.71 62.3139C344.939 62.6564 345.147 63.0146 345.33 63.3867L344.782 63.6574C344.61 63.3094 344.416 62.9743 344.202 62.6539L344.71 62.3139ZM345.805 64.5316C345.937 64.9201 346.044 65.3199 346.125 65.7292L345.526 65.8479C345.45 65.4651 345.35 65.0912 345.226 64.728L345.805 64.5316ZM346.286 66.9579C346.299 67.1628 346.306 67.3695 346.306 67.5778H345.694C345.694 67.3827 345.688 67.1892 345.676 66.9973L346.286 66.9579ZM346.306 67.5778V68.201H345.694V67.5778H346.306ZM346.306 69.4475V70.6939H345.694V69.4475H346.306ZM346.306 71.9404V73.1869H345.694V71.9404H346.306ZM346.306 74.4333V75.6798H345.694V74.4333H346.306ZM346.306 76.9263V78.1727H345.694V76.9263H346.306ZM346.306 79.4192V80.6657H345.694V79.4192H346.306ZM346.306 81.9121V83.1586H345.694V81.9121H346.306ZM346.306 84.405V85.6515H345.694V84.405H346.306ZM346.306 86.898V88.1444H345.694V86.898H346.306ZM346.306 89.3909V90.6374H345.694V89.3909H346.306ZM346.306 91.8838V93.1303H345.694V91.8838H346.306ZM346.306 94.3768V95H345.694V94.3768H346.306Z" fill="white"/>
</svg>
