<svg width="780" height="97" viewBox="0 0 780 97" fill="none" xmlns="http://www.w3.org/2000/svg">
<path d="M43.371 95.25C43.371 96.1501 44.1007 96.8799 45.0008 96.8799C45.901 96.8799 46.6307 96.1501 46.6307 95.25C46.6307 94.3499 45.901 93.6201 45.0008 93.6201C44.1007 93.6201 43.371 94.3499 43.371 95.25ZM45.0001 48.0081L45.3057 48.0081L45.0001 48.0081ZM54.168 38.8401V39.1456V38.8401ZM380.332 38.8402V38.5346V38.8402ZM387.87 2.25C387.87 3.15014 388.6 3.87985 389.5 3.87985C390.4 3.87985 391.13 3.15014 391.13 2.25C391.13 1.34986 390.4 0.620149 389.5 0.620149C388.6 0.620149 387.87 1.34986 387.87 2.25ZM45.3064 95.25L45.3064 94.6284L44.6952 94.6284L44.6952 95.25L45.3064 95.25ZM45.3064 93.3852L45.3064 92.142L44.6952 92.142L44.6952 93.3852L45.3064 93.3852ZM45.3063 90.8988L45.3063 89.6556L44.6951 89.6556L44.6952 90.8988L45.3063 90.8988ZM45.3063 88.4124L45.3063 87.1691L44.6951 87.1692L44.6951 88.4124L45.3063 88.4124ZM45.3063 85.9259L45.3063 84.6827L44.6951 84.6827L44.6951 85.9259L45.3063 85.9259ZM45.3062 83.4395L45.3062 82.1963L44.695 82.1963L44.695 83.4395L45.3062 83.4395ZM45.3062 80.9531L45.3062 79.7099L44.695 79.7099L44.695 80.9531L45.3062 80.9531ZM45.3062 78.4667L45.3061 77.2235L44.695 77.2235L44.695 78.4667L45.3062 78.4667ZM45.3061 75.9803L45.3061 74.7371L44.6949 74.7371L44.6949 75.9803L45.3061 75.9803ZM45.3061 73.4939L45.3061 72.2506L44.6949 72.2507L44.6949 73.4939L45.3061 73.4939ZM45.3061 71.0074L45.306 69.7642L44.6948 69.7642L44.6949 71.0074L45.3061 71.0074ZM45.306 68.521L45.306 67.2778L44.6948 67.2778L44.6948 68.521L45.306 68.521ZM45.306 66.0346L45.306 64.7914L44.6948 64.7914L44.6948 66.0346L45.306 66.0346ZM45.306 63.5482L45.3059 62.305L44.6947 62.305L44.6948 63.5482L45.306 63.5482ZM45.3059 61.0618L45.3059 59.8186L44.6947 59.8186L44.6947 61.0618L45.3059 61.0618ZM45.3059 58.5754L45.3059 57.3321L44.6947 57.3322L44.6947 58.5754L45.3059 58.5754ZM45.3058 56.0889L45.3058 54.8457L44.6946 54.8457L44.6947 56.0889L45.3058 56.0889ZM45.3058 53.6025L45.3058 52.3593L44.6946 52.3593L44.6946 53.6025L45.3058 53.6025ZM45.3058 51.1161L45.3058 49.8729L44.6946 49.8729L44.6946 51.1161L45.3058 51.1161ZM45.3057 48.6297L45.3057 48.0081L44.6945 48.0081L44.6945 48.6297L45.3057 48.6297ZM45.3057 48.0081C45.3057 47.813 45.312 47.6195 45.3244 47.4276L44.7145 47.3882C44.7013 47.5932 44.6945 47.7999 44.6945 48.0081L45.3057 48.0081ZM45.4744 46.2782C45.5501 45.8954 45.6505 45.5215 45.7738 45.1583L45.195 44.9618C45.0631 45.3504 44.9558 45.7502 44.8748 46.1595L45.4744 46.2782ZM46.2177 44.0877C46.3896 43.7397 46.5837 43.4046 46.7982 43.0842L46.2903 42.7442C46.0611 43.0866 45.8536 43.4449 45.6697 43.8169L46.2177 44.0877ZM47.5048 42.1647C47.76 41.8739 48.0339 41.6 48.3247 41.3448L47.9215 40.8854C47.6108 41.1581 47.3181 41.4508 47.0454 41.7616L47.5048 42.1647ZM49.2442 40.6382C49.5645 40.4237 49.8997 40.2296 50.2476 40.0577L49.9769 39.5097C49.6048 39.6936 49.2466 39.9011 48.9042 40.1303L49.2442 40.6382ZM51.3182 39.6137C51.6815 39.4904 52.0554 39.3901 52.4381 39.3143L52.3195 38.7148C51.9102 38.7957 51.5103 38.9031 51.1218 39.035L51.3182 39.6137ZM53.5876 39.1643C53.7794 39.1519 53.973 39.1456 54.168 39.1456V38.5345C53.9598 38.5345 53.7531 38.5412 53.5482 38.5544L53.5876 39.1643ZM54.168 39.1456H54.7811V38.5345H54.168V39.1456ZM56.0073 39.1457H57.2335V38.5345H56.0073V39.1457ZM58.4597 39.1457H59.6859V38.5345H58.4597V39.1457ZM60.912 39.1457H62.1382V38.5345H60.912L60.912 39.1457ZM63.3644 39.1457H64.5906V38.5345H63.3644V39.1457ZM65.8168 39.1457H67.0429V38.5345H65.8168V39.1457ZM68.2691 39.1457H69.4953V38.5345H68.2691V39.1457ZM70.7215 39.1457H71.9477V38.5345H70.7215V39.1457ZM73.1738 39.1457H74.4L74.4 38.5345H73.1738V39.1457ZM75.6262 39.1457H76.8524V38.5345H75.6262V39.1457ZM78.0786 39.1457L79.3048 39.1457V38.5345H78.0786V39.1457ZM80.5309 39.1457H81.7571V38.5345H80.5309V39.1457ZM82.9833 39.1457H84.2095V38.5345H82.9833V39.1457ZM85.4357 39.1457H86.6618L86.6618 38.5345H85.4357V39.1457ZM87.888 39.1457H89.1142V38.5345H87.888V39.1457ZM90.3404 39.1457L91.5666 39.1457V38.5345H90.3404V39.1457ZM92.7927 39.1457H94.0189V38.5345H92.7927V39.1457ZM95.2451 39.1457H96.4713V38.5345H95.2451V39.1457ZM97.6975 39.1457H98.9236V38.5345H97.6975V39.1457ZM100.15 39.1457H101.376V38.5345H100.15L100.15 39.1457ZM102.602 39.1457L103.828 39.1457V38.5345H102.602V39.1457ZM105.055 39.1457H106.281V38.5345H105.055V39.1457ZM107.507 39.1457H108.733V38.5345H107.507V39.1457ZM109.959 39.1457H111.185V38.5345H109.959V39.1457ZM112.412 39.1457H113.638V38.5345L112.412 38.5345V39.1457ZM114.864 39.1457L116.09 39.1457V38.5345H114.864V39.1457ZM117.316 39.1457H118.543V38.5345H117.316V39.1457ZM119.769 39.1457H120.995V38.5345H119.769V39.1457ZM122.221 39.1457H123.447V38.5345H122.221V39.1457ZM124.673 39.1457H125.9V38.5345L124.673 38.5345V39.1457ZM127.126 39.1457L128.352 39.1457V38.5345H127.126V39.1457ZM129.578 39.1457H130.804V38.5345H129.578V39.1457ZM132.031 39.1457H133.257V38.5345H132.031L132.031 39.1457ZM134.483 39.1457H135.709V38.5345H134.483V39.1457ZM136.935 39.1457H138.161V38.5345L136.935 38.5345V39.1457ZM139.388 39.1457L140.614 39.1457V38.5345H139.388V39.1457ZM141.84 39.1457H143.066V38.5345H141.84V39.1457ZM144.292 39.1457H145.519V38.5345H144.292V39.1457ZM146.745 39.1457H147.971V38.5345H146.745V39.1457ZM149.197 39.1457H150.423V38.5345L149.197 38.5345V39.1457ZM151.649 39.1457L152.876 39.1457V38.5345H151.649V39.1457ZM154.102 39.1457H155.328V38.5345H154.102V39.1457ZM156.554 39.1457H157.78V38.5345H156.554V39.1457ZM159.007 39.1457H160.233V38.5345H159.007V39.1457ZM161.459 39.1457H162.685V38.5345L161.459 38.5345V39.1457ZM163.911 39.1457H165.137V38.5345H163.911V39.1457ZM166.364 39.1457H167.59V38.5345H166.364V39.1457ZM168.816 39.1457H170.042V38.5345H168.816V39.1457ZM171.268 39.1457H172.494V38.5345H171.268V39.1457ZM173.721 39.1457H174.947V38.5345L173.721 38.5345V39.1457ZM176.173 39.1457H177.399V38.5345H176.173V39.1457ZM178.625 39.1457H179.852V38.5345H178.625V39.1457ZM181.078 39.1457H182.304V38.5345H181.078V39.1457ZM183.53 39.1457H184.756V38.5345H183.53V39.1457ZM185.982 39.1457H187.209V38.5345L185.982 38.5345V39.1457ZM188.435 39.1457H189.661V38.5345H188.435V39.1457ZM190.887 39.1457H192.113V38.5345H190.887V39.1457ZM193.34 39.1457H194.566V38.5345H193.34V39.1457ZM195.792 39.1457H197.018V38.5345H195.792V39.1457ZM198.244 39.1457H199.47V38.5345H198.244V39.1457ZM200.697 39.1457H201.923V38.5345H200.697V39.1457ZM203.149 39.1457H204.375V38.5345H203.149V39.1457ZM205.601 39.1457H206.828V38.5345H205.601V39.1457ZM208.054 39.1457H209.28V38.5345H208.054L208.054 39.1457ZM210.506 39.1457H211.732V38.5345H210.506V39.1457ZM212.958 39.1457H214.185V38.5345H212.958V39.1457ZM215.411 39.1457H216.637V38.5345H215.411V39.1457ZM217.863 39.1457H219.089V38.5345H217.863V39.1457ZM220.316 39.1457H221.542V38.5345H220.316V39.1457ZM222.768 39.1457H223.994V38.5345H222.768V39.1457ZM225.22 39.1457H226.446V38.5345H225.22V39.1457ZM227.673 39.1457H228.899V38.5345H227.673V39.1457ZM230.125 39.1457H231.351V38.5345H230.125V39.1457ZM232.577 39.1457H233.804V38.5345H232.577V39.1457ZM235.03 39.1457H236.256V38.5345H235.03V39.1457ZM237.482 39.1457H238.708V38.5345H237.482V39.1457ZM239.934 39.1457H241.161V38.5345H239.934V39.1457ZM242.387 39.1457H243.613V38.5345H242.387V39.1457ZM244.839 39.1457H246.065V38.5345H244.839V39.1457ZM247.292 39.1457L248.518 39.1457V38.5345H247.292V39.1457ZM249.744 39.1457H250.97V38.5345H249.744V39.1457ZM252.196 39.1457H253.422V38.5345H252.196V39.1457ZM254.649 39.1457H255.875V38.5345H254.649V39.1457ZM257.101 39.1457H258.327V38.5345H257.101V39.1457ZM259.553 39.1457L260.78 39.1457V38.5345H259.553V39.1457ZM262.006 39.1457H263.232V38.5345H262.006V39.1457ZM264.458 39.1457H265.684V38.5345H264.458V39.1457ZM266.91 39.1457H268.137V38.5345H266.91V39.1457ZM269.363 39.1457H270.589V38.5345H269.363V39.1457ZM271.815 39.1457L273.041 39.1457V38.5345H271.815V39.1457ZM274.268 39.1457H275.494V38.5345H274.268V39.1457ZM276.72 39.1457H277.946V38.5345H276.72V39.1457ZM279.172 39.1457H280.398V38.5345H279.172V39.1457ZM281.625 39.1457H282.851V38.5345L281.625 38.5345V39.1457ZM284.077 39.1457L285.303 39.1457V38.5345H284.077V39.1457ZM286.529 39.1457H287.756V38.5345H286.529V39.1457ZM288.982 39.1457H290.208V38.5345H288.982V39.1457ZM291.434 39.1457H292.66V38.5345H291.434V39.1457ZM293.886 39.1457H295.113V38.5345L293.886 38.5345V39.1457ZM296.339 39.1457L297.565 39.1457V38.5345H296.339V39.1457ZM298.791 39.1457H300.017V38.5345H298.791V39.1457ZM301.243 39.1457H302.47V38.5345H301.243V39.1457ZM303.696 39.1457H304.922V38.5345H303.696V39.1457ZM306.148 39.1457H307.374V38.5345L306.148 38.5345V39.1457ZM308.601 39.1457L309.827 39.1457V38.5345H308.601V39.1457ZM311.053 39.1457H312.279V38.5345H311.053V39.1457ZM313.505 39.1457H314.731V38.5345H313.505V39.1457ZM315.958 39.1457H317.184V38.5345H315.958V39.1457ZM318.41 39.1457H319.636V38.5345L318.41 38.5345V39.1457ZM320.862 39.1457L322.088 39.1457V38.5345H320.862V39.1457ZM323.315 39.1457H324.541V38.5345H323.315V39.1457ZM325.767 39.1457H326.993V38.5345H325.767V39.1457ZM328.219 39.1457H329.445V38.5345H328.219V39.1457ZM330.672 39.1457H331.898V38.5345L330.672 38.5345V39.1457ZM333.124 39.1457H334.35V38.5345H333.124V39.1457ZM335.576 39.1457H336.802V38.5345H335.576V39.1457ZM338.029 39.1457H339.255V38.5345H338.029V39.1457ZM340.481 39.1457H341.707V38.5345H340.481V39.1457ZM342.933 39.1457H344.159V38.5345L342.933 38.5345V39.1457ZM345.386 39.1457H346.612V38.5345H345.386V39.1457ZM347.838 39.1457H349.064V38.5345H347.838V39.1457ZM350.29 39.1457H351.516V38.5345H350.29V39.1457ZM352.743 39.1457H353.969V38.5345H352.743V39.1457ZM355.195 39.1457H356.421V38.5346L355.195 38.5345V39.1457ZM357.647 39.1457H358.873V38.5346H357.647V39.1457ZM360.1 39.1457H361.326V38.5346H360.1V39.1457ZM362.552 39.1457H363.778V38.5346H362.552V39.1457ZM365.004 39.1457H366.23V38.5346H365.004V39.1457ZM367.457 39.1457H368.683V38.5346H367.457V39.1457ZM369.909 39.1458H371.135V38.5346H369.909V39.1458ZM372.361 39.1458H373.587V38.5346H372.361V39.1458ZM374.814 39.1458H376.04V38.5346H374.814V39.1458ZM377.266 39.1458H378.492V38.5346H377.266V39.1458ZM379.718 39.1458H380.332V38.5346H379.718V39.1458ZM380.332 39.1458C380.54 39.1458 380.747 39.139 380.952 39.1258L380.913 38.5159C380.721 38.5283 380.527 38.5346 380.332 38.5346V39.1458ZM382.181 38.9654C382.59 38.8845 382.99 38.7771 383.378 38.6453L383.182 38.0665C382.819 38.1898 382.445 38.2901 382.062 38.3659L382.181 38.9654ZM384.523 38.1705C384.895 37.9867 385.254 37.7792 385.596 37.5499L385.256 37.042C384.936 37.2565 384.6 37.4506 384.252 37.6226L384.523 38.1705ZM386.579 36.7948C386.889 36.5221 387.182 36.2294 387.455 35.9187L386.995 35.5155C386.74 35.8063 386.466 36.0803 386.175 36.3355L386.579 36.7948ZM388.21 34.9361C388.439 34.5937 388.647 34.2354 388.83 33.8634L388.282 33.5926C388.11 33.9406 387.916 34.2757 387.702 34.5961L388.21 34.9361ZM389.305 32.7185C389.437 32.3299 389.544 31.9301 389.625 31.5208L389.026 31.4022C388.95 31.7849 388.85 32.1588 388.726 32.522L389.305 32.7185ZM389.786 30.2921C389.799 30.0872 389.806 29.8805 389.806 29.6722H389.194C389.194 29.8673 389.188 30.0609 389.176 30.2527L389.786 30.2921ZM389.806 29.6722V29.049H389.194V29.6722H389.806ZM389.806 27.8025V26.5561H389.194V27.8025H389.806ZM389.806 25.3096V24.0632H389.194V25.3096H389.806ZM389.806 22.8167V21.5702H389.194V22.8167H389.806ZM389.806 20.3238V19.0773H389.194V20.3238H389.806ZM389.806 17.8308V16.5844H389.194V17.8308H389.806ZM389.806 15.3379V14.0914H389.194V15.3379H389.806ZM389.806 12.845V11.5985H389.194V12.845H389.806ZM389.806 10.352V9.10556H389.194V10.352H389.806ZM389.806 7.8591V6.61263H389.194V7.8591H389.806ZM389.806 5.36616V4.1197H389.194V5.36616H389.806ZM389.806 2.87323V2.25H389.194V2.87323H389.806ZM43.371 95.25C43.371 96.1501 44.1007 96.8799 45.0008 96.8799C45.901 96.8799 46.6307 96.1501 46.6307 95.25C46.6307 94.3499 45.901 93.6201 45.0008 93.6201C44.1007 93.6201 43.371 94.3499 43.371 95.25ZM45.0001 48.0081L45.3057 48.0081L45.0001 48.0081ZM54.168 38.8401V39.1456V38.8401ZM380.332 38.8402V38.5346V38.8402ZM387.87 2.25C387.87 3.15014 388.6 3.87985 389.5 3.87985C390.4 3.87985 391.13 3.15014 391.13 2.25C391.13 1.34986 390.4 0.620149 389.5 0.620149C388.6 0.620149 387.87 1.34986 387.87 2.25ZM45.3064 95.25L45.3064 94.6284L44.6952 94.6284L44.6952 95.25L45.3064 95.25ZM45.3064 93.3852L45.3064 92.142L44.6952 92.142L44.6952 93.3852L45.3064 93.3852ZM45.3063 90.8988L45.3063 89.6556L44.6951 89.6556L44.6952 90.8988L45.3063 90.8988ZM45.3063 88.4124L45.3063 87.1691L44.6951 87.1692L44.6951 88.4124L45.3063 88.4124ZM45.3063 85.9259L45.3063 84.6827L44.6951 84.6827L44.6951 85.9259L45.3063 85.9259ZM45.3062 83.4395L45.3062 82.1963L44.695 82.1963L44.695 83.4395L45.3062 83.4395ZM45.3062 80.9531L45.3062 79.7099L44.695 79.7099L44.695 80.9531L45.3062 80.9531ZM45.3062 78.4667L45.3061 77.2235L44.695 77.2235L44.695 78.4667L45.3062 78.4667ZM45.3061 75.9803L45.3061 74.7371L44.6949 74.7371L44.6949 75.9803L45.3061 75.9803ZM45.3061 73.4939L45.3061 72.2506L44.6949 72.2507L44.6949 73.4939L45.3061 73.4939ZM45.3061 71.0074L45.306 69.7642L44.6948 69.7642L44.6949 71.0074L45.3061 71.0074ZM45.306 68.521L45.306 67.2778L44.6948 67.2778L44.6948 68.521L45.306 68.521ZM45.306 66.0346L45.306 64.7914L44.6948 64.7914L44.6948 66.0346L45.306 66.0346ZM45.306 63.5482L45.3059 62.305L44.6947 62.305L44.6948 63.5482L45.306 63.5482ZM45.3059 61.0618L45.3059 59.8186L44.6947 59.8186L44.6947 61.0618L45.3059 61.0618ZM45.3059 58.5754L45.3059 57.3321L44.6947 57.3322L44.6947 58.5754L45.3059 58.5754ZM45.3058 56.0889L45.3058 54.8457L44.6946 54.8457L44.6947 56.0889L45.3058 56.0889ZM45.3058 53.6025L45.3058 52.3593L44.6946 52.3593L44.6946 53.6025L45.3058 53.6025ZM45.3058 51.1161L45.3058 49.8729L44.6946 49.8729L44.6946 51.1161L45.3058 51.1161ZM45.3057 48.6297L45.3057 48.0081L44.6945 48.0081L44.6945 48.6297L45.3057 48.6297ZM45.3057 48.0081C45.3057 47.813 45.312 47.6195 45.3244 47.4276L44.7145 47.3882C44.7013 47.5932 44.6945 47.7999 44.6945 48.0081L45.3057 48.0081ZM45.4744 46.2782C45.5501 45.8954 45.6505 45.5215 45.7738 45.1583L45.195 44.9618C45.0631 45.3504 44.9558 45.7502 44.8748 46.1595L45.4744 46.2782ZM46.2177 44.0877C46.3896 43.7397 46.5837 43.4046 46.7982 43.0842L46.2903 42.7442C46.0611 43.0866 45.8536 43.4449 45.6697 43.8169L46.2177 44.0877ZM47.5048 42.1647C47.76 41.8739 48.0339 41.6 48.3247 41.3448L47.9215 40.8854C47.6108 41.1581 47.3181 41.4508 47.0454 41.7616L47.5048 42.1647ZM49.2442 40.6382C49.5645 40.4237 49.8997 40.2296 50.2476 40.0577L49.9769 39.5097C49.6048 39.6936 49.2466 39.9011 48.9042 40.1303L49.2442 40.6382ZM51.3182 39.6137C51.6815 39.4904 52.0554 39.3901 52.4381 39.3143L52.3195 38.7148C51.9102 38.7957 51.5103 38.9031 51.1218 39.035L51.3182 39.6137ZM53.5876 39.1643C53.7794 39.1519 53.973 39.1456 54.168 39.1456V38.5345C53.9598 38.5345 53.7531 38.5412 53.5482 38.5544L53.5876 39.1643ZM54.168 39.1456H54.7811V38.5345H54.168V39.1456ZM56.0073 39.1457H57.2335V38.5345H56.0073V39.1457ZM58.4597 39.1457H59.6859V38.5345H58.4597V39.1457ZM60.912 39.1457H62.1382V38.5345H60.912L60.912 39.1457ZM63.3644 39.1457H64.5906V38.5345H63.3644V39.1457ZM65.8168 39.1457H67.0429V38.5345H65.8168V39.1457ZM68.2691 39.1457H69.4953V38.5345H68.2691V39.1457ZM70.7215 39.1457H71.9477V38.5345H70.7215V39.1457ZM73.1738 39.1457H74.4L74.4 38.5345H73.1738V39.1457ZM75.6262 39.1457H76.8524V38.5345H75.6262V39.1457ZM78.0786 39.1457L79.3048 39.1457V38.5345H78.0786V39.1457ZM80.5309 39.1457H81.7571V38.5345H80.5309V39.1457ZM82.9833 39.1457H84.2095V38.5345H82.9833V39.1457ZM85.4357 39.1457H86.6618L86.6618 38.5345H85.4357V39.1457ZM87.888 39.1457H89.1142V38.5345H87.888V39.1457ZM90.3404 39.1457L91.5666 39.1457V38.5345H90.3404V39.1457ZM92.7927 39.1457H94.0189V38.5345H92.7927V39.1457ZM95.2451 39.1457H96.4713V38.5345H95.2451V39.1457ZM97.6975 39.1457H98.9236V38.5345H97.6975V39.1457ZM100.15 39.1457H101.376V38.5345H100.15L100.15 39.1457ZM102.602 39.1457L103.828 39.1457V38.5345H102.602V39.1457ZM105.055 39.1457H106.281V38.5345H105.055V39.1457ZM107.507 39.1457H108.733V38.5345H107.507V39.1457ZM109.959 39.1457H111.185V38.5345H109.959V39.1457ZM112.412 39.1457H113.638V38.5345L112.412 38.5345V39.1457ZM114.864 39.1457L116.09 39.1457V38.5345H114.864V39.1457ZM117.316 39.1457H118.543V38.5345H117.316V39.1457ZM119.769 39.1457H120.995V38.5345H119.769V39.1457ZM122.221 39.1457H123.447V38.5345H122.221V39.1457ZM124.673 39.1457H125.9V38.5345L124.673 38.5345V39.1457ZM127.126 39.1457L128.352 39.1457V38.5345H127.126V39.1457ZM129.578 39.1457H130.804V38.5345H129.578V39.1457ZM132.031 39.1457H133.257V38.5345H132.031L132.031 39.1457ZM134.483 39.1457H135.709V38.5345H134.483V39.1457ZM136.935 39.1457H138.161V38.5345L136.935 38.5345V39.1457ZM139.388 39.1457L140.614 39.1457V38.5345H139.388V39.1457ZM141.84 39.1457H143.066V38.5345H141.84V39.1457ZM144.292 39.1457H145.519V38.5345H144.292V39.1457ZM146.745 39.1457H147.971V38.5345H146.745V39.1457ZM149.197 39.1457H150.423V38.5345L149.197 38.5345V39.1457ZM151.649 39.1457L152.876 39.1457V38.5345H151.649V39.1457ZM154.102 39.1457H155.328V38.5345H154.102V39.1457ZM156.554 39.1457H157.78V38.5345H156.554V39.1457ZM159.007 39.1457H160.233V38.5345H159.007V39.1457ZM161.459 39.1457H162.685V38.5345L161.459 38.5345V39.1457ZM163.911 39.1457H165.137V38.5345H163.911V39.1457ZM166.364 39.1457H167.59V38.5345H166.364V39.1457ZM168.816 39.1457H170.042V38.5345H168.816V39.1457ZM171.268 39.1457H172.494V38.5345H171.268V39.1457ZM173.721 39.1457H174.947V38.5345L173.721 38.5345V39.1457ZM176.173 39.1457H177.399V38.5345H176.173V39.1457ZM178.625 39.1457H179.852V38.5345H178.625V39.1457ZM181.078 39.1457H182.304V38.5345H181.078V39.1457ZM183.53 39.1457H184.756V38.5345H183.53V39.1457ZM185.982 39.1457H187.209V38.5345L185.982 38.5345V39.1457ZM188.435 39.1457H189.661V38.5345H188.435V39.1457ZM190.887 39.1457H192.113V38.5345H190.887V39.1457ZM193.34 39.1457H194.566V38.5345H193.34V39.1457ZM195.792 39.1457H197.018V38.5345H195.792V39.1457ZM198.244 39.1457H199.47V38.5345H198.244V39.1457ZM200.697 39.1457H201.923V38.5345H200.697V39.1457ZM203.149 39.1457H204.375V38.5345H203.149V39.1457ZM205.601 39.1457H206.828V38.5345H205.601V39.1457ZM208.054 39.1457H209.28V38.5345H208.054L208.054 39.1457ZM210.506 39.1457H211.732V38.5345H210.506V39.1457ZM212.958 39.1457H214.185V38.5345H212.958V39.1457ZM215.411 39.1457H216.637V38.5345H215.411V39.1457ZM217.863 39.1457H219.089V38.5345H217.863V39.1457ZM220.316 39.1457H221.542V38.5345H220.316V39.1457ZM222.768 39.1457H223.994V38.5345H222.768V39.1457ZM225.22 39.1457H226.446V38.5345H225.22V39.1457ZM227.673 39.1457H228.899V38.5345H227.673V39.1457ZM230.125 39.1457H231.351V38.5345H230.125V39.1457ZM232.577 39.1457H233.804V38.5345H232.577V39.1457ZM235.03 39.1457H236.256V38.5345H235.03V39.1457ZM237.482 39.1457H238.708V38.5345H237.482V39.1457ZM239.934 39.1457H241.161V38.5345H239.934V39.1457ZM242.387 39.1457H243.613V38.5345H242.387V39.1457ZM244.839 39.1457H246.065V38.5345H244.839V39.1457ZM247.292 39.1457L248.518 39.1457V38.5345H247.292V39.1457ZM249.744 39.1457H250.97V38.5345H249.744V39.1457ZM252.196 39.1457H253.422V38.5345H252.196V39.1457ZM254.649 39.1457H255.875V38.5345H254.649V39.1457ZM257.101 39.1457H258.327V38.5345H257.101V39.1457ZM259.553 39.1457L260.78 39.1457V38.5345H259.553V39.1457ZM262.006 39.1457H263.232V38.5345H262.006V39.1457ZM264.458 39.1457H265.684V38.5345H264.458V39.1457ZM266.91 39.1457H268.137V38.5345H266.91V39.1457ZM269.363 39.1457H270.589V38.5345H269.363V39.1457ZM271.815 39.1457L273.041 39.1457V38.5345H271.815V39.1457ZM274.268 39.1457H275.494V38.5345H274.268V39.1457ZM276.72 39.1457H277.946V38.5345H276.72V39.1457ZM279.172 39.1457H280.398V38.5345H279.172V39.1457ZM281.625 39.1457H282.851V38.5345L281.625 38.5345V39.1457ZM284.077 39.1457L285.303 39.1457V38.5345H284.077V39.1457ZM286.529 39.1457H287.756V38.5345H286.529V39.1457ZM288.982 39.1457H290.208V38.5345H288.982V39.1457ZM291.434 39.1457H292.66V38.5345H291.434V39.1457ZM293.886 39.1457H295.113V38.5345L293.886 38.5345V39.1457ZM296.339 39.1457L297.565 39.1457V38.5345H296.339V39.1457ZM298.791 39.1457H300.017V38.5345H298.791V39.1457ZM301.243 39.1457H302.47V38.5345H301.243V39.1457ZM303.696 39.1457H304.922V38.5345H303.696V39.1457ZM306.148 39.1457H307.374V38.5345L306.148 38.5345V39.1457ZM308.601 39.1457L309.827 39.1457V38.5345H308.601V39.1457ZM311.053 39.1457H312.279V38.5345H311.053V39.1457ZM313.505 39.1457H314.731V38.5345H313.505V39.1457ZM315.958 39.1457H317.184V38.5345H315.958V39.1457ZM318.41 39.1457H319.636V38.5345L318.41 38.5345V39.1457ZM320.862 39.1457L322.088 39.1457V38.5345H320.862V39.1457ZM323.315 39.1457H324.541V38.5345H323.315V39.1457ZM325.767 39.1457H326.993V38.5345H325.767V39.1457ZM328.219 39.1457H329.445V38.5345H328.219V39.1457ZM330.672 39.1457H331.898V38.5345L330.672 38.5345V39.1457ZM333.124 39.1457H334.35V38.5345H333.124V39.1457ZM335.576 39.1457H336.802V38.5345H335.576V39.1457ZM338.029 39.1457H339.255V38.5345H338.029V39.1457ZM340.481 39.1457H341.707V38.5345H340.481V39.1457ZM342.933 39.1457H344.159V38.5345L342.933 38.5345V39.1457ZM345.386 39.1457H346.612V38.5345H345.386V39.1457ZM347.838 39.1457H349.064V38.5345H347.838V39.1457ZM350.29 39.1457H351.516V38.5345H350.29V39.1457ZM352.743 39.1457H353.969V38.5345H352.743V39.1457ZM355.195 39.1457H356.421V38.5346L355.195 38.5345V39.1457ZM357.647 39.1457H358.873V38.5346H357.647V39.1457ZM360.1 39.1457H361.326V38.5346H360.1V39.1457ZM362.552 39.1457H363.778V38.5346H362.552V39.1457ZM365.004 39.1457H366.23V38.5346H365.004V39.1457ZM367.457 39.1457H368.683V38.5346H367.457V39.1457ZM369.909 39.1458H371.135V38.5346H369.909V39.1458ZM372.361 39.1458H373.587V38.5346H372.361V39.1458ZM374.814 39.1458H376.04V38.5346H374.814V39.1458ZM377.266 39.1458H378.492V38.5346H377.266V39.1458ZM379.718 39.1458H380.332V38.5346H379.718V39.1458ZM380.332 39.1458C380.54 39.1458 380.747 39.139 380.952 39.1258L380.913 38.5159C380.721 38.5283 380.527 38.5346 380.332 38.5346V39.1458ZM382.181 38.9654C382.59 38.8845 382.99 38.7771 383.378 38.6453L383.182 38.0665C382.819 38.1898 382.445 38.2901 382.062 38.3659L382.181 38.9654ZM384.523 38.1705C384.895 37.9867 385.254 37.7792 385.596 37.5499L385.256 37.042C384.936 37.2565 384.6 37.4506 384.252 37.6226L384.523 38.1705ZM386.579 36.7948C386.889 36.5221 387.182 36.2294 387.455 35.9187L386.995 35.5155C386.74 35.8063 386.466 36.0803 386.175 36.3355L386.579 36.7948ZM388.21 34.9361C388.439 34.5937 388.647 34.2354 388.83 33.8634L388.282 33.5926C388.11 33.9406 387.916 34.2757 387.702 34.5961L388.21 34.9361ZM389.305 32.7185C389.437 32.3299 389.544 31.9301 389.625 31.5208L389.026 31.4022C388.95 31.7849 388.85 32.1588 388.726 32.522L389.305 32.7185ZM389.786 30.2921C389.799 30.0872 389.806 29.8805 389.806 29.6722H389.194C389.194 29.8673 389.188 30.0609 389.176 30.2527L389.786 30.2921ZM389.806 29.6722V29.049H389.194V29.6722H389.806ZM389.806 27.8025V26.5561H389.194V27.8025H389.806ZM389.806 25.3096V24.0632H389.194V25.3096H389.806ZM389.806 22.8167V21.5702H389.194V22.8167H389.806ZM389.806 20.3238V19.0773H389.194V20.3238H389.806ZM389.806 17.8308V16.5844H389.194V17.8308H389.806ZM389.806 15.3379V14.0914H389.194V15.3379H389.806ZM389.806 12.845V11.5985H389.194V12.845H389.806ZM389.806 10.352V9.10556H389.194V10.352H389.806ZM389.806 7.8591V6.61263H389.194V7.8591H389.806ZM389.806 5.36616V4.1197H389.194V5.36616H389.806ZM389.806 2.87323V2.25H389.194V2.87323H389.806Z" fill="white"/>
</svg>
