<svg width="300" height="151" viewBox="0 0 300 151" fill="none" xmlns="http://www.w3.org/2000/svg">
<path d="M0.870149 149C0.870149 149.9 1.59986 150.63 2.5 150.63C3.40014 150.63 4.12985 149.9 4.12985 149C4.12985 148.1 3.40014 147.37 2.5 147.37C1.59986 147.37 0.870149 148.1 0.870149 149ZM296.369 2C296.369 2.90014 297.099 3.62985 297.999 3.62985C298.899 3.62985 299.629 2.90014 299.629 2C299.629 1.09986 298.899 0.370149 297.999 0.370149C297.099 0.370149 296.369 1.09986 296.369 2ZM2.5 149.306H3.11182V148.694H2.5V149.306ZM4.33546 149.306H5.55909V148.694H4.33546V149.306ZM6.78273 149.306H8.00637V148.694H6.78273V149.306ZM9.23001 149.306H10.4536V148.694H9.23001V149.306ZM11.6773 149.306H12.9009V148.694H11.6773V149.306ZM14.1246 149.306H15.3482V148.694H14.1246V149.306ZM16.5718 149.306H17.7955V148.694H16.5718V149.306ZM19.0191 149.306H20.2428V148.694H19.0191V149.306ZM21.4664 149.306H22.69V148.694H21.4664V149.306ZM23.9137 149.306H25.1373V148.694H23.9137V149.306ZM26.3609 149.306H27.5846V148.694H26.3609V149.306ZM28.8082 149.306H30.0319V148.694H28.8082V149.306ZM31.2555 149.306H32.4791V148.694H31.2555V149.306ZM33.7028 149.306H34.9264V148.694H33.7028V149.306ZM36.15 149.306H37.3737V148.694H36.15V149.306ZM38.5973 149.306H39.821V148.694H38.5973V149.306ZM41.0446 149.306H42.2682V148.694H41.0446V149.306ZM43.4919 149.306H44.7155V148.694H43.4919V149.306ZM45.9391 149.306H47.1628V148.694H45.9391V149.306ZM48.3864 149.306H49.6101V148.694H48.3864V149.306ZM50.8337 149.306H52.0573V148.694H50.8337V149.306ZM53.281 149.306H54.5046V148.694H53.281V149.306ZM55.7282 149.306H56.9519V148.694H55.7282V149.306ZM58.1755 149.306H59.3991V148.694H58.1755V149.306ZM60.6228 149.306H61.8464V148.694H60.6228V149.306ZM63.07 149.306H64.2937V148.694H63.07V149.306ZM65.5173 149.306H66.741V148.694H65.5173V149.306ZM67.9646 149.306H69.1882V148.694H67.9646V149.306ZM70.4119 149.306H71.6355V148.694H70.4119V149.306ZM72.8592 149.306H74.0828V148.694H72.8592V149.306ZM75.3064 149.306H76.5301V148.694H75.3064V149.306ZM77.7537 149.306H78.9774V148.694H77.7537V149.306ZM80.201 149.306H81.4247V148.694H80.201V149.306ZM82.6483 149.306H83.8719V148.694H82.6483V149.306ZM85.0956 149.306H86.3192V148.694H85.0956V149.306ZM87.5428 149.306H88.7665V148.694H87.5428V149.306ZM89.9901 149.306H91.2138V148.694H89.9901V149.306ZM92.4374 149.306H93.6611V148.694H92.4374V149.306ZM94.8847 149.306H96.1083V148.694H94.8847V149.306ZM97.332 149.306H98.5556V148.694H97.332V149.306ZM99.7793 149.306H101.003V148.694H99.7793V149.306ZM102.227 149.306H103.45V148.694H102.227V149.306ZM104.674 149.306H105.897V148.694H104.674V149.306ZM107.121 149.306H108.345V148.694H107.121V149.306ZM109.568 149.306H110.792V148.694H109.568V149.306ZM112.016 149.306H113.239V148.694H112.016V149.306ZM114.463 149.306H115.687V148.694H114.463V149.306ZM116.91 149.306H118.134V148.694H116.91V149.306ZM119.357 149.306H120.581V148.694H119.357V149.306ZM121.805 149.306H123.028V148.694H121.805V149.306ZM124.252 149.306H125.476V148.694H124.252V149.306ZM126.699 149.306H127.923V148.694H126.699V149.306ZM129.147 149.306H130.37V148.694H129.147V149.306ZM131.594 149.306H132.818V148.694H131.594V149.306ZM134.041 149.306H135.265V148.694H134.041V149.306ZM136.488 149.306H137.712V148.694H136.488V149.306ZM138.936 149.306H140.159V148.694H138.936V149.306ZM141.383 149.306H142.607V148.694H141.383V149.306ZM143.83 149.306H145.054V148.694H143.83V149.306ZM146.277 149.306H147.501V148.694H146.277V149.306ZM148.725 149.306H149.948V148.694H148.725V149.306ZM151.172 149.306H152.396V148.694H151.172V149.306ZM153.619 149.306H154.843V148.694H153.619V149.306ZM156.067 149.306H157.29V148.694H156.067V149.306ZM158.514 149.306H159.737V148.694H158.514V149.306ZM160.961 149.306H162.185V148.694H160.961V149.306ZM163.408 149.306H164.632V148.694H163.408V149.306ZM165.856 149.306H167.079V148.694H165.856V149.306ZM168.303 149.306H169.527V148.694H168.303V149.306ZM170.75 149.306H171.974V148.694H170.75V149.306ZM173.197 149.306H174.421V148.694H173.197V149.306ZM175.645 149.306H176.868V148.694H175.645V149.306ZM178.092 149.306H179.316V148.694H178.092V149.306ZM180.539 149.306H181.763V148.694H180.539V149.306ZM182.986 149.306H184.21V148.694H182.986V149.306ZM185.434 149.306H186.657V148.694H185.434V149.306ZM187.881 149.306H189.105V148.694H187.881V149.306ZM190.328 149.306H191.552V148.694H190.328V149.306ZM192.776 149.306H193.999V148.694H192.776V149.306ZM195.223 149.306H196.446V148.694H195.223V149.306ZM197.67 149.306H198.894V148.694H197.67V149.306ZM200.117 149.306H201.341V148.694H200.117V149.306ZM202.565 149.306H203.788V148.694H202.565V149.306ZM205.012 149.306H206.236V148.694H205.012V149.306ZM207.459 149.306H208.683V148.694H207.459V149.306ZM209.906 149.306H211.13V148.694H209.906V149.306ZM212.354 149.306H213.577V148.694H212.354V149.306ZM214.801 149.306H216.025V148.694H214.801V149.306ZM217.248 149.306H218.472V148.694H217.248V149.306ZM219.695 149.306H220.919V148.694H219.695V149.306ZM222.143 149.306H223.366V148.694H222.143V149.306ZM224.59 149.306H225.814V148.694H224.59V149.306ZM227.037 149.306H228.261V148.694H227.037V149.306ZM229.485 149.306H230.708V148.694H229.485V149.306ZM231.932 149.306H233.155V148.694H231.932V149.306ZM234.379 149.306H235.603V148.694H234.379V149.306ZM236.826 149.306H238.05V148.694H236.826V149.306ZM239.274 149.306H240.497V148.694H239.274V149.306ZM241.721 149.306H242.944V148.694H241.721V149.306ZM244.168 149.306H245.392V148.694H244.168V149.306ZM246.615 149.306H247.839V148.694H246.615V149.306ZM249.063 149.306H250.286V148.694H249.063V149.306ZM251.51 149.306H252.734V148.694H251.51V149.306ZM253.957 149.306H255.181V148.694H253.957V149.306ZM256.404 149.306H257.628V148.694H256.404V149.306ZM258.852 149.306H260.075V148.694H258.852V149.306ZM261.299 149.306H262.523V148.694H261.299V149.306ZM263.746 149.306H264.97V148.694H263.746V149.306ZM266.194 149.306H267.417V148.694H266.194V149.306ZM268.641 149.306H269.864V148.694H268.641V149.306ZM271.088 149.306H272.312V148.694H271.088V149.306ZM273.535 149.306H274.759V148.694H273.535V149.306ZM275.983 149.306H277.206V148.694H275.983V149.306ZM278.43 149.306H279.653V148.694H278.43V149.306ZM280.877 149.306H282.101V148.694H280.877V149.306ZM283.324 149.306H284.548V148.694H283.324V149.306ZM285.772 149.306H286.995V148.694H285.772V149.306ZM288.219 149.306H288.831V148.694H288.219V149.306ZM288.831 149.306C289.039 149.306 289.246 149.299 289.451 149.286L289.412 148.676C289.22 148.688 289.026 148.694 288.831 148.694V149.306ZM290.68 149.125C291.089 149.044 291.489 148.937 291.877 148.805L291.681 148.226C291.318 148.35 290.944 148.45 290.561 148.526L290.68 149.125ZM293.022 148.33C293.394 148.147 293.753 147.939 294.095 147.71L293.755 147.202C293.435 147.416 293.1 147.61 292.752 147.782L293.022 148.33ZM295.078 146.955C295.388 146.682 295.681 146.389 295.954 146.079L295.495 145.675C295.239 145.966 294.965 146.24 294.675 146.495L295.078 146.955ZM296.709 145.096C296.938 144.754 297.146 144.395 297.33 144.023L296.782 143.752C296.61 144.1 296.416 144.436 296.201 144.756L296.709 145.096ZM297.804 142.878C297.936 142.49 298.043 142.09 298.124 141.681L297.525 141.562C297.449 141.945 297.349 142.319 297.226 142.682L297.804 142.878ZM298.285 140.452C298.298 140.247 298.305 140.04 298.305 139.832H297.694C297.694 140.027 297.687 140.221 297.675 140.413L298.285 140.452ZM298.305 139.832V139.217H297.694V139.832H298.305ZM298.305 137.986V136.755H297.694V137.986H298.305ZM298.305 135.525V134.294H297.694V135.525H298.305ZM298.305 133.064V131.833H297.694V133.064H298.305ZM298.305 130.602V129.372H297.694V130.602H298.305ZM298.305 128.141V126.91H297.694V128.141H298.305ZM298.305 125.68V124.449H297.694V125.68H298.305ZM298.305 123.218V121.988H297.694V123.218H298.305ZM298.305 120.757V119.526H297.694V120.757H298.305ZM298.305 118.296V117.065H297.694V118.296H298.305ZM298.305 115.835V114.604H297.694V115.835H298.305ZM298.305 113.373V112.143H297.694V113.373H298.305ZM298.305 110.912V109.681H297.694V110.912H298.305ZM298.305 108.451V107.22H297.694V108.451H298.305ZM298.305 105.989V104.759H297.694V105.989H298.305ZM298.305 103.528V102.297H297.694V103.528H298.305ZM298.305 101.067V99.8362H297.694V101.067H298.305ZM298.305 98.6055V97.3749H297.694V98.6055H298.305ZM298.305 96.1442V94.9136H297.694V96.1442H298.305ZM298.305 93.6829V92.4523H297.694V93.6829H298.305ZM298.305 91.2217V89.991H297.694V91.2217H298.305ZM298.305 88.7604V87.5297H297.694V88.7604H298.305ZM298.305 86.2991V85.0684H297.694V86.2991H298.305ZM298.305 83.8378V82.6071H297.694V83.8378H298.305ZM298.305 81.3765V80.1459H297.694V81.3765H298.305ZM298.305 78.9152V77.6846H297.694V78.9152H298.305ZM298.305 76.4539V75.2233H297.694V76.4539H298.305ZM298.305 73.9926V72.762H297.694V73.9926H298.305ZM298.305 71.5313V70.3007H297.694V71.5313H298.305ZM298.305 69.0701V67.8394H297.694V69.0701H298.305ZM298.305 66.6088V65.3781H297.694V66.6088H298.305ZM298.305 64.1475V62.9168H297.694V64.1475H298.305ZM298.305 61.6862V60.4555H297.694V61.6862H298.305ZM298.305 59.2249V57.9943H297.694V59.2249H298.305ZM298.305 56.7636V55.533H297.694V56.7636H298.305ZM298.305 54.3023V53.0717H297.694V54.3023H298.305ZM298.305 51.841V50.6104H297.694V51.841H298.305ZM298.305 49.3798V48.1491H297.694V49.3798H298.305ZM298.305 46.9185V45.6878H297.694V46.9185H298.305ZM298.305 44.4572V43.2265H297.694V44.4572H298.305ZM298.305 41.9959V40.7652H297.694V41.9959H298.305ZM298.305 39.5346V38.304H297.694V39.5346H298.305ZM298.305 37.0733V35.8427H297.694V37.0733H298.305ZM298.305 34.612V33.3814H297.694V34.612H298.305ZM298.305 32.1507V30.9201H297.694V32.1507H298.305ZM298.305 29.6894V28.4588H297.694V29.6894H298.305ZM298.305 27.2282V25.9975H297.694V27.2282H298.305ZM298.305 24.7669V23.5362H297.694V24.7669H298.305ZM298.305 22.3056V21.0749H297.694V22.3056H298.305ZM298.305 19.8443V18.6137H297.694V19.8443H298.305ZM298.305 17.383V16.1524H297.694V17.383H298.305ZM298.305 14.9217V13.6911H297.694V14.9217H298.305ZM298.305 12.4604V11.2298H297.694V12.4604H298.305ZM298.305 9.99915V8.76851H297.694V9.99915H298.305ZM298.305 7.53788V6.30724H297.694V7.53788H298.305ZM298.305 5.0766V3.84596H297.694V5.0766H298.305ZM298.305 2.61533V2H297.694V2.61533H298.305ZM0.870149 149C0.870149 149.9 1.59986 150.63 2.5 150.63C3.40014 150.63 4.12985 149.9 4.12985 149C4.12985 148.1 3.40014 147.37 2.5 147.37C1.59986 147.37 0.870149 148.1 0.870149 149ZM296.369 2C296.369 2.90014 297.099 3.62985 297.999 3.62985C298.899 3.62985 299.629 2.90014 299.629 2C299.629 1.09986 298.899 0.370149 297.999 0.370149C297.099 0.370149 296.369 1.09986 296.369 2ZM2.5 149.306H3.11182V148.694H2.5V149.306ZM4.33546 149.306H5.55909V148.694H4.33546V149.306ZM6.78273 149.306H8.00637V148.694H6.78273V149.306ZM9.23001 149.306H10.4536V148.694H9.23001V149.306ZM11.6773 149.306H12.9009V148.694H11.6773V149.306ZM14.1246 149.306H15.3482V148.694H14.1246V149.306ZM16.5718 149.306H17.7955V148.694H16.5718V149.306ZM19.0191 149.306H20.2428V148.694H19.0191V149.306ZM21.4664 149.306H22.69V148.694H21.4664V149.306ZM23.9137 149.306H25.1373V148.694H23.9137V149.306ZM26.3609 149.306H27.5846V148.694H26.3609V149.306ZM28.8082 149.306H30.0319V148.694H28.8082V149.306ZM31.2555 149.306H32.4791V148.694H31.2555V149.306ZM33.7028 149.306H34.9264V148.694H33.7028V149.306ZM36.15 149.306H37.3737V148.694H36.15V149.306ZM38.5973 149.306H39.821V148.694H38.5973V149.306ZM41.0446 149.306H42.2682V148.694H41.0446V149.306ZM43.4919 149.306H44.7155V148.694H43.4919V149.306ZM45.9391 149.306H47.1628V148.694H45.9391V149.306ZM48.3864 149.306H49.6101V148.694H48.3864V149.306ZM50.8337 149.306H52.0573V148.694H50.8337V149.306ZM53.281 149.306H54.5046V148.694H53.281V149.306ZM55.7282 149.306H56.9519V148.694H55.7282V149.306ZM58.1755 149.306H59.3991V148.694H58.1755V149.306ZM60.6228 149.306H61.8464V148.694H60.6228V149.306ZM63.07 149.306H64.2937V148.694H63.07V149.306ZM65.5173 149.306H66.741V148.694H65.5173V149.306ZM67.9646 149.306H69.1882V148.694H67.9646V149.306ZM70.4119 149.306H71.6355V148.694H70.4119V149.306ZM72.8592 149.306H74.0828V148.694H72.8592V149.306ZM75.3064 149.306H76.5301V148.694H75.3064V149.306ZM77.7537 149.306H78.9774V148.694H77.7537V149.306ZM80.201 149.306H81.4247V148.694H80.201V149.306ZM82.6483 149.306H83.8719V148.694H82.6483V149.306ZM85.0956 149.306H86.3192V148.694H85.0956V149.306ZM87.5428 149.306H88.7665V148.694H87.5428V149.306ZM89.9901 149.306H91.2138V148.694H89.9901V149.306ZM92.4374 149.306H93.6611V148.694H92.4374V149.306ZM94.8847 149.306H96.1083V148.694H94.8847V149.306ZM97.332 149.306H98.5556V148.694H97.332V149.306ZM99.7793 149.306H101.003V148.694H99.7793V149.306ZM102.227 149.306H103.45V148.694H102.227V149.306ZM104.674 149.306H105.897V148.694H104.674V149.306ZM107.121 149.306H108.345V148.694H107.121V149.306ZM109.568 149.306H110.792V148.694H109.568V149.306ZM112.016 149.306H113.239V148.694H112.016V149.306ZM114.463 149.306H115.687V148.694H114.463V149.306ZM116.91 149.306H118.134V148.694H116.91V149.306ZM119.357 149.306H120.581V148.694H119.357V149.306ZM121.805 149.306H123.028V148.694H121.805V149.306ZM124.252 149.306H125.476V148.694H124.252V149.306ZM126.699 149.306H127.923V148.694H126.699V149.306ZM129.147 149.306H130.37V148.694H129.147V149.306ZM131.594 149.306H132.818V148.694H131.594V149.306ZM134.041 149.306H135.265V148.694H134.041V149.306ZM136.488 149.306H137.712V148.694H136.488V149.306ZM138.936 149.306H140.159V148.694H138.936V149.306ZM141.383 149.306H142.607V148.694H141.383V149.306ZM143.83 149.306H145.054V148.694H143.83V149.306ZM146.277 149.306H147.501V148.694H146.277V149.306ZM148.725 149.306H149.948V148.694H148.725V149.306ZM151.172 149.306H152.396V148.694H151.172V149.306ZM153.619 149.306H154.843V148.694H153.619V149.306ZM156.067 149.306H157.29V148.694H156.067V149.306ZM158.514 149.306H159.737V148.694H158.514V149.306ZM160.961 149.306H162.185V148.694H160.961V149.306ZM163.408 149.306H164.632V148.694H163.408V149.306ZM165.856 149.306H167.079V148.694H165.856V149.306ZM168.303 149.306H169.527V148.694H168.303V149.306ZM170.75 149.306H171.974V148.694H170.75V149.306ZM173.197 149.306H174.421V148.694H173.197V149.306ZM175.645 149.306H176.868V148.694H175.645V149.306ZM178.092 149.306H179.316V148.694H178.092V149.306ZM180.539 149.306H181.763V148.694H180.539V149.306ZM182.986 149.306H184.21V148.694H182.986V149.306ZM185.434 149.306H186.657V148.694H185.434V149.306ZM187.881 149.306H189.105V148.694H187.881V149.306ZM190.328 149.306H191.552V148.694H190.328V149.306ZM192.776 149.306H193.999V148.694H192.776V149.306ZM195.223 149.306H196.446V148.694H195.223V149.306ZM197.67 149.306H198.894V148.694H197.67V149.306ZM200.117 149.306H201.341V148.694H200.117V149.306ZM202.565 149.306H203.788V148.694H202.565V149.306ZM205.012 149.306H206.236V148.694H205.012V149.306ZM207.459 149.306H208.683V148.694H207.459V149.306ZM209.906 149.306H211.13V148.694H209.906V149.306ZM212.354 149.306H213.577V148.694H212.354V149.306ZM214.801 149.306H216.025V148.694H214.801V149.306ZM217.248 149.306H218.472V148.694H217.248V149.306ZM219.695 149.306H220.919V148.694H219.695V149.306ZM222.143 149.306H223.366V148.694H222.143V149.306ZM224.59 149.306H225.814V148.694H224.59V149.306ZM227.037 149.306H228.261V148.694H227.037V149.306ZM229.485 149.306H230.708V148.694H229.485V149.306ZM231.932 149.306H233.155V148.694H231.932V149.306ZM234.379 149.306H235.603V148.694H234.379V149.306ZM236.826 149.306H238.05V148.694H236.826V149.306ZM239.274 149.306H240.497V148.694H239.274V149.306ZM241.721 149.306H242.944V148.694H241.721V149.306ZM244.168 149.306H245.392V148.694H244.168V149.306ZM246.615 149.306H247.839V148.694H246.615V149.306ZM249.063 149.306H250.286V148.694H249.063V149.306ZM251.51 149.306H252.734V148.694H251.51V149.306ZM253.957 149.306H255.181V148.694H253.957V149.306ZM256.404 149.306H257.628V148.694H256.404V149.306ZM258.852 149.306H260.075V148.694H258.852V149.306ZM261.299 149.306H262.523V148.694H261.299V149.306ZM263.746 149.306H264.97V148.694H263.746V149.306ZM266.194 149.306H267.417V148.694H266.194V149.306ZM268.641 149.306H269.864V148.694H268.641V149.306ZM271.088 149.306H272.312V148.694H271.088V149.306ZM273.535 149.306H274.759V148.694H273.535V149.306ZM275.983 149.306H277.206V148.694H275.983V149.306ZM278.43 149.306H279.653V148.694H278.43V149.306ZM280.877 149.306H282.101V148.694H280.877V149.306ZM283.324 149.306H284.548V148.694H283.324V149.306ZM285.772 149.306H286.995V148.694H285.772V149.306ZM288.219 149.306H288.831V148.694H288.219V149.306ZM288.831 149.306C289.039 149.306 289.246 149.299 289.451 149.286L289.412 148.676C289.22 148.688 289.026 148.694 288.831 148.694V149.306ZM290.68 149.125C291.089 149.044 291.489 148.937 291.877 148.805L291.681 148.226C291.318 148.35 290.944 148.45 290.561 148.526L290.68 149.125ZM293.022 148.33C293.394 148.147 293.753 147.939 294.095 147.71L293.755 147.202C293.435 147.416 293.1 147.61 292.752 147.782L293.022 148.33ZM295.078 146.955C295.388 146.682 295.681 146.389 295.954 146.079L295.495 145.675C295.239 145.966 294.965 146.24 294.675 146.495L295.078 146.955ZM296.709 145.096C296.938 144.754 297.146 144.395 297.33 144.023L296.782 143.752C296.61 144.1 296.416 144.436 296.201 144.756L296.709 145.096ZM297.804 142.878C297.936 142.49 298.043 142.09 298.124 141.681L297.525 141.562C297.449 141.945 297.349 142.319 297.226 142.682L297.804 142.878ZM298.285 140.452C298.298 140.247 298.305 140.04 298.305 139.832H297.694C297.694 140.027 297.687 140.221 297.675 140.413L298.285 140.452ZM298.305 139.832V139.217H297.694V139.832H298.305ZM298.305 137.986V136.755H297.694V137.986H298.305ZM298.305 135.525V134.294H297.694V135.525H298.305ZM298.305 133.064V131.833H297.694V133.064H298.305ZM298.305 130.602V129.372H297.694V130.602H298.305ZM298.305 128.141V126.91H297.694V128.141H298.305ZM298.305 125.68V124.449H297.694V125.68H298.305ZM298.305 123.218V121.988H297.694V123.218H298.305ZM298.305 120.757V119.526H297.694V120.757H298.305ZM298.305 118.296V117.065H297.694V118.296H298.305ZM298.305 115.835V114.604H297.694V115.835H298.305ZM298.305 113.373V112.143H297.694V113.373H298.305ZM298.305 110.912V109.681H297.694V110.912H298.305ZM298.305 108.451V107.22H297.694V108.451H298.305ZM298.305 105.989V104.759H297.694V105.989H298.305ZM298.305 103.528V102.297H297.694V103.528H298.305ZM298.305 101.067V99.8362H297.694V101.067H298.305ZM298.305 98.6055V97.3749H297.694V98.6055H298.305ZM298.305 96.1442V94.9136H297.694V96.1442H298.305ZM298.305 93.6829V92.4523H297.694V93.6829H298.305ZM298.305 91.2217V89.991H297.694V91.2217H298.305ZM298.305 88.7604V87.5297H297.694V88.7604H298.305ZM298.305 86.2991V85.0684H297.694V86.2991H298.305ZM298.305 83.8378V82.6071H297.694V83.8378H298.305ZM298.305 81.3765V80.1459H297.694V81.3765H298.305ZM298.305 78.9152V77.6846H297.694V78.9152H298.305ZM298.305 76.4539V75.2233H297.694V76.4539H298.305ZM298.305 73.9926V72.762H297.694V73.9926H298.305ZM298.305 71.5313V70.3007H297.694V71.5313H298.305ZM298.305 69.0701V67.8394H297.694V69.0701H298.305ZM298.305 66.6088V65.3781H297.694V66.6088H298.305ZM298.305 64.1475V62.9168H297.694V64.1475H298.305ZM298.305 61.6862V60.4555H297.694V61.6862H298.305ZM298.305 59.2249V57.9943H297.694V59.2249H298.305ZM298.305 56.7636V55.533H297.694V56.7636H298.305ZM298.305 54.3023V53.0717H297.694V54.3023H298.305ZM298.305 51.841V50.6104H297.694V51.841H298.305ZM298.305 49.3798V48.1491H297.694V49.3798H298.305ZM298.305 46.9185V45.6878H297.694V46.9185H298.305ZM298.305 44.4572V43.2265H297.694V44.4572H298.305ZM298.305 41.9959V40.7652H297.694V41.9959H298.305ZM298.305 39.5346V38.304H297.694V39.5346H298.305ZM298.305 37.0733V35.8427H297.694V37.0733H298.305ZM298.305 34.612V33.3814H297.694V34.612H298.305ZM298.305 32.1507V30.9201H297.694V32.1507H298.305ZM298.305 29.6894V28.4588H297.694V29.6894H298.305ZM298.305 27.2282V25.9975H297.694V27.2282H298.305ZM298.305 24.7669V23.5362H297.694V24.7669H298.305ZM298.305 22.3056V21.0749H297.694V22.3056H298.305ZM298.305 19.8443V18.6137H297.694V19.8443H298.305ZM298.305 17.383V16.1524H297.694V17.383H298.305ZM298.305 14.9217V13.6911H297.694V14.9217H298.305ZM298.305 12.4604V11.2298H297.694V12.4604H298.305ZM298.305 9.99915V8.76851H297.694V9.99915H298.305ZM298.305 7.53788V6.30724H297.694V7.53788H298.305ZM298.305 5.0766V3.84596H297.694V5.0766H298.305ZM298.305 2.61533V2H297.694V2.61533H298.305Z" fill="white"/>
</svg>
