<svg width="780" height="97" viewBox="0 0 780 97" fill="none" xmlns="http://www.w3.org/2000/svg">
<path d="M43.3709 2C43.3709 1.09986 44.1006 0.370148 45.0008 0.370148C45.9009 0.370148 46.6306 1.09986 46.6306 2C46.6306 2.90014 45.9009 3.62985 45.0008 3.62985C44.1006 3.62985 43.3709 2.90014 43.3709 2ZM45.0001 49.2419L45.3057 49.2419L45.0001 49.2419ZM54.168 58.4099V58.7155V58.4099ZM379.832 58.4099V58.1043V58.4099ZM387.37 95C387.37 94.0999 388.1 93.3701 389 93.3701C389.9 93.3701 390.63 94.0999 390.63 95C390.63 95.9001 389.9 96.6299 389 96.6299C388.1 96.6299 387.37 95.9001 387.37 95ZM45.3064 2.00001L45.3064 2.6216L44.6952 2.6216L44.6952 1.99999L45.3064 2.00001ZM45.3064 3.86481L45.3063 5.10802L44.6952 5.10802L44.6952 3.86481L45.3064 3.86481ZM45.3063 6.35123L45.3063 7.59444L44.6951 7.59443L44.6951 6.35122L45.3063 6.35123ZM45.3063 8.83765L45.3063 10.0808L44.6951 10.0808L44.6951 8.83763L45.3063 8.83765ZM45.3063 11.3241L45.3062 12.5673L44.695 12.5673L44.6951 11.3241L45.3063 11.3241ZM45.3062 13.8105L45.3062 15.0537L44.695 15.0537L44.695 13.8105L45.3062 13.8105ZM45.3062 16.2969L45.3062 17.5401L44.695 17.5401L44.695 16.2969L45.3062 16.2969ZM45.3062 18.7833L45.3061 20.0265L44.6949 20.0265L44.695 18.7833L45.3062 18.7833ZM45.3061 21.2697L45.3061 22.5129L44.6949 22.5129L44.6949 21.2697L45.3061 21.2697ZM45.3061 23.7561L45.3061 24.9993L44.6949 24.9993L44.6949 23.7561L45.3061 23.7561ZM45.306 26.2425L45.306 27.4858L44.6948 27.4857L44.6949 26.2425L45.306 26.2425ZM45.306 28.729L45.306 29.9722L44.6948 29.9722L44.6948 28.729L45.306 28.729ZM45.306 31.2154L45.306 32.4586L44.6948 32.4586L44.6948 31.2154L45.306 31.2154ZM45.3059 33.7018L45.3059 34.945L44.6947 34.945L44.6947 33.7018L45.3059 33.7018ZM45.3059 36.1882L45.3059 37.4314L44.6947 37.4314L44.6947 36.1882L45.3059 36.1882ZM45.3059 38.6746L45.3059 39.9178L44.6947 39.9178L44.6947 38.6746L45.3059 38.6746ZM45.3058 41.161L45.3058 42.4042L44.6946 42.4042L44.6946 41.161L45.3058 41.161ZM45.3058 43.6474L45.3058 44.8906L44.6946 44.8906L44.6946 43.6474L45.3058 43.6474ZM45.3058 46.1339L45.3058 47.3771L44.6946 47.3771L44.6946 46.1338L45.3058 46.1339ZM45.3057 48.6203L45.3057 49.2419L44.6945 49.2419L44.6945 48.6203L45.3057 48.6203ZM45.3057 49.2419C45.3057 49.4369 45.312 49.6305 45.3244 49.8224L44.7145 49.8618C44.7012 49.6568 44.6945 49.4501 44.6945 49.2419L45.3057 49.2419ZM45.4744 50.9718C45.5501 51.3546 45.6505 51.7284 45.7738 52.0917L45.195 52.2881C45.0631 51.8996 44.9558 51.4997 44.8748 51.0904L45.4744 50.9718ZM46.2177 53.1623C46.3896 53.5103 46.5837 53.8454 46.7982 54.1658L46.2903 54.5058C46.0611 54.1633 45.8536 53.8051 45.6697 53.433L46.2177 53.1623ZM47.5048 55.0852C47.76 55.376 48.0339 55.65 48.3247 55.9052L47.9215 56.3646C47.6108 56.0919 47.3181 55.7991 47.0454 55.4884L47.5048 55.0852ZM49.2442 56.6118C49.5645 56.8262 49.8996 57.0204 50.2476 57.1923L49.9769 57.7403C49.6048 57.5564 49.2466 57.3489 48.9042 57.1196L49.2442 56.6118ZM51.3182 57.6362C51.6815 57.7595 52.0554 57.8599 52.4381 57.9356L52.3195 58.5352C51.9102 58.4542 51.5103 58.3469 51.1218 58.215L51.3182 57.6362ZM53.5876 58.0856C53.7794 58.098 53.973 58.1043 54.168 58.1043V58.7155C53.9598 58.7155 53.7531 58.7088 53.5481 58.6955L53.5876 58.0856ZM54.168 58.1043H54.7802V58.7155H54.168V58.1043ZM56.0045 58.1043L57.2288 58.1043V58.7155H56.0045V58.1043ZM58.4531 58.1043H59.6774V58.7155H58.4531V58.1043ZM60.9017 58.1043H62.126V58.7155H60.9017V58.1043ZM63.3503 58.1043H64.5746V58.7155H63.3503L63.3503 58.1043ZM65.7989 58.1043H67.0232V58.7155H65.7989V58.1043ZM68.2475 58.1043H69.4718V58.7155H68.2475V58.1043ZM70.6961 58.1043H71.9204V58.7155H70.6961V58.1043ZM73.1447 58.1043L74.369 58.1043V58.7155L73.1447 58.7155V58.1043ZM75.5933 58.1043H76.8176V58.7155H75.5933V58.1043ZM78.0419 58.1043H79.2662V58.7155H78.0419V58.1043ZM80.4905 58.1043L81.7148 58.1043V58.7155H80.4905V58.1043ZM82.9391 58.1043H84.1634L84.1634 58.7155H82.9391V58.1043ZM85.3877 58.1043H86.612V58.7155H85.3877V58.1043ZM87.8363 58.1043H89.0606V58.7155H87.8363V58.1043ZM90.2849 58.1043H91.5092V58.7155H90.2849V58.1043ZM92.7335 58.1043H93.9578V58.7155H92.7335V58.1043ZM95.1821 58.1043H96.4064V58.7155H95.1821V58.1043ZM97.6307 58.1043H98.855V58.7155H97.6307V58.1043ZM100.079 58.1043H101.304V58.7155H100.079V58.1043ZM102.528 58.1043H103.752V58.7155H102.528V58.1043ZM104.977 58.1043H106.201V58.7155H104.977V58.1043ZM107.425 58.1043H108.649V58.7155H107.425V58.1043ZM109.874 58.1043H111.098V58.7155H109.874V58.1043ZM112.322 58.1043H113.547V58.7155H112.322V58.1043ZM114.771 58.1043H115.995V58.7155H114.771V58.1043ZM117.22 58.1043H118.444V58.7155H117.22V58.1043ZM119.668 58.1043H120.892V58.7155H119.668V58.1043ZM122.117 58.1043H123.341V58.7155H122.117V58.1043ZM124.565 58.1043H125.79V58.7155H124.565V58.1043ZM127.014 58.1043H128.238V58.7155L127.014 58.7155V58.1043ZM129.463 58.1043H130.687V58.7155H129.463V58.1043ZM131.911 58.1043L133.135 58.1043V58.7155L131.911 58.7155V58.1043ZM134.36 58.1043H135.584V58.7155H134.36V58.1043ZM136.808 58.1043H138.033V58.7155H136.808V58.1043ZM139.257 58.1043H140.481V58.7155H139.257V58.1043ZM141.706 58.1043H142.93V58.7155H141.706V58.1043ZM144.154 58.1043H145.379V58.7155H144.154V58.1043ZM146.603 58.1043H147.827V58.7155H146.603V58.1043ZM149.051 58.1043H150.276V58.7155H149.051V58.1043ZM151.5 58.1043H152.724V58.7155L151.5 58.7155V58.1043ZM153.949 58.1043H155.173L155.173 58.7155H153.949V58.1043ZM156.397 58.1043H157.622V58.7155H156.397V58.1043ZM158.846 58.1043H160.07V58.7155H158.846V58.1043ZM161.294 58.1043H162.519V58.7155H161.294V58.1043ZM163.743 58.1043H164.967V58.7155H163.743V58.1043ZM166.192 58.1043H167.416V58.7155H166.192V58.1043ZM168.64 58.1043H169.865V58.7155H168.64V58.1043ZM171.089 58.1043H172.313V58.7155H171.089V58.1043ZM173.538 58.1043H174.762V58.7155H173.538V58.1043ZM175.986 58.1043H177.21V58.7155H175.986V58.1043ZM178.435 58.1043H179.659V58.7155H178.435V58.1043ZM180.883 58.1043L182.108 58.1043V58.7155H180.883V58.1043ZM183.332 58.1043H184.556V58.7155H183.332V58.1043ZM185.781 58.1043H187.005V58.7155H185.781V58.1043ZM188.229 58.1043H189.453V58.7155H188.229V58.1043ZM190.678 58.1043H191.902V58.7155H190.678V58.1043ZM193.126 58.1043H194.351V58.7155H193.126V58.1043ZM195.575 58.1043H196.799V58.7155H195.575V58.1043ZM198.024 58.1043H199.248V58.7155H198.024V58.1043ZM200.472 58.1043H201.696V58.7155H200.472V58.1043ZM202.921 58.1043H204.145V58.7155H202.921V58.1043ZM205.369 58.1043L206.594 58.1043V58.7155H205.369V58.1043ZM207.818 58.1043H209.042V58.7155H207.818V58.1043ZM210.267 58.1043H211.491V58.7155H210.267V58.1043ZM212.715 58.1043H213.94V58.7155H212.715V58.1043ZM215.164 58.1043H216.388V58.7155H215.164V58.1043ZM217.612 58.1043H218.837V58.7155H217.612V58.1043ZM220.061 58.1043H221.285V58.7155H220.061V58.1043ZM222.51 58.1043H223.734V58.7155H222.51V58.1043ZM224.958 58.1043H226.183V58.7155H224.958V58.1043ZM227.407 58.1043H228.631V58.7155L227.407 58.7155V58.1043ZM229.855 58.1043H231.08V58.7155H229.855V58.1043ZM232.304 58.1043H233.528V58.7155H232.304V58.1043ZM234.753 58.1043H235.977V58.7155H234.753V58.1043ZM237.201 58.1043H238.426V58.7155H237.201V58.1043ZM239.65 58.1043H240.874V58.7155H239.65V58.1043ZM242.099 58.1043H243.323V58.7155H242.099V58.1043ZM244.547 58.1043H245.771V58.7155H244.547V58.1043ZM246.996 58.1043L248.22 58.1043V58.7155L246.996 58.7155V58.1043ZM249.444 58.1043H250.669V58.7155H249.444V58.1043ZM251.893 58.1043H253.117V58.7155L251.893 58.7155V58.1043ZM254.342 58.1043H255.566V58.7155H254.342V58.1043ZM256.79 58.1043H258.014V58.7155H256.79V58.1043ZM259.239 58.1043H260.463V58.7155H259.239V58.1043ZM261.687 58.1043H262.912V58.7155H261.687V58.1043ZM264.136 58.1043H265.36V58.7155H264.136V58.1043ZM266.585 58.1043H267.809V58.7155H266.585V58.1043ZM269.033 58.1043H270.258V58.7155H269.033V58.1043ZM271.482 58.1043H272.706V58.7155H271.482V58.1043ZM273.93 58.1043H275.155V58.7155H273.93V58.1043ZM276.379 58.1043H277.603V58.7155H276.379V58.1043ZM278.828 58.1043H280.052V58.7155H278.828V58.1043ZM281.276 58.1043L282.501 58.1043V58.7155H281.276V58.1043ZM283.725 58.1043H284.949V58.7155H283.725V58.1043ZM286.173 58.1043H287.398V58.7155H286.173V58.1043ZM288.622 58.1043H289.846V58.7155H288.622V58.1043ZM291.071 58.1043H292.295V58.7155H291.071V58.1043ZM293.519 58.1043H294.744V58.7155H293.519V58.1043ZM295.968 58.1043H297.192V58.7155H295.968V58.1043ZM298.417 58.1043H299.641V58.7155H298.417V58.1043ZM300.865 58.1043H302.089V58.7155H300.865V58.1043ZM303.314 58.1043H304.538V58.7155H303.314V58.1043ZM305.762 58.1043L306.987 58.1043V58.7155L305.762 58.7155V58.1043ZM308.211 58.1043H309.435V58.7155H308.211V58.1043ZM310.66 58.1043H311.884V58.7155H310.66V58.1043ZM313.108 58.1043H314.332V58.7155H313.108V58.1043ZM315.557 58.1043H316.781V58.7155H315.557V58.1043ZM318.005 58.1043H319.23V58.7155H318.005V58.1043ZM320.454 58.1043H321.678V58.7155H320.454V58.1043ZM322.903 58.1043H324.127V58.7155H322.903V58.1043ZM325.351 58.1043H326.576V58.7155H325.351V58.1043ZM327.8 58.1043H329.024V58.7155H327.8V58.1043ZM330.248 58.1043H331.473V58.7155H330.248V58.1043ZM332.697 58.1043H333.921V58.7155H332.697V58.1043ZM335.146 58.1043H336.37V58.7155H335.146V58.1043ZM337.594 58.1043H338.819V58.7155H337.594V58.1043ZM340.043 58.1043H341.267V58.7155H340.043V58.1043ZM342.491 58.1043H343.716V58.7155H342.491V58.1043ZM344.94 58.1043H346.164V58.7155H344.94V58.1043ZM347.389 58.1043H348.613V58.7155H347.389V58.1043ZM349.837 58.1043H351.062V58.7155H349.837V58.1043ZM352.286 58.1043H353.51V58.7155L352.286 58.7155V58.1043ZM354.734 58.1043H355.959V58.7155H354.734V58.1043ZM357.183 58.1043H358.407V58.7155H357.183V58.1043ZM359.632 58.1043H360.856V58.7155H359.632V58.1043ZM362.08 58.1043H363.305V58.7155H362.08V58.1043ZM364.529 58.1043H365.753V58.7155H364.529V58.1043ZM366.978 58.1043H368.202V58.7155H366.978V58.1043ZM369.426 58.1043H370.65V58.7155H369.426V58.1043ZM371.875 58.1043H373.099V58.7155H371.875V58.1043ZM374.323 58.1043H375.548V58.7155H374.323V58.1043ZM376.772 58.1043H377.996V58.7155L376.772 58.7155V58.1043ZM379.221 58.1043H379.832V58.7155H379.221V58.1043ZM379.832 58.1043C380.04 58.1043 380.247 58.111 380.452 58.1242L380.413 58.7342C380.221 58.7218 380.027 58.7155 379.832 58.7155V58.1043ZM381.681 58.2846C382.09 58.3656 382.49 58.4729 382.878 58.6048L382.682 59.1835C382.319 59.0602 381.945 58.9599 381.562 58.8842L381.681 58.2846ZM384.023 59.0795C384.395 59.2633 384.754 59.4709 385.096 59.7001L384.756 60.208C384.436 59.9935 384.1 59.7994 383.752 59.6275L384.023 59.0795ZM386.079 60.4552C386.389 60.7279 386.682 61.0206 386.955 61.3313L386.495 61.7345C386.24 61.4437 385.966 61.1698 385.675 60.9145L386.079 60.4552ZM387.71 62.3139C387.939 62.6564 388.147 63.0146 388.33 63.3867L387.782 63.6574C387.61 63.3094 387.416 62.9743 387.202 62.6539L387.71 62.3139ZM388.805 64.5316C388.937 64.9201 389.044 65.3199 389.125 65.7292L388.526 65.8479C388.45 65.4651 388.35 65.0912 388.226 64.728L388.805 64.5316ZM389.286 66.9579C389.299 67.1628 389.306 67.3695 389.306 67.5778H388.694C388.694 67.3827 388.688 67.1892 388.676 66.9973L389.286 66.9579ZM389.306 67.5778V68.201H388.694V67.5778H389.306ZM389.306 69.4475V70.6939H388.694V69.4475H389.306ZM389.306 71.9404V73.1869H388.694V71.9404H389.306ZM389.306 74.4333V75.6798H388.694V74.4333H389.306ZM389.306 76.9263V78.1727H388.694V76.9263H389.306ZM389.306 79.4192V80.6657H388.694V79.4192H389.306ZM389.306 81.9121V83.1586H388.694V81.9121H389.306ZM389.306 84.405V85.6515H388.694V84.405H389.306ZM389.306 86.898V88.1444H388.694V86.898H389.306ZM389.306 89.3909V90.6374H388.694V89.3909H389.306ZM389.306 91.8838V93.1303H388.694V91.8838H389.306ZM389.306 94.3768V95H388.694V94.3768H389.306ZM43.3709 2C43.3709 1.09986 44.1006 0.370148 45.0008 0.370148C45.9009 0.370148 46.6306 1.09986 46.6306 2C46.6306 2.90014 45.9009 3.62985 45.0008 3.62985C44.1006 3.62985 43.3709 2.90014 43.3709 2ZM45.0001 49.2419L45.3057 49.2419L45.0001 49.2419ZM54.168 58.4099V58.7155V58.4099ZM379.832 58.4099V58.1043V58.4099ZM387.37 95C387.37 94.0999 388.1 93.3701 389 93.3701C389.9 93.3701 390.63 94.0999 390.63 95C390.63 95.9001 389.9 96.6299 389 96.6299C388.1 96.6299 387.37 95.9001 387.37 95ZM45.3064 2.00001L45.3064 2.6216L44.6952 2.6216L44.6952 1.99999L45.3064 2.00001ZM45.3064 3.86481L45.3063 5.10802L44.6952 5.10802L44.6952 3.86481L45.3064 3.86481ZM45.3063 6.35123L45.3063 7.59444L44.6951 7.59443L44.6951 6.35122L45.3063 6.35123ZM45.3063 8.83765L45.3063 10.0808L44.6951 10.0808L44.6951 8.83763L45.3063 8.83765ZM45.3063 11.3241L45.3062 12.5673L44.695 12.5673L44.6951 11.3241L45.3063 11.3241ZM45.3062 13.8105L45.3062 15.0537L44.695 15.0537L44.695 13.8105L45.3062 13.8105ZM45.3062 16.2969L45.3062 17.5401L44.695 17.5401L44.695 16.2969L45.3062 16.2969ZM45.3062 18.7833L45.3061 20.0265L44.6949 20.0265L44.695 18.7833L45.3062 18.7833ZM45.3061 21.2697L45.3061 22.5129L44.6949 22.5129L44.6949 21.2697L45.3061 21.2697ZM45.3061 23.7561L45.3061 24.9993L44.6949 24.9993L44.6949 23.7561L45.3061 23.7561ZM45.306 26.2425L45.306 27.4858L44.6948 27.4857L44.6949 26.2425L45.306 26.2425ZM45.306 28.729L45.306 29.9722L44.6948 29.9722L44.6948 28.729L45.306 28.729ZM45.306 31.2154L45.306 32.4586L44.6948 32.4586L44.6948 31.2154L45.306 31.2154ZM45.3059 33.7018L45.3059 34.945L44.6947 34.945L44.6947 33.7018L45.3059 33.7018ZM45.3059 36.1882L45.3059 37.4314L44.6947 37.4314L44.6947 36.1882L45.3059 36.1882ZM45.3059 38.6746L45.3059 39.9178L44.6947 39.9178L44.6947 38.6746L45.3059 38.6746ZM45.3058 41.161L45.3058 42.4042L44.6946 42.4042L44.6946 41.161L45.3058 41.161ZM45.3058 43.6474L45.3058 44.8906L44.6946 44.8906L44.6946 43.6474L45.3058 43.6474ZM45.3058 46.1339L45.3058 47.3771L44.6946 47.3771L44.6946 46.1338L45.3058 46.1339ZM45.3057 48.6203L45.3057 49.2419L44.6945 49.2419L44.6945 48.6203L45.3057 48.6203ZM45.3057 49.2419C45.3057 49.4369 45.312 49.6305 45.3244 49.8224L44.7145 49.8618C44.7012 49.6568 44.6945 49.4501 44.6945 49.2419L45.3057 49.2419ZM45.4744 50.9718C45.5501 51.3546 45.6505 51.7284 45.7738 52.0917L45.195 52.2881C45.0631 51.8996 44.9558 51.4997 44.8748 51.0904L45.4744 50.9718ZM46.2177 53.1623C46.3896 53.5103 46.5837 53.8454 46.7982 54.1658L46.2903 54.5058C46.0611 54.1633 45.8536 53.8051 45.6697 53.433L46.2177 53.1623ZM47.5048 55.0852C47.76 55.376 48.0339 55.65 48.3247 55.9052L47.9215 56.3646C47.6108 56.0919 47.3181 55.7991 47.0454 55.4884L47.5048 55.0852ZM49.2442 56.6118C49.5645 56.8262 49.8996 57.0204 50.2476 57.1923L49.9769 57.7403C49.6048 57.5564 49.2466 57.3489 48.9042 57.1196L49.2442 56.6118ZM51.3182 57.6362C51.6815 57.7595 52.0554 57.8599 52.4381 57.9356L52.3195 58.5352C51.9102 58.4542 51.5103 58.3469 51.1218 58.215L51.3182 57.6362ZM53.5876 58.0856C53.7794 58.098 53.973 58.1043 54.168 58.1043V58.7155C53.9598 58.7155 53.7531 58.7088 53.5481 58.6955L53.5876 58.0856ZM54.168 58.1043H54.7802V58.7155H54.168V58.1043ZM56.0045 58.1043L57.2288 58.1043V58.7155H56.0045V58.1043ZM58.4531 58.1043H59.6774V58.7155H58.4531V58.1043ZM60.9017 58.1043H62.126V58.7155H60.9017V58.1043ZM63.3503 58.1043H64.5746V58.7155H63.3503L63.3503 58.1043ZM65.7989 58.1043H67.0232V58.7155H65.7989V58.1043ZM68.2475 58.1043H69.4718V58.7155H68.2475V58.1043ZM70.6961 58.1043H71.9204V58.7155H70.6961V58.1043ZM73.1447 58.1043L74.369 58.1043V58.7155L73.1447 58.7155V58.1043ZM75.5933 58.1043H76.8176V58.7155H75.5933V58.1043ZM78.0419 58.1043H79.2662V58.7155H78.0419V58.1043ZM80.4905 58.1043L81.7148 58.1043V58.7155H80.4905V58.1043ZM82.9391 58.1043H84.1634L84.1634 58.7155H82.9391V58.1043ZM85.3877 58.1043H86.612V58.7155H85.3877V58.1043ZM87.8363 58.1043H89.0606V58.7155H87.8363V58.1043ZM90.2849 58.1043H91.5092V58.7155H90.2849V58.1043ZM92.7335 58.1043H93.9578V58.7155H92.7335V58.1043ZM95.1821 58.1043H96.4064V58.7155H95.1821V58.1043ZM97.6307 58.1043H98.855V58.7155H97.6307V58.1043ZM100.079 58.1043H101.304V58.7155H100.079V58.1043ZM102.528 58.1043H103.752V58.7155H102.528V58.1043ZM104.977 58.1043H106.201V58.7155H104.977V58.1043ZM107.425 58.1043H108.649V58.7155H107.425V58.1043ZM109.874 58.1043H111.098V58.7155H109.874V58.1043ZM112.322 58.1043H113.547V58.7155H112.322V58.1043ZM114.771 58.1043H115.995V58.7155H114.771V58.1043ZM117.22 58.1043H118.444V58.7155H117.22V58.1043ZM119.668 58.1043H120.892V58.7155H119.668V58.1043ZM122.117 58.1043H123.341V58.7155H122.117V58.1043ZM124.565 58.1043H125.79V58.7155H124.565V58.1043ZM127.014 58.1043H128.238V58.7155L127.014 58.7155V58.1043ZM129.463 58.1043H130.687V58.7155H129.463V58.1043ZM131.911 58.1043L133.135 58.1043V58.7155L131.911 58.7155V58.1043ZM134.36 58.1043H135.584V58.7155H134.36V58.1043ZM136.808 58.1043H138.033V58.7155H136.808V58.1043ZM139.257 58.1043H140.481V58.7155H139.257V58.1043ZM141.706 58.1043H142.93V58.7155H141.706V58.1043ZM144.154 58.1043H145.379V58.7155H144.154V58.1043ZM146.603 58.1043H147.827V58.7155H146.603V58.1043ZM149.051 58.1043H150.276V58.7155H149.051V58.1043ZM151.5 58.1043H152.724V58.7155L151.5 58.7155V58.1043ZM153.949 58.1043H155.173L155.173 58.7155H153.949V58.1043ZM156.397 58.1043H157.622V58.7155H156.397V58.1043ZM158.846 58.1043H160.07V58.7155H158.846V58.1043ZM161.294 58.1043H162.519V58.7155H161.294V58.1043ZM163.743 58.1043H164.967V58.7155H163.743V58.1043ZM166.192 58.1043H167.416V58.7155H166.192V58.1043ZM168.64 58.1043H169.865V58.7155H168.64V58.1043ZM171.089 58.1043H172.313V58.7155H171.089V58.1043ZM173.538 58.1043H174.762V58.7155H173.538V58.1043ZM175.986 58.1043H177.21V58.7155H175.986V58.1043ZM178.435 58.1043H179.659V58.7155H178.435V58.1043ZM180.883 58.1043L182.108 58.1043V58.7155H180.883V58.1043ZM183.332 58.1043H184.556V58.7155H183.332V58.1043ZM185.781 58.1043H187.005V58.7155H185.781V58.1043ZM188.229 58.1043H189.453V58.7155H188.229V58.1043ZM190.678 58.1043H191.902V58.7155H190.678V58.1043ZM193.126 58.1043H194.351V58.7155H193.126V58.1043ZM195.575 58.1043H196.799V58.7155H195.575V58.1043ZM198.024 58.1043H199.248V58.7155H198.024V58.1043ZM200.472 58.1043H201.696V58.7155H200.472V58.1043ZM202.921 58.1043H204.145V58.7155H202.921V58.1043ZM205.369 58.1043L206.594 58.1043V58.7155H205.369V58.1043ZM207.818 58.1043H209.042V58.7155H207.818V58.1043ZM210.267 58.1043H211.491V58.7155H210.267V58.1043ZM212.715 58.1043H213.94V58.7155H212.715V58.1043ZM215.164 58.1043H216.388V58.7155H215.164V58.1043ZM217.612 58.1043H218.837V58.7155H217.612V58.1043ZM220.061 58.1043H221.285V58.7155H220.061V58.1043ZM222.51 58.1043H223.734V58.7155H222.51V58.1043ZM224.958 58.1043H226.183V58.7155H224.958V58.1043ZM227.407 58.1043H228.631V58.7155L227.407 58.7155V58.1043ZM229.855 58.1043H231.08V58.7155H229.855V58.1043ZM232.304 58.1043H233.528V58.7155H232.304V58.1043ZM234.753 58.1043H235.977V58.7155H234.753V58.1043ZM237.201 58.1043H238.426V58.7155H237.201V58.1043ZM239.65 58.1043H240.874V58.7155H239.65V58.1043ZM242.099 58.1043H243.323V58.7155H242.099V58.1043ZM244.547 58.1043H245.771V58.7155H244.547V58.1043ZM246.996 58.1043L248.22 58.1043V58.7155L246.996 58.7155V58.1043ZM249.444 58.1043H250.669V58.7155H249.444V58.1043ZM251.893 58.1043H253.117V58.7155L251.893 58.7155V58.1043ZM254.342 58.1043H255.566V58.7155H254.342V58.1043ZM256.79 58.1043H258.014V58.7155H256.79V58.1043ZM259.239 58.1043H260.463V58.7155H259.239V58.1043ZM261.687 58.1043H262.912V58.7155H261.687V58.1043ZM264.136 58.1043H265.36V58.7155H264.136V58.1043ZM266.585 58.1043H267.809V58.7155H266.585V58.1043ZM269.033 58.1043H270.258V58.7155H269.033V58.1043ZM271.482 58.1043H272.706V58.7155H271.482V58.1043ZM273.93 58.1043H275.155V58.7155H273.93V58.1043ZM276.379 58.1043H277.603V58.7155H276.379V58.1043ZM278.828 58.1043H280.052V58.7155H278.828V58.1043ZM281.276 58.1043L282.501 58.1043V58.7155H281.276V58.1043ZM283.725 58.1043H284.949V58.7155H283.725V58.1043ZM286.173 58.1043H287.398V58.7155H286.173V58.1043ZM288.622 58.1043H289.846V58.7155H288.622V58.1043ZM291.071 58.1043H292.295V58.7155H291.071V58.1043ZM293.519 58.1043H294.744V58.7155H293.519V58.1043ZM295.968 58.1043H297.192V58.7155H295.968V58.1043ZM298.417 58.1043H299.641V58.7155H298.417V58.1043ZM300.865 58.1043H302.089V58.7155H300.865V58.1043ZM303.314 58.1043H304.538V58.7155H303.314V58.1043ZM305.762 58.1043L306.987 58.1043V58.7155L305.762 58.7155V58.1043ZM308.211 58.1043H309.435V58.7155H308.211V58.1043ZM310.66 58.1043H311.884V58.7155H310.66V58.1043ZM313.108 58.1043H314.332V58.7155H313.108V58.1043ZM315.557 58.1043H316.781V58.7155H315.557V58.1043ZM318.005 58.1043H319.23V58.7155H318.005V58.1043ZM320.454 58.1043H321.678V58.7155H320.454V58.1043ZM322.903 58.1043H324.127V58.7155H322.903V58.1043ZM325.351 58.1043H326.576V58.7155H325.351V58.1043ZM327.8 58.1043H329.024V58.7155H327.8V58.1043ZM330.248 58.1043H331.473V58.7155H330.248V58.1043ZM332.697 58.1043H333.921V58.7155H332.697V58.1043ZM335.146 58.1043H336.37V58.7155H335.146V58.1043ZM337.594 58.1043H338.819V58.7155H337.594V58.1043ZM340.043 58.1043H341.267V58.7155H340.043V58.1043ZM342.491 58.1043H343.716V58.7155H342.491V58.1043ZM344.94 58.1043H346.164V58.7155H344.94V58.1043ZM347.389 58.1043H348.613V58.7155H347.389V58.1043ZM349.837 58.1043H351.062V58.7155H349.837V58.1043ZM352.286 58.1043H353.51V58.7155L352.286 58.7155V58.1043ZM354.734 58.1043H355.959V58.7155H354.734V58.1043ZM357.183 58.1043H358.407V58.7155H357.183V58.1043ZM359.632 58.1043H360.856V58.7155H359.632V58.1043ZM362.08 58.1043H363.305V58.7155H362.08V58.1043ZM364.529 58.1043H365.753V58.7155H364.529V58.1043ZM366.978 58.1043H368.202V58.7155H366.978V58.1043ZM369.426 58.1043H370.65V58.7155H369.426V58.1043ZM371.875 58.1043H373.099V58.7155H371.875V58.1043ZM374.323 58.1043H375.548V58.7155H374.323V58.1043ZM376.772 58.1043H377.996V58.7155L376.772 58.7155V58.1043ZM379.221 58.1043H379.832V58.7155H379.221V58.1043ZM379.832 58.1043C380.04 58.1043 380.247 58.111 380.452 58.1242L380.413 58.7342C380.221 58.7218 380.027 58.7155 379.832 58.7155V58.1043ZM381.681 58.2846C382.09 58.3656 382.49 58.4729 382.878 58.6048L382.682 59.1835C382.319 59.0602 381.945 58.9599 381.562 58.8842L381.681 58.2846ZM384.023 59.0795C384.395 59.2633 384.754 59.4709 385.096 59.7001L384.756 60.208C384.436 59.9935 384.1 59.7994 383.752 59.6275L384.023 59.0795ZM386.079 60.4552C386.389 60.7279 386.682 61.0206 386.955 61.3313L386.495 61.7345C386.24 61.4437 385.966 61.1698 385.675 60.9145L386.079 60.4552ZM387.71 62.3139C387.939 62.6564 388.147 63.0146 388.33 63.3867L387.782 63.6574C387.61 63.3094 387.416 62.9743 387.202 62.6539L387.71 62.3139ZM388.805 64.5316C388.937 64.9201 389.044 65.3199 389.125 65.7292L388.526 65.8479C388.45 65.4651 388.35 65.0912 388.226 64.728L388.805 64.5316ZM389.286 66.9579C389.299 67.1628 389.306 67.3695 389.306 67.5778H388.694C388.694 67.3827 388.688 67.1892 388.676 66.9973L389.286 66.9579ZM389.306 67.5778V68.201H388.694V67.5778H389.306ZM389.306 69.4475V70.6939H388.694V69.4475H389.306ZM389.306 71.9404V73.1869H388.694V71.9404H389.306ZM389.306 74.4333V75.6798H388.694V74.4333H389.306ZM389.306 76.9263V78.1727H388.694V76.9263H389.306ZM389.306 79.4192V80.6657H388.694V79.4192H389.306ZM389.306 81.9121V83.1586H388.694V81.9121H389.306ZM389.306 84.405V85.6515H388.694V84.405H389.306ZM389.306 86.898V88.1444H388.694V86.898H389.306ZM389.306 89.3909V90.6374H388.694V89.3909H389.306ZM389.306 91.8838V93.1303H388.694V91.8838H389.306ZM389.306 94.3768V95H388.694V94.3768H389.306Z" fill="white"/>
</svg>
