<svg width="559" height="559" viewBox="0 0 559 559" fill="none" xmlns="http://www.w3.org/2000/svg">
<path d="M559 279.5C559 433.864 433.864 559 279.5 559C125.136 559 0 433.864 0 279.5C0 125.136 125.136 0 279.5 0C433.864 0 559 125.136 559 279.5Z" fill="black" fill-opacity="0.07"/>
<path fill-rule="evenodd" clip-rule="evenodd" d="M558.978 283.056L545.956 282.894C545.97 281.764 545.977 280.633 545.977 279.5C545.977 278.367 545.97 277.236 545.956 276.106L558.978 275.944C558.993 277.127 559 278.313 559 279.5C559 280.687 558.993 281.872 558.978 283.056ZM558.801 268.864L545.787 269.35C545.703 267.095 545.59 264.846 545.45 262.605L558.448 261.793C558.595 264.142 558.713 266.499 558.801 268.864ZM557.917 254.73L544.944 255.869C544.747 253.622 544.521 251.382 544.269 249.152L557.209 247.686C557.474 250.025 557.711 252.373 557.917 254.73ZM556.323 240.658L543.424 242.452C543.113 240.218 542.775 237.994 542.409 235.779L555.259 233.659C555.642 235.982 555.997 238.316 556.323 240.658ZM554.017 226.686L541.226 229.132C540.802 226.918 540.352 224.714 539.874 222.52L552.599 219.749C553.1 222.051 553.573 224.363 554.017 226.686ZM551.004 212.849L538.354 215.944C537.818 213.755 537.255 211.576 536.666 209.409L549.233 205.992C549.852 208.266 550.442 210.552 551.004 212.849ZM547.289 199.184L534.813 202.92C534.166 200.762 533.493 198.615 532.794 196.479L545.17 192.425C545.904 194.666 546.61 196.919 547.289 199.184ZM542.88 185.726L530.612 190.095C529.856 187.972 529.074 185.862 528.266 183.764L540.419 179.084C541.267 181.285 542.087 183.499 542.88 185.726ZM537.791 172.511L525.761 177.499C524.898 175.418 524.01 173.35 523.096 171.296L534.994 166.002C535.953 168.157 536.886 170.327 537.791 172.511ZM532.035 159.572L520.275 165.167C519.307 163.132 518.314 161.112 517.296 159.106L528.91 153.213C529.978 155.318 531.02 157.437 532.035 159.572ZM525.628 146.942L514.167 153.128C513.097 151.145 512.003 149.177 510.884 147.225L522.184 140.751C523.357 142.798 524.505 144.862 525.628 146.942ZM518.588 134.654L507.455 141.413C506.286 139.487 505.093 137.577 503.877 135.684L514.834 128.645C516.11 130.631 517.361 132.634 518.588 134.654ZM510.933 122.738L500.157 130.051C498.892 128.187 497.604 126.34 496.294 124.51L506.881 116.927C508.256 118.846 509.607 120.783 510.933 122.738ZM502.686 111.223L492.293 119.072C490.936 117.274 489.557 115.495 488.155 113.733L498.347 105.625C499.816 107.472 501.263 109.339 502.686 111.223ZM493.869 100.14L483.885 108.502C482.439 106.776 480.972 105.068 479.483 103.38L489.253 94.7684C490.814 96.5392 492.353 98.3299 493.869 100.14ZM484.504 89.5154L474.954 98.3699C473.423 96.7188 471.872 95.0872 470.3 93.4754L479.624 84.3832C481.272 86.0732 482.899 87.7841 484.504 89.5154ZM474.617 79.3757L465.525 88.6998C463.913 87.1281 462.281 85.5766 460.63 84.0458L469.485 74.4957C471.216 76.1009 472.927 77.7277 474.617 79.3757ZM464.232 69.7469L455.62 79.5169C453.932 78.0284 452.224 76.561 450.498 75.1151L458.86 65.1312C460.67 66.6474 462.461 68.1861 464.232 69.7469ZM453.375 60.6533L445.267 70.8448C443.505 69.4434 441.726 68.0639 439.928 66.7067L447.777 56.3139C449.661 57.7372 451.528 59.1838 453.375 60.6533ZM442.073 52.1187L434.49 62.7064C432.66 61.3957 430.813 60.1077 428.949 58.8427L436.262 48.0668C438.217 49.3935 440.154 50.7443 442.073 52.1187ZM430.355 44.1658L423.316 55.1233C421.423 53.9069 419.513 52.7138 417.587 51.5446L424.346 40.4123C426.366 41.6388 428.369 42.8901 430.355 44.1658ZM418.249 36.8161L411.775 48.116C409.823 46.9974 407.855 45.9029 405.872 44.8327L412.058 33.372C414.138 34.4946 416.202 35.6428 418.249 36.8161ZM405.787 30.0897L399.894 41.7038C397.888 40.6861 395.868 39.6931 393.833 38.7251L399.428 26.9648C401.563 27.9803 403.682 29.0221 405.787 30.0897ZM392.998 24.0056L387.704 35.9044C385.65 34.9904 383.582 34.1017 381.501 33.2386L386.489 21.2086C388.673 22.1142 390.843 23.0466 392.998 24.0056ZM379.916 18.5806L375.236 30.7338C373.138 29.9261 371.028 29.1441 368.905 28.3882L373.274 16.1195C375.501 16.9125 377.715 17.733 379.916 18.5806ZM366.575 13.83L362.521 26.2063C360.385 25.5069 358.238 24.8337 356.08 24.1872L359.816 11.7114C362.081 12.3898 364.334 13.0961 366.575 13.83ZM353.008 9.76675L349.591 22.3339C347.424 21.7446 345.245 21.182 343.056 20.6464L346.151 7.99618C348.448 8.55811 350.733 9.14843 353.008 9.76675ZM339.251 6.40119L336.48 19.1262C334.286 18.6484 332.082 18.1976 329.868 17.7742L332.314 4.98272C334.637 5.42692 336.949 5.89988 339.251 6.40119ZM325.341 3.741L323.221 16.5906C321.006 16.2251 318.782 15.8869 316.548 15.5764L318.342 2.67719C320.684 3.00288 323.018 3.35761 325.341 3.741ZM311.314 1.79076L309.848 14.7313C307.617 14.4785 305.378 14.2533 303.131 14.056L304.27 1.08259C306.627 1.28952 308.975 1.5257 311.314 1.79076ZM297.207 0.55182L296.394 13.5497C294.154 13.4097 291.905 13.2972 289.649 13.2128L290.136 0.198646C292.501 0.287115 294.858 0.404958 297.207 0.55182ZM283.056 0.0221578C281.872 0.00740046 280.687 0 279.5 0C278.313 0 277.127 0.00740116 275.944 0.0221599L276.106 13.0444C277.236 13.0304 278.367 13.0233 279.5 13.0233C280.633 13.0233 281.764 13.0304 282.894 13.0444L283.056 0.0221578ZM268.864 0.198653L269.35 13.2128C267.095 13.2972 264.846 13.4097 262.605 13.5498L261.793 0.55183C264.142 0.404967 266.499 0.287123 268.864 0.198653ZM254.73 1.0826L255.869 14.056C253.622 14.2533 251.382 14.4785 249.152 14.7313L247.686 1.79077C250.025 1.52571 252.373 1.28954 254.73 1.0826ZM240.658 2.67721L242.452 15.5764C240.218 15.8869 237.994 16.2251 235.779 16.5906L233.659 3.74102C235.982 3.35763 238.316 3.0029 240.658 2.67721ZM226.686 4.98274L229.132 17.7742C226.918 18.1976 224.714 18.6484 222.52 19.1262L219.749 6.40121C222.051 5.8999 224.363 5.42694 226.686 4.98274ZM212.849 7.9962L215.944 20.6464C213.755 21.182 211.576 21.7446 209.409 22.3339L205.992 9.76676C208.266 9.14845 210.552 8.55813 212.849 7.9962ZM199.184 11.7114L202.92 24.1872C200.762 24.8338 198.615 25.5069 196.479 26.2063L192.425 13.83C194.666 13.0962 196.919 12.3898 199.184 11.7114ZM185.726 16.1195L190.095 28.3882C187.972 29.1441 185.862 29.9261 183.764 30.7339L179.084 18.5806C181.285 17.7331 183.499 16.9125 185.726 16.1195ZM172.511 21.2086L177.499 33.2386C175.418 34.1017 173.35 34.9904 171.296 35.9044L166.002 24.0056C168.157 23.0466 170.327 22.1142 172.511 21.2086ZM159.572 26.9648L165.167 38.7251C163.132 39.6931 161.112 40.6861 159.106 41.7038L153.213 30.0898C155.318 29.0221 157.437 27.9803 159.572 26.9648ZM146.942 33.372L153.128 44.8327C151.145 45.9029 149.177 46.9974 147.225 48.116L140.751 36.8161C142.798 35.6428 144.862 34.4946 146.942 33.372ZM134.654 40.4123L141.413 51.5446C139.487 52.7138 137.577 53.9069 135.684 55.1232L128.645 44.1658C130.631 42.8901 132.634 41.6387 134.654 40.4123ZM122.738 48.0668L130.051 58.8427C128.187 60.1077 126.34 61.3957 124.51 62.7063L116.927 52.1187C118.846 50.7442 120.783 49.3934 122.738 48.0668ZM111.223 56.3138C109.339 57.7371 107.472 59.1837 105.625 60.6532L113.733 70.8447C115.495 69.4434 117.274 68.0639 119.072 66.7066L111.223 56.3138ZM100.14 65.1311C98.3299 66.6473 96.5392 68.186 94.7684 69.7468L103.38 79.5168C105.068 78.0283 106.776 76.561 108.502 75.115L100.14 65.1311ZM89.5154 74.4956L98.3699 84.0457C96.7188 85.5765 95.0872 87.128 93.4754 88.6997L84.3832 79.3757C86.0732 77.7276 87.7841 76.1008 89.5154 74.4956ZM79.3757 84.3831L88.6998 93.4753C87.1281 95.0871 85.5766 96.7188 84.0458 98.3698L74.4957 89.5153C76.1009 87.784 77.7277 86.0732 79.3757 84.3831ZM69.7469 94.7683L79.5169 103.38C78.0284 105.068 76.561 106.776 75.1151 108.502L65.1312 100.14C66.6474 98.3298 68.1861 96.5391 69.7469 94.7683ZM60.6533 105.625L70.8448 113.733C69.4434 115.495 68.0639 117.274 66.7067 119.072L56.3139 111.223C57.7371 109.339 59.1838 107.472 60.6533 105.625ZM52.1187 116.927L62.7064 124.51C61.3957 126.34 60.1077 128.187 58.8427 130.051L48.0668 122.738C49.3935 120.783 50.7443 118.846 52.1187 116.927ZM44.1658 128.645L55.1233 135.684C53.9069 137.577 52.7138 139.487 51.5446 141.413L40.4123 134.654C41.6388 132.634 42.8901 130.631 44.1658 128.645ZM36.8161 140.751L48.116 147.225C46.9974 149.177 45.9029 151.145 44.8327 153.128L33.372 146.942C34.4946 144.862 35.6428 142.798 36.8161 140.751ZM30.0897 153.213L41.7038 159.106C40.6861 161.112 39.6931 163.132 38.7251 165.167L26.9648 159.572C27.9803 157.437 29.0221 155.318 30.0897 153.213ZM24.0056 166.002L35.9044 171.296C34.9904 173.35 34.1017 175.418 33.2386 177.499L21.2086 172.511C22.1142 170.327 23.0466 168.157 24.0056 166.002ZM18.5806 179.084L30.7338 183.764C29.9261 185.862 29.1441 187.972 28.3882 190.095L16.1195 185.726C16.9125 183.499 17.733 181.285 18.5806 179.084ZM13.83 192.425L26.2063 196.479C25.5069 198.615 24.8337 200.762 24.1872 202.92L11.7114 199.184C12.3898 196.919 13.0961 194.666 13.83 192.425ZM9.76675 205.992L22.3339 209.409C21.7446 211.576 21.182 213.755 20.6464 215.944L7.99618 212.849C8.55811 210.552 9.14843 208.267 9.76675 205.992ZM6.4012 219.749L19.1262 222.52C18.6484 224.714 18.1976 226.918 17.7742 229.132L4.98272 226.686C5.42693 224.363 5.89988 222.051 6.4012 219.749ZM3.741 233.659L16.5906 235.779C16.2251 237.994 15.8869 240.218 15.5764 242.452L2.67719 240.658C3.00288 238.316 3.35761 235.982 3.741 233.659ZM1.79076 247.686L14.7313 249.152C14.4785 251.383 14.2533 253.622 14.056 255.869L1.08259 254.73C1.28952 252.373 1.5257 250.025 1.79076 247.686ZM0.55182 261.793L13.5497 262.606C13.4097 264.846 13.2972 267.095 13.2128 269.351L0.198646 268.864C0.287115 266.499 0.404958 264.142 0.55182 261.793ZM0.0221578 275.944C0.00740046 277.128 0 278.313 0 279.5C0 280.687 0.00740116 281.873 0.0221599 283.056L13.0444 282.894C13.0304 281.764 13.0233 280.633 13.0233 279.5C13.0233 278.367 13.0304 277.236 13.0444 276.106L0.0221578 275.944ZM0.198653 290.136L13.2128 289.65C13.2972 291.905 13.4097 294.154 13.5498 296.395L0.55183 297.207C0.404967 294.858 0.287123 292.501 0.198653 290.136ZM1.0826 304.27L14.056 303.131C14.2533 305.378 14.4785 307.618 14.7313 309.848L1.79077 311.314C1.52571 308.975 1.28954 306.627 1.0826 304.27ZM2.67721 318.342L15.5764 316.548C15.8869 318.782 16.2251 321.006 16.5906 323.221L3.74102 325.341C3.35763 323.018 3.0029 320.684 2.67721 318.342ZM4.98274 332.314L17.7742 329.868C18.1976 332.082 18.6484 334.286 19.1262 336.48L6.40121 339.251C5.8999 336.949 5.42694 334.637 4.98274 332.314ZM7.99619 346.151L20.6464 343.056C21.182 345.245 21.7446 347.424 22.3339 349.591L9.76676 353.008C9.14845 350.734 8.55813 348.448 7.99619 346.151ZM11.7114 359.816L24.1872 356.08C24.8338 358.238 25.5069 360.385 26.2063 362.521L13.83 366.575C13.0962 364.334 12.3898 362.081 11.7114 359.816ZM16.1195 373.274L28.3882 368.905C29.1441 371.028 29.9261 373.138 30.7339 375.236L18.5806 379.916C17.7331 377.715 16.9125 375.501 16.1195 373.274ZM21.2086 386.489L33.2386 381.501C34.1017 383.582 34.9904 385.65 35.9044 387.704L24.0056 392.998C23.0466 390.843 22.1142 388.673 21.2086 386.489ZM26.9648 399.428L38.7251 393.833C39.6931 395.868 40.6861 397.888 41.7038 399.894L30.0898 405.787C29.0221 403.682 27.9803 401.563 26.9648 399.428ZM33.372 412.058L44.8327 405.872C45.9029 407.855 46.9974 409.823 48.116 411.775L36.8161 418.249C35.6428 416.202 34.4946 414.138 33.372 412.058ZM40.4123 424.346L51.5446 417.587C52.7138 419.513 53.9069 421.423 55.1232 423.316L44.1658 430.355C42.8901 428.369 41.6387 426.366 40.4123 424.346ZM48.0668 436.262L58.8427 428.949C60.1077 430.813 61.3957 432.66 62.7063 434.49L52.1187 442.073C50.7442 440.154 49.3934 438.217 48.0668 436.262ZM56.3138 447.777L66.7066 439.928C68.0639 441.726 69.4434 443.505 70.8447 445.267L60.6532 453.375C59.1837 451.528 57.7371 449.661 56.3138 447.777ZM65.1311 458.86L75.115 450.498C76.561 452.224 78.0283 453.932 79.5168 455.62L69.7468 464.232C68.186 462.461 66.6473 460.67 65.1311 458.86ZM74.4956 469.485L84.0457 460.63C85.5765 462.281 87.128 463.913 88.6997 465.525L79.3757 474.617C77.7276 472.927 76.1008 471.216 74.4956 469.485ZM84.3831 479.624L93.4753 470.3C95.0871 471.872 96.7188 473.423 98.3698 474.954L89.5153 484.504C87.784 482.899 86.0732 481.272 84.3831 479.624ZM94.7683 489.253C96.5391 490.814 98.3298 492.353 100.14 493.869L108.502 483.885C106.776 482.439 105.068 480.972 103.38 479.483L94.7683 489.253ZM105.625 498.347L113.733 488.155C115.495 489.557 117.274 490.936 119.072 492.293L111.223 502.686C109.339 501.263 107.472 499.816 105.625 498.347ZM116.927 506.881L124.51 496.294C126.34 497.604 128.187 498.892 130.051 500.157L122.738 510.933C120.783 509.607 118.846 508.256 116.927 506.881ZM128.645 514.834L135.684 503.877C137.577 505.093 139.487 506.286 141.413 507.455L134.654 518.588C132.634 517.361 130.631 516.11 128.645 514.834ZM140.751 522.184L147.225 510.884C149.177 512.003 151.145 513.097 153.128 514.167L146.942 525.628C144.862 524.505 142.798 523.357 140.751 522.184ZM153.213 528.91L159.106 517.296C161.112 518.314 163.132 519.307 165.167 520.275L159.572 532.035C157.437 531.02 155.318 529.978 153.213 528.91ZM166.002 534.994L171.296 523.096C173.35 524.01 175.418 524.898 177.499 525.761L172.511 537.791C170.327 536.886 168.157 535.953 166.002 534.994ZM179.084 540.419L183.764 528.266C185.862 529.074 187.972 529.856 190.095 530.612L185.726 542.881C183.499 542.087 181.285 541.267 179.084 540.419ZM192.425 545.17L196.479 532.794C198.615 533.493 200.762 534.166 202.92 534.813L199.184 547.289C196.919 546.61 194.666 545.904 192.425 545.17ZM205.992 549.233L209.409 536.666C211.576 537.255 213.755 537.818 215.944 538.354L212.849 551.004C210.552 550.442 208.267 549.852 205.992 549.233ZM219.749 552.599L222.52 539.874C224.714 540.352 226.918 540.802 229.132 541.226L226.686 554.017C224.363 553.573 222.051 553.1 219.749 552.599ZM233.659 555.259L235.779 542.409C237.994 542.775 240.218 543.113 242.452 543.424L240.658 556.323C238.316 555.997 235.982 555.642 233.659 555.259ZM247.686 557.209L249.152 544.269C251.383 544.521 253.622 544.747 255.869 544.944L254.73 557.917C252.373 557.711 250.025 557.474 247.686 557.209ZM261.793 558.448L262.606 545.45C264.846 545.59 267.095 545.703 269.351 545.787L268.864 558.801C266.499 558.713 264.142 558.595 261.793 558.448ZM275.944 558.978L276.106 545.956C277.236 545.97 278.367 545.977 279.5 545.977C280.633 545.977 281.764 545.97 282.894 545.956L283.056 558.978C281.873 558.993 280.687 559 279.5 559C278.313 559 277.128 558.993 275.944 558.978ZM290.136 558.801L289.65 545.787C291.905 545.703 294.154 545.59 296.395 545.45L297.207 558.448C294.858 558.595 292.501 558.713 290.136 558.801ZM304.27 557.917L303.131 544.944C305.378 544.747 307.618 544.521 309.848 544.269L311.314 557.209C308.975 557.474 306.627 557.711 304.27 557.917ZM318.342 556.323L316.548 543.424C318.782 543.113 321.006 542.775 323.221 542.409L325.341 555.259C323.018 555.642 320.684 555.997 318.342 556.323ZM332.314 554.017C334.637 553.573 336.949 553.1 339.251 552.599L336.48 539.874C334.286 540.352 332.082 540.802 329.868 541.226L332.314 554.017ZM346.151 551.004L343.056 538.354C345.245 537.818 347.424 537.255 349.591 536.666L353.008 549.233C350.734 549.852 348.448 550.442 346.151 551.004ZM359.816 547.289L356.08 534.813C358.238 534.166 360.385 533.493 362.521 532.794L366.575 545.17C364.334 545.904 362.081 546.61 359.816 547.289ZM373.274 542.88L368.905 530.612C371.028 529.856 373.138 529.074 375.236 528.266L379.916 540.419C377.715 541.267 375.501 542.087 373.274 542.88ZM386.489 537.791L381.501 525.761C383.582 524.898 385.65 524.01 387.704 523.096L392.998 534.994C390.843 535.953 388.673 536.886 386.489 537.791ZM399.428 532.035L393.833 520.275C395.868 519.307 397.888 518.314 399.894 517.296L405.787 528.91C403.682 529.978 401.563 531.02 399.428 532.035ZM412.058 525.628L405.872 514.167C407.855 513.097 409.823 512.003 411.775 510.884L418.249 522.184C416.202 523.357 414.138 524.505 412.058 525.628ZM424.346 518.588L417.587 507.455C419.513 506.286 421.423 505.093 423.316 503.877L430.355 514.834C428.369 516.11 426.366 517.361 424.346 518.588ZM436.262 510.933L428.949 500.157C430.813 498.892 432.66 497.604 434.49 496.294L442.073 506.881C440.154 508.256 438.217 509.607 436.262 510.933ZM447.777 502.686L439.928 492.293C441.726 490.936 443.505 489.557 445.267 488.155L453.375 498.347C451.527 499.816 449.661 501.263 447.777 502.686ZM458.86 493.869L450.498 483.885C452.224 482.439 453.932 480.972 455.62 479.483L464.232 489.253C462.461 490.814 460.67 492.353 458.86 493.869ZM469.485 484.504L460.63 474.954C462.281 473.423 463.913 471.872 465.525 470.3L474.617 479.624C472.927 481.272 471.216 482.899 469.485 484.504ZM479.624 474.617L470.3 465.525C471.872 463.913 473.423 462.281 474.954 460.63L484.504 469.485C482.899 471.216 481.272 472.927 479.624 474.617ZM489.253 464.232L479.483 455.62C480.972 453.932 482.439 452.224 483.885 450.498L493.869 458.86C492.353 460.67 490.814 462.461 489.253 464.232ZM498.347 453.375L488.155 445.267C489.557 443.505 490.936 441.726 492.293 439.928L502.686 447.777C501.263 449.661 499.816 451.528 498.347 453.375ZM506.881 442.073L496.294 434.49C497.604 432.66 498.892 430.813 500.157 428.949L510.933 436.262C509.607 438.217 508.256 440.154 506.881 442.073ZM514.834 430.355L503.877 423.316C505.093 421.423 506.286 419.513 507.455 417.587L518.588 424.346C517.361 426.366 516.11 428.369 514.834 430.355ZM522.184 418.249L510.884 411.775C512.003 409.823 513.097 407.855 514.167 405.872L525.628 412.058C524.505 414.138 523.357 416.202 522.184 418.249ZM528.91 405.787L517.296 399.894C518.314 397.888 519.307 395.868 520.275 393.833L532.035 399.428C531.02 401.563 529.978 403.682 528.91 405.787ZM534.994 392.998L523.096 387.704C524.01 385.65 524.898 383.582 525.761 381.501L537.791 386.489C536.886 388.673 535.953 390.843 534.994 392.998ZM540.419 379.916L528.266 375.236C529.074 373.138 529.856 371.028 530.612 368.905L542.881 373.274C542.087 375.501 541.267 377.715 540.419 379.916ZM545.17 366.575L532.794 362.521C533.493 360.385 534.166 358.238 534.813 356.08L547.289 359.816C546.61 362.081 545.904 364.334 545.17 366.575ZM549.233 353.008L536.666 349.591C537.255 347.424 537.818 345.245 538.354 343.056L551.004 346.151C550.442 348.448 549.852 350.733 549.233 353.008ZM552.599 339.251L539.874 336.48C540.352 334.286 540.802 332.082 541.226 329.868L554.017 332.314C553.573 334.637 553.1 336.949 552.599 339.251ZM555.259 325.341L542.409 323.221C542.775 321.006 543.113 318.782 543.424 316.548L556.323 318.342C555.997 320.684 555.642 323.017 555.259 325.341ZM557.209 311.314L544.269 309.848C544.521 307.617 544.747 305.378 544.944 303.131L557.917 304.27C557.711 306.627 557.474 308.975 557.209 311.314ZM558.448 297.207L545.45 296.394C545.59 294.154 545.703 291.905 545.787 289.649L558.801 290.136C558.713 292.501 558.595 294.858 558.448 297.207Z" fill="black" fill-opacity="0.05"/>
<g filter="url(#filter0_i_191_3018)">
<circle cx="279.5" cy="279.5" r="225.403" fill="white" fill-opacity="0.01"/>
</g>
<circle cx="279.5" cy="279.5" r="228.396" stroke="url(#paint0_linear_191_3018)" stroke-width="5.98501"/>
<defs>
<filter id="filter0_i_191_3018" x="48.1118" y="48.1118" width="462.776" height="466.784" filterUnits="userSpaceOnUse" color-interpolation-filters="sRGB">
<feFlood flood-opacity="0" result="BackgroundImageFix"/>
<feBlend mode="normal" in="SourceGraphic" in2="BackgroundImageFix" result="shape"/>
<feColorMatrix in="SourceAlpha" type="matrix" values="0 0 0 0 0 0 0 0 0 0 0 0 0 0 0 0 0 0 127 0" result="hardAlpha"/>
<feOffset dy="4.00717"/>
<feGaussianBlur stdDeviation="42.0753"/>
<feComposite in2="hardAlpha" operator="arithmetic" k2="-1" k3="1"/>
<feColorMatrix type="matrix" values="0 0 0 0 0 0 0 0 0 0 0 0 0 0 0 0 0 0 0.35 0"/>
<feBlend mode="normal" in2="shape" result="effect1_innerShadow_191_3018"/>
</filter>
<linearGradient id="paint0_linear_191_3018" x1="504.903" y1="601.075" x2="206.369" y2="38.0681" gradientUnits="userSpaceOnUse">
<stop stop-color="white"/>
<stop offset="1" stop-color="white" stop-opacity="0"/>
</linearGradient>
</defs>
</svg>
