<?xml version="1.0" encoding="UTF-8"?>
<svg id="Calque_2" data-name="Calque 2" xmlns="http://www.w3.org/2000/svg" viewBox="0 0 1064.77 279.65">
  <defs>
    <style>
      .cls-1 {
        fill: #fff;
      }

      .cls-2 {
        fill: #b5cd30;
      }

      .cls-3 {
        fill: #b3cb2c;
      }

      .cls-4 {
        fill: none;
      }
    </style>
  </defs>
  <g id="Calque_1-2" data-name="Calque 1">
    <g>
      <path class="cls-3" d="m231.11,25.25h-27.73c-1.57,0-2.83,1.27-2.83,2.83v5.95c0,1.57,1.27,2.83,2.83,2.83h23.72c1.57,0,2.83,1.27,2.83,2.83v16.64c0,1.57-1.27,2.83-2.83,2.83h-23.72c-1.57,0-2.83,1.27-2.83,2.83v7.69c0,1.57,1.27,2.83,2.83,2.83h27.73c1.57,0,2.83,1.27,2.83,2.83v17.98c0,1.57-1.27,2.83-2.83,2.83h-57.39c-1.57,0-2.83-1.27-2.83-2.83V4.44c0-1.57,1.27-2.83,2.83-2.83h57.39c1.57,0,2.83,1.27,2.83,2.83v17.98c0,1.57-1.27,2.83-2.83,2.83Z"/>
      <g>
        <path class="cls-1" d="m46.76,96.86c23.67,0,40.14-13.43,45.1-33.81.43-1.77-.94-3.47-2.76-3.47-6.06,0-18.49,0-24.45,0-1.93,0-3.7,1-4.76,2.61-3.07,4.66-7.98,7.28-13.67,7.28-10.02,0-16.17-8.15-16.17-20.71s6.15-20.71,16.17-20.71c6.15,0,11.39,3.05,14.37,8.43.5.9,1.44,1.46,2.47,1.46h26.04c1.82,0,3.2-1.7,2.77-3.47C86.9,14.09,70.43.67,46.76.67,17.77.67,0,20.58,0,48.77s17.77,48.1,46.76,48.1Z"/>
        <path class="cls-1" d="m242.55,96.19h25.02c1.23,0,2.31-.79,2.69-1.95l3.4-10.39c.38-1.17,1.47-1.95,2.69-1.95h27.42c1.23,0,2.31.79,2.69,1.95l3.4,10.39c.38,1.17,1.47,1.95,2.69,1.95h25.16c1.97,0,3.34-1.96,2.66-3.81L307.98,3.47c-.41-1.12-1.47-1.86-2.66-1.86h-30.24c-1.19,0-2.25.74-2.66,1.86l-32.53,88.92c-.68,1.85.69,3.81,2.66,3.81Zm40.17-40.32l4.65-14.31c.85-2.61,4.54-2.61,5.39,0l4.65,14.31c.59,1.83-.77,3.71-2.7,3.71h-9.3c-1.93,0-3.29-1.88-2.7-3.71Z"/>
        <path class="cls-1" d="m526.8,69.34c0,3.34-2.8,4.68-5.74,4.68-2.58,0-5.78-.93-6.89-5.87-.29-1.32-1.43-2.28-2.78-2.28h-25.93c-1.75,0-3.06,1.57-2.8,3.29,2.81,18.98,19.11,27.97,39.6,27.97,22.85,0,36.07-12.83,36.07-30.19,0-29.12-43.96-27.12-43.96-39.01,0-3.21,1.87-4.81,4.28-4.81,2.73,0,5.37,1.26,6.25,5.19.3,1.32,1.42,2.3,2.78,2.3h26.37c1.68,0,3.03-1.46,2.82-3.13-2.17-17.67-16.49-27.47-38.09-27.47-20.17,0-36.21,9.89-36.21,28.86-.53,32.33,44.09,27.66,44.22,40.48Z"/>
        <path class="cls-1" d="m561.13,96.19h25.02c1.23,0,2.31-.79,2.69-1.95l3.4-10.39c.38-1.17,1.47-1.95,2.69-1.95h27.42c1.23,0,2.31.79,2.69,1.95l3.4,10.39c.38,1.17,1.47,1.95,2.69,1.95h25.16c1.97,0,3.34-1.96,2.66-3.81L626.56,3.47c-.41-1.12-1.47-1.86-2.66-1.86h-30.24c-1.19,0-2.25.74-2.66,1.86l-32.53,88.92c-.68,1.85.69,3.81,2.66,3.81Zm40.17-40.32l4.65-14.31c.85-2.61,4.54-2.61,5.39,0l4.65,14.31c.59,1.83-.77,3.71-2.7,3.71h-9.3c-1.93,0-3.29-1.88-2.7-3.71Z"/>
        <path class="cls-1" d="m733.48,1.6h-73.96c-1.57,0-2.83,1.27-2.83,2.83v17.98c0,1.57,1.27,2.83,2.83,2.83h19.18c1.57,0,2.83,1.27,2.83,2.83v65.27c0,1.57,1.27,2.83,2.83,2.83h23.99c1.57,0,2.83-1.27,2.83-2.83V28.09c0-1.57,1.27-2.83,2.83-2.83h19.45c1.57,0,2.83-1.27,2.83-2.83V4.44c0-1.57-1.27-2.83-2.83-2.83Z"/>
        <path class="cls-1" d="m164.13,142.07h-46.63c-1.2,0-2.27.75-2.67,1.88l-25.56,71.46c-.89,2.5-4.42,2.51-5.33.02l-26.24-71.5c-.41-1.12-1.47-1.86-2.66-1.86H8.2c-1.57,0-2.83,1.27-2.83,2.83v128.77c0,1.57,1.27,2.83,2.83,2.83h36.49c1.57,0,2.83-1.27,2.83-2.83v-45.41c0-3.25,4.58-3.94,5.54-.84l14.54,47.08c.37,1.19,1.47,2,2.71,2h31.9c1.24,0,2.34-.81,2.71-2l14.54-47.08c.96-3.11,5.54-2.42,5.54.84v45.41c0,1.57,1.27,2.83,2.83,2.83h36.3c1.57,0,2.83-1.27,2.83-2.83v-128.77c0-1.57-1.27-2.83-2.83-2.83Z"/>
        <path class="cls-1" d="m582.29,142.07h-36.49c-1.57,0-2.83,1.27-2.83,2.83v56.33c0,2.82-3.68,3.91-5.21,1.54l-38.57-59.42c-.52-.81-1.42-1.29-2.38-1.29h-37.78c-1.57,0-2.83,1.27-2.83,2.83v128.77c0,1.57,1.27,2.83,2.83,2.83h36.49c1.57,0,2.83-1.27,2.83-2.83v-55.33c0-2.81,3.65-3.91,5.2-1.56l38.58,58.45c.52.79,1.41,1.27,2.37,1.27h37.8c1.57,0,2.83-1.27,2.83-2.83v-128.77c0-1.57-1.27-2.83-2.83-2.83Z"/>
        <path class="cls-1" d="m728.89,198.84h-64.08c-.76,0-1.49.31-2.03.85l-11.8,12.07c-1.08,1.1-1.08,2.86,0,3.96l11.8,12.07c.53.55,1.26.85,2.03.85h25.57c2.6,0,3.84,3.23,1.89,4.96-5.38,4.78-11.69,6.81-19.03,6.81-20.7,0-30.19-10.44-30.19-31.33,0-17.85,9.11-29.43,25.45-29.43,8.09,0,13.9,2.77,17.27,7.25.53.7,1.36,1.11,2.24,1.11h39.61c1.77,0,3.13-1.61,2.79-3.35-5.26-26.76-27.81-43.93-62.1-43.93-42.16,0-67.98,28.29-67.98,68.36s26.02,68.36,68.36,68.36c34.27,0,53.22-19.77,62.66-35.79.26-.44.39-.93.39-1.44v-38.55c0-1.57-1.27-2.83-2.83-2.83Z"/>
        <path class="cls-1" d="m373.21,142.07h-36.49c-1.57,0-2.83,1.27-2.83,2.83v56.33c0,2.82-3.68,3.91-5.21,1.54l-38.57-59.42c-.52-.81-1.42-1.29-2.38-1.29h-37.78c-1.57,0-2.83,1.27-2.83,2.83v128.77c0,1.57,1.27,2.83,2.83,2.83h36.49c1.57,0,2.83-1.27,2.83-2.83v-55.33c0-2.81,3.65-3.91,5.2-1.56l38.58,58.45c.52.79,1.41,1.27,2.37,1.27h37.8c1.57,0,2.83-1.27,2.83-2.83v-128.77c0-1.57-1.27-2.83-2.83-2.83Z"/>
        <path class="cls-1" d="m209.84,171.86c-1.56-1.52-4.05-1.52-5.6,0l-17.07,16.68c-.77.75-1.21,1.79-1.21,2.87v82.26c0,1.57,1.27,2.83,2.83,2.83h36.49c1.57,0,2.83-1.27,2.83-2.83v-82.26c0-1.08-.44-2.11-1.21-2.87l-17.07-16.68Z"/>
        <path class="cls-1" d="m418.92,171.86c-1.56-1.52-4.05-1.52-5.6,0l-17.07,16.68c-.77.75-1.21,1.79-1.21,2.87v82.26c0,1.57,1.27,2.83,2.83,2.83h36.49c1.57,0,2.83-1.27,2.83-2.83v-82.26c0-1.08-.44-2.11-1.21-2.87l-17.07-16.68Z"/>
        <path class="cls-1" d="m434.36,142.07h-36.49c-1.57,0-2.83,1.27-2.83,2.83v26.33c0,2.51,3.02,3.78,4.82,2.03l13.46-13.15c1.56-1.52,4.05-1.52,5.6,0l13.46,13.16c1.79,1.75,4.82.48,4.82-2.03v-26.34c0-1.57-1.27-2.83-2.83-2.83Z"/>
        <path class="cls-1" d="m351.29,96.19h23.99c1.57,0,2.83-1.27,2.83-2.83v-35.29c0-2.81,3.65-3.91,5.2-1.56l25.36,38.41c.52.79,1.41,1.27,2.37,1.27h.47s0,0,0,0h25.67c1.1,0,1.99-.89,1.99-1.99v-57.88c0-.76-.31-1.49-.85-2.02l-12.01-11.74c-1.1-1.07-2.85-1.07-3.94,0l-12.01,11.74c-.54.53-.85,1.26-.85,2.02v4.07c0,2.82-3.68,3.91-5.21,1.54l-25.35-39.04c-.52-.81-1.42-1.29-2.38-1.29h-25.29c-1.57,0-2.83,1.27-2.83,2.83v88.92c0,1.57,1.27,2.83,2.83,2.83Z"/>
        <path class="cls-1" d="m412.9,23.55l9.47-9.25c1.1-1.07,2.85-1.07,3.94,0l9.47,9.26c1.26,1.23,3.39.34,3.39-1.43V3.6c0-1.1-.89-1.99-1.99-1.99h-25.67c-1.1,0-1.99.89-1.99,1.99v18.53c0,1.77,2.12,2.66,3.39,1.43Z"/>
        <path class="cls-1" d="m225.28,142.07h-36.49c-1.57,0-2.83,1.27-2.83,2.83v26.33c0,2.51,3.02,3.78,4.82,2.03l13.46-13.15c1.56-1.52,4.05-1.52,5.6,0l13.46,13.16c1.79,1.75,4.82.48,4.82-2.03v-26.34c0-1.57-1.27-2.83-2.83-2.83Z"/>
        <path class="cls-1" d="m104.79,96.19h43.8c.57,0,1.12-.23,1.53-.64l8.88-9.09c.81-.83.81-2.15,0-2.98l-8.88-9.09c-.4-.41-.95-.64-1.53-.64h-12.81c-1.57,0-2.83-1.27-2.83-2.83V4.44c0-1.57-1.27-2.83-2.83-2.83h-23.99c-1.57,0-2.83,1.27-2.83,2.83v90.25c0,.83.68,1.51,1.51,1.51Z"/>
        <path class="cls-1" d="m164.77,83.48c.81.83.81,2.15,0,2.98l-7,7.17c-.93.96-.26,2.56,1.08,2.56h14.42c.57,0,1.12-.23,1.53-.64l8.88-9.09c.81-.83.81-2.15,0-2.98l-8.88-9.09c-.4-.41-.95-.64-1.53-.64h-14.41c-1.34,0-2.01,1.61-1.08,2.56l7,7.17Z"/>
        <rect class="cls-3" x="5.37" y="116.55" width="730.94" height="6.23"/>
      </g>
      <path class="cls-1" d="m910.74,48.36c21.59,0,42.47,7.84,58.77,22.07,37.23,32.5,41.12,89.28,8.68,126.58-17.01,19.55-41.62,30.76-67.53,30.76-21.59,0-42.47-7.84-58.77-22.07-37.23-32.5-41.12-89.28-8.68-126.58,17.01-19.55,41.62-30.76,67.53-30.76m0-10c-27.77,0-55.4,11.58-75.07,34.2-36.11,41.51-31.8,104.49,9.64,140.67,18.86,16.46,42.15,24.54,65.35,24.54,27.77,0,55.4-11.58,75.07-34.2,36.11-41.51,31.8-104.49-9.64-140.67-18.86-16.46-42.15-24.54-65.35-24.54h0Z"/>
      <ellipse class="cls-4" cx="910.7" cy="138.07" rx="89.99" ry="90.15"/>
      <path class="cls-1" d="m935.35,158.55c0,5.1-4.13,9.24-9.22,9.24h-27.66v-19.75h27.66c5.09,0,9.22,4.14,9.22,9.24v1.27Zm-36.89-44.91h25.44c4.45,0,8.27,3.82,8.27,8.28v1.27c0,4.46-3.82,8.28-8.27,8.28h-25.44v-17.84Zm44.83,24.85c3.18-4.14,5.09-9.56,5.09-15.29v-1.27c0-13.06-10.18-23.89-23.21-24.85v-9.24h-16.53v9.24h-6.68v-9.24h-16.53v9.24h-12.08v16.56h8.27v54.15h-8.27v16.56h12.08v7.65h16.53v-7.65h6.68v7.65h16.53v-7.65h.64c14.31,0,25.76-11.47,25.76-25.8v-1.59c0-7.01-3.18-14.02-8.27-18.48Z"/>
      <path class="cls-2" d="m782.09,175.11c-5.09-14.97-7.95-31.22-7.63-47.46s3.82-32.49,9.86-47.78,15.26-29.62,26.39-42.05c11.13-12.42,24.8-22.94,39.75-30.9l8.59,18.79c-13.67,5.42-26.39,13.38-37.52,23.25-11.13,10.19-20.67,21.98-27.66,35.68-13.99,26.76-18.76,59.57-11.77,90.47Z"/>
      <polygon class="cls-2" points="841.87 41.64 852.05 17.75 827.88 7.88 842.19 1.82 866.35 11.7 856.5 35.91 841.87 41.64"/>
      <path class="cls-2" d="m941.4,7.56c15.58,2.87,30.84,8.6,44.83,16.88,13.99,8.28,26.39,19.11,36.89,31.85,10.18,12.74,18.44,27.71,23.85,43.64,5.41,15.93,7.63,32.81,7.31,50.01l-19.71-1.59c1.91-14.65,1.27-29.62-1.91-44.28-3.5-14.65-9.22-28.99-17.49-41.73-8.27-12.74-19.08-24.21-31.48-33.45-12.72-9.56-27.03-16.88-42.29-21.34Z"/>
      <polygon class="cls-2" points="1028.52 125.42 1044.42 145.81 1064.77 129.56 1063.18 145.17 1042.51 161.42 1026.61 140.71 1028.52 125.42"/>
      <path class="cls-2" d="m1010.08,228.31c-9.54,12.74-21.94,23.57-35.61,32.17-13.99,8.28-29.57,14.33-46.11,17.2-16.53,2.87-33.39,2.55-49.92-.64-16.53-3.19-32.43-9.87-47.06-18.48l11.45-17.2c12.08,8.28,25.44,14.65,39.75,18.79,14.31,3.82,29.25,5.42,44.52,4.46,14.94-1.27,29.89-4.78,44.2-10.83,13.67-5.73,27.03-14.65,38.79-25.48Z"/>
      <polygon class="cls-2" points="865.08 247.74 839.33 251.88 843.78 277.68 831.06 268.45 826.93 242.96 852.36 238.5 865.08 247.74"/>
    </g>
  </g>
</svg>