<svg width="128" height="88" viewBox="0 0 128 88" fill="none" xmlns="http://www.w3.org/2000/svg">
<path fill-rule="evenodd" clip-rule="evenodd" d="M124.39 34.8812C124.39 32.9607 122.788 31.3843 120.836 31.3843H23.079C21.1242 31.3843 19.5245 32.958 19.5245 34.8812V81.1705C19.5245 83.0911 21.1268 84.6675 23.079 84.6675H120.836C122.799 84.6675 124.39 83.0871 124.39 81.1705V34.8812ZM117.661 47.516V68.5345C112.552 69.1768 108.48 73.1848 107.826 78.2095H36.0888C35.4345 73.1835 31.3619 69.1768 26.2544 68.5345V47.516C31.3619 46.8736 35.4359 42.8656 36.0888 37.8409H107.827C108.48 42.8656 112.552 46.8736 117.661 47.516ZM23.3701 46.1879C23.3701 43.5947 26.9874 46.0696 30.8024 42.3165C34.6173 38.5634 32.1016 35.0047 34.7388 35.0047H109.177C111.813 35.0047 109.299 38.5647 113.113 42.3165C116.928 46.0696 120.545 43.5947 120.545 46.1879V69.8625C120.545 72.4557 116.928 69.9821 113.113 73.7339C109.299 77.487 111.813 81.0457 109.177 81.0457H34.7375C32.1016 81.0457 34.616 77.487 30.8011 73.7339C26.9861 69.9808 23.3688 72.4557 23.3688 69.8625V46.1879H23.3701ZM70.5154 49.1081C70.5154 48.3331 70.4179 46.8394 71.9575 46.8394C73.4971 46.8394 73.3996 48.3317 73.3996 49.1068C77.3494 50.272 78.1038 55.9194 75.5601 55.9194C73.421 55.9194 74.6882 53.5483 73.4824 52.362C71.39 50.3035 68.5325 53.6048 70.3271 54.9801C72.0229 56.2807 75.8726 58.8567 76.5843 60.3215C77.8128 62.8476 76.2919 66.0897 73.4009 66.9436C73.4009 67.7187 73.4984 69.211 71.9588 69.211C70.4192 69.211 70.5167 67.7187 70.5167 66.9436C66.5455 65.7718 65.8151 60.0154 68.3575 60.0154C70.5367 60.0154 69.2041 62.4772 70.4352 63.6884C72.5277 65.7469 75.3718 62.4365 73.5919 61.0703C71.8961 59.7684 68.0477 57.1937 67.3347 55.7289C66.1036 53.1962 67.6298 49.9659 70.518 49.1081H70.5154ZM62.0362 48.2647C70.8532 39.5907 85.9888 45.7675 85.9888 58.0252C85.9888 65.6483 79.7062 71.8291 71.9575 71.8291C59.4979 71.8291 53.2193 56.9388 62.0362 48.2647ZM83.9177 46.2588C94.548 56.7155 86.9782 74.6666 71.9575 74.6666C62.6158 74.6666 55.0433 67.2155 55.0433 58.0265C55.0433 43.2492 73.2888 35.8021 83.9191 46.2601L83.9177 46.2588ZM39.9465 60.198C39.9465 62.066 37.0622 62.066 37.0622 60.198V55.8524C37.0622 53.9844 39.9465 53.9844 39.9465 55.8524V60.198ZM44.6748 60.198C44.6748 62.066 41.7905 62.066 41.7905 60.198V55.8524C41.7905 53.9844 44.6748 53.9844 44.6748 55.8524V60.198ZM49.403 60.198C49.403 62.066 46.5188 62.066 46.5188 60.198V55.8524C46.5188 53.9844 49.403 53.9844 49.403 55.8524V60.198ZM97.3935 60.198C97.3935 62.066 94.5093 62.066 94.5093 60.198V55.8524C94.5093 53.9844 97.3935 53.9844 97.3935 55.8524V60.198ZM102.122 60.198C102.122 62.066 99.2375 62.066 99.2375 60.198V55.8524C99.2375 53.9844 102.122 53.9844 102.122 55.8524V60.198ZM106.85 60.198C106.85 62.066 103.966 62.066 103.966 60.198V55.8524C103.966 53.9844 106.85 53.9844 106.85 55.8524V60.198ZM16.6403 34.8812C16.6403 33.4099 17.1583 32.0503 18.025 30.9718C15.7363 31.3173 13.6973 31.2647 12.5209 32.8424C11.9814 33.5649 11.721 34.4911 11.8706 35.4448L16.6416 66.0214L16.6403 34.8812ZM77.3361 28.5468H101.255L99.6074 25.1838L77.3361 28.5468ZM9.01973 35.8651L13.8268 66.6704L4.3876 37.1394C4.09383 36.2172 4.20733 35.2635 4.62795 34.47C5.54797 32.7347 7.57761 32.4812 9.78619 31.7981C9.09718 32.9935 8.79407 34.4122 9.01973 35.8651ZM68.0037 20.5558L91.6824 16.98L89.5286 13.8969L68.0037 20.5558ZM25.2582 27.0111L99.9693 3.89865C101.836 3.32327 103.839 4.35055 104.425 6.1831L107.13 14.647L95.5414 16.3968C94.7069 15.9133 93.9578 15.2986 93.3355 14.5708C91.5676 12.5018 91.8707 10.2055 89.9519 10.7967L49.2508 23.388L25.2582 27.0111ZM34.0779 28.5481L111.465 16.8618C113.398 16.5702 115.226 17.8812 115.521 19.7834L116.889 28.5481H105.158C104.416 27.9504 103.775 27.2305 103.27 26.4147C101.841 24.1066 102.494 21.8839 100.507 22.1795L58.3415 28.5468L34.0779 28.5481Z" fill="url(#paint0_linear_145_429)"/>
<g filter="url(#filter0_f_145_429)">
<path fill-rule="evenodd" clip-rule="evenodd" d="M124.39 34.8812C124.39 32.9607 122.788 31.3843 120.836 31.3843H23.079C21.1242 31.3843 19.5245 32.958 19.5245 34.8812V81.1705C19.5245 83.0911 21.1268 84.6675 23.079 84.6675H120.836C122.799 84.6675 124.39 83.0871 124.39 81.1705V34.8812ZM117.661 47.516V68.5345C112.552 69.1768 108.48 73.1848 107.826 78.2095H36.0888C35.4345 73.1835 31.3619 69.1768 26.2544 68.5345V47.516C31.3619 46.8736 35.4359 42.8656 36.0888 37.8409H107.827C108.48 42.8656 112.552 46.8736 117.661 47.516ZM23.3701 46.1879C23.3701 43.5947 26.9874 46.0696 30.8024 42.3165C34.6173 38.5634 32.1016 35.0047 34.7388 35.0047H109.177C111.813 35.0047 109.299 38.5647 113.113 42.3165C116.928 46.0696 120.545 43.5947 120.545 46.1879V69.8625C120.545 72.4557 116.928 69.9821 113.113 73.7339C109.299 77.487 111.813 81.0457 109.177 81.0457H34.7375C32.1016 81.0457 34.616 77.487 30.8011 73.7339C26.9861 69.9808 23.3688 72.4557 23.3688 69.8625V46.1879H23.3701ZM70.5154 49.1081C70.5154 48.3331 70.4179 46.8394 71.9575 46.8394C73.4971 46.8394 73.3996 48.3317 73.3996 49.1068C77.3494 50.272 78.1038 55.9194 75.5601 55.9194C73.421 55.9194 74.6882 53.5483 73.4824 52.362C71.39 50.3035 68.5325 53.6048 70.3271 54.9801C72.0229 56.2807 75.8726 58.8567 76.5843 60.3215C77.8128 62.8476 76.2919 66.0897 73.4009 66.9436C73.4009 67.7187 73.4984 69.211 71.9588 69.211C70.4192 69.211 70.5167 67.7187 70.5167 66.9436C66.5455 65.7718 65.8151 60.0154 68.3575 60.0154C70.5367 60.0154 69.2041 62.4772 70.4352 63.6884C72.5277 65.7469 75.3718 62.4365 73.5919 61.0703C71.8961 59.7684 68.0477 57.1937 67.3347 55.7289C66.1036 53.1962 67.6298 49.9659 70.518 49.1081H70.5154ZM62.0362 48.2647C70.8532 39.5907 85.9888 45.7675 85.9888 58.0252C85.9888 65.6483 79.7062 71.8291 71.9575 71.8291C59.4979 71.8291 53.2193 56.9388 62.0362 48.2647ZM83.9177 46.2588C94.548 56.7155 86.9782 74.6666 71.9575 74.6666C62.6158 74.6666 55.0433 67.2155 55.0433 58.0265C55.0433 43.2492 73.2888 35.8021 83.9191 46.2601L83.9177 46.2588ZM39.9465 60.198C39.9465 62.066 37.0622 62.066 37.0622 60.198V55.8524C37.0622 53.9844 39.9465 53.9844 39.9465 55.8524V60.198ZM44.6748 60.198C44.6748 62.066 41.7905 62.066 41.7905 60.198V55.8524C41.7905 53.9844 44.6748 53.9844 44.6748 55.8524V60.198ZM49.403 60.198C49.403 62.066 46.5188 62.066 46.5188 60.198V55.8524C46.5188 53.9844 49.403 53.9844 49.403 55.8524V60.198ZM97.3935 60.198C97.3935 62.066 94.5093 62.066 94.5093 60.198V55.8524C94.5093 53.9844 97.3935 53.9844 97.3935 55.8524V60.198ZM102.122 60.198C102.122 62.066 99.2375 62.066 99.2375 60.198V55.8524C99.2375 53.9844 102.122 53.9844 102.122 55.8524V60.198ZM106.85 60.198C106.85 62.066 103.966 62.066 103.966 60.198V55.8524C103.966 53.9844 106.85 53.9844 106.85 55.8524V60.198ZM16.6403 34.8812C16.6403 33.4099 17.1583 32.0503 18.025 30.9718C15.7363 31.3173 13.6973 31.2647 12.5209 32.8424C11.9814 33.5649 11.721 34.4911 11.8706 35.4448L16.6416 66.0214L16.6403 34.8812ZM77.3361 28.5468H101.255L99.6074 25.1838L77.3361 28.5468ZM9.01973 35.8651L13.8268 66.6704L4.3876 37.1394C4.09383 36.2172 4.20733 35.2635 4.62795 34.47C5.54797 32.7347 7.57761 32.4812 9.78619 31.7981C9.09718 32.9935 8.79407 34.4122 9.01973 35.8651ZM68.0037 20.5558L91.6824 16.98L89.5286 13.8969L68.0037 20.5558ZM25.2582 27.0111L99.9693 3.89865C101.836 3.32327 103.839 4.35055 104.425 6.1831L107.13 14.647L95.5414 16.3968C94.7069 15.9133 93.9578 15.2986 93.3355 14.5708C91.5676 12.5018 91.8707 10.2055 89.9519 10.7967L49.2508 23.388L25.2582 27.0111ZM34.0779 28.5481L111.465 16.8618C113.398 16.5702 115.226 17.8812 115.521 19.7834L116.889 28.5481H105.158C104.416 27.9504 103.775 27.2305 103.27 26.4147C101.841 24.1066 102.494 21.8839 100.507 22.1795L58.3415 28.5468L34.0779 28.5481Z" fill="url(#paint1_linear_145_429)"/>
</g>
<defs>
<filter id="filter0_f_145_429" x="0.986485" y="0.501622" width="126.641" height="87.403" filterUnits="userSpaceOnUse" color-interpolation-filters="sRGB">
<feFlood flood-opacity="0" result="BackgroundImageFix"/>
<feBlend mode="normal" in="SourceGraphic" in2="BackgroundImageFix" result="shape"/>
<feGaussianBlur stdDeviation="1.61857" result="effect1_foregroundBlur_145_429"/>
</filter>
<linearGradient id="paint0_linear_145_429" x1="-14.0582" y1="29.9355" x2="59.2227" y2="134.859" gradientUnits="userSpaceOnUse">
<stop stop-color="#B5CD30"/>
<stop offset="0.442708" stop-color="white"/>
<stop offset="1" stop-color="#B5CD30"/>
</linearGradient>
<linearGradient id="paint1_linear_145_429" x1="-14.0582" y1="29.9355" x2="59.2227" y2="134.859" gradientUnits="userSpaceOnUse">
<stop stop-color="#B5CD30"/>
<stop offset="0.442708" stop-color="white"/>
<stop offset="1" stop-color="#B5CD30"/>
</linearGradient>
</defs>
</svg>
