<svg width="109" height="106" viewBox="0 0 109 106" fill="none" xmlns="http://www.w3.org/2000/svg">
<path d="M66.4098 57.0146H63.5195V59.9049H66.4098V57.0146Z" fill="url(#paint0_linear_145_391)"/>
<path d="M82.3063 65.6853H79.416V68.5756H82.3063V65.6853Z" fill="url(#paint1_linear_145_391)"/>
<path d="M59.1832 46.8987H56.293V49.789H59.1832V46.8987Z" fill="url(#paint2_linear_145_391)"/>
<path d="M14.1358 55.9197C13.3555 57.1023 12.9395 58.4881 12.9395 59.905C12.9395 61.3219 13.3555 62.7077 14.1358 63.8903L18.1214 59.905L14.1358 55.9197Z" fill="url(#paint3_linear_145_391)"/>
<path d="M24.1507 53.8755C22.968 53.095 21.5822 52.679 20.1652 52.679C18.7482 52.679 17.3624 53.095 16.1797 53.8755L20.1652 57.8609L24.1507 53.8755Z" fill="url(#paint4_linear_145_391)"/>
<path d="M16.1797 65.9338C17.3624 66.7143 18.7482 67.1304 20.1652 67.1304C21.5822 67.1304 22.968 66.7143 24.1507 65.9338L20.1652 61.9485L16.1797 65.9338Z" fill="url(#paint5_linear_145_391)"/>
<path d="M67.6194 4.9895H63.5318L55.7803 12.7412L57.8241 14.7848L67.6194 4.9895Z" fill="url(#paint6_linear_145_391)"/>
<path d="M22.209 59.905L26.1945 63.8903C26.9749 62.7077 27.3909 61.3219 27.3909 59.905C27.3909 58.4881 26.9749 57.1023 26.1945 55.9197L22.209 59.905Z" fill="url(#paint7_linear_145_391)"/>
<path d="M36.0616 78.6917H4.26855V83.0271H36.0616V78.6917Z" fill="url(#paint8_linear_145_391)"/>
<path d="M50.6717 23.9818C50.8059 24.116 50.9652 24.2224 51.1406 24.2951C51.3159 24.3677 51.5038 24.4051 51.6936 24.4051C51.8834 24.4051 52.0713 24.3677 52.2467 24.2951C52.422 24.2224 52.5813 24.116 52.7155 23.9818L56.8027 19.8944C57.0734 19.6232 57.2254 19.2557 57.2254 18.8725C57.2254 18.4893 57.0734 18.1218 56.8027 17.8506L52.7153 13.7631C52.4443 13.4921 52.0768 13.3398 51.6935 13.3398C51.3103 13.3398 50.9427 13.4921 50.6717 13.7631L46.5843 17.8513C46.3134 18.1224 46.1611 18.4899 46.1611 18.8731C46.1611 19.2564 46.3134 19.6239 46.5843 19.8949L50.6717 23.9818Z" fill="url(#paint9_linear_145_391)"/>
<path d="M74.0587 76.8232L70.1467 72.911H62.673L59.1841 76.3997V78.6915H56.2938V75.8013C56.2938 75.6115 56.3312 75.4236 56.4038 75.2482C56.4764 75.0729 56.5828 74.9136 56.717 74.7794L60.0306 71.4659L54.25 65.6853H49.6666L46.1778 69.1741V72.911H43.2876V68.5756C43.2876 68.3858 43.3249 68.1979 43.3975 68.0226C43.4702 67.8472 43.5766 67.6879 43.7108 67.5537L48.0462 63.2183C48.1804 63.0841 48.3397 62.9777 48.5151 62.905C48.6904 62.8324 48.8783 62.795 49.0681 62.795H53.4035V59.0581L44.1342 49.7888H38.9521V83.027H80.8611V79.6701L74.5439 77.1431C74.3622 77.0704 74.1971 76.9615 74.0587 76.8232ZM41.8424 57.0145H44.7327V59.9048H41.8424V57.0145ZM69.3 80.1367H66.4097V77.2464H69.3V80.1367Z" fill="url(#paint10_linear_145_391)"/>
<path d="M28.8358 13.6604H11.4941V28.1118H28.8358V13.6604Z" fill="url(#paint11_linear_145_391)"/>
<path d="M45.5623 22.96L37.8105 30.7117V34.7992L47.6059 25.0037L45.5623 22.96Z" fill="url(#paint12_linear_145_391)"/>
<path d="M4.26855 75.8014H36.0616V39.6999C35.7379 39.6318 35.4476 39.4541 35.2396 39.1969C35.0317 38.9398 34.9188 38.6187 34.9199 38.288V30.113C34.9198 29.7298 35.072 29.3622 35.343 29.0911L36.0616 28.3727V6.43481H4.26855V75.8014ZM30.281 59.9049C30.2868 62.0896 29.5798 64.2167 28.2672 65.9632L30.3838 68.0798L28.34 70.1234L26.2234 68.007C24.4742 69.3144 22.3489 70.0208 20.1651 70.0208C17.9812 70.0208 15.856 69.3144 14.1067 68.007L11.9901 70.1234L9.94632 68.0798L12.0629 65.9632C10.7555 64.214 10.0491 62.0887 10.0491 59.9049C10.0491 57.721 10.7555 55.5958 12.0629 53.8465L9.94632 51.7299L11.9901 49.6863L14.1067 51.8027C15.856 50.4953 17.9812 49.7889 20.1651 49.7889C22.3489 49.7889 24.4742 50.4953 26.2234 51.8027L28.34 49.6863L30.3838 51.7299L28.2672 53.8465C29.5798 55.593 30.2868 57.7201 30.281 59.9049ZM30.281 39.673V42.5632H10.0491V39.673H30.281ZM15.8296 36.7827V33.8924H18.7199V36.7827H15.8296ZM21.6102 36.7827V33.8924H24.5005V36.7827H21.6102ZM27.3907 36.7827V33.8924H30.281V36.7827H27.3907ZM8.60396 12.2154C8.60396 11.8321 8.75622 11.4645 9.02724 11.1935C9.29825 10.9225 9.66583 10.7702 10.0491 10.7702H30.281C30.6643 10.7702 31.0319 10.9225 31.3029 11.1935C31.5739 11.4645 31.7261 11.8321 31.7261 12.2154V29.557C31.7261 29.9403 31.5739 30.3079 31.3029 30.5789C31.0319 30.8499 30.6643 31.0021 30.281 31.0021H10.0491C9.66583 31.0021 9.29825 30.8499 9.02724 30.5789C8.75622 30.3079 8.60396 29.9403 8.60396 29.557V12.2154Z" fill="url(#paint13_linear_145_391)"/>
<path d="M84.3245 47.6267L57.8586 22.9253L55.7451 25.0388L80.4472 51.5049C80.6984 51.7743 81.0013 51.9903 81.3378 52.1402C81.6743 52.29 82.0375 52.3706 82.4058 52.377C82.7741 52.3834 83.1399 52.3157 83.4814 52.1777C83.823 52.0397 84.1332 51.8343 84.3937 51.5739C84.6541 51.3134 84.8595 51.0031 84.9975 50.6616C85.1354 50.3201 85.2032 49.9542 85.1967 49.5859C85.1903 49.2176 85.1097 48.8544 84.9599 48.5179C84.81 48.1814 84.5939 47.8786 84.3245 47.6274V47.6267Z" fill="url(#paint14_linear_145_391)"/>
<g filter="url(#filter0_f_145_391)">
<path d="M81.0528 69.2744H77.4814V72.8458H81.0528V69.2744Z" fill="url(#paint15_linear_145_391)"/>
<path d="M100.695 79.9885H97.124V83.5599H100.695V79.9885Z" fill="url(#paint16_linear_145_391)"/>
<path d="M72.1251 56.7747H68.5537V60.346H72.1251V56.7747Z" fill="url(#paint17_linear_145_391)"/>
<path d="M16.4608 67.9214C15.4965 69.3827 14.9824 71.095 14.9824 72.8459C14.9824 74.5967 15.4965 76.309 16.4608 77.7704L21.3855 72.8459L16.4608 67.9214Z" fill="url(#paint18_linear_145_391)"/>
<path d="M28.8358 65.3958C27.3744 64.4314 25.662 63.9172 23.911 63.9172C22.1601 63.9172 20.4477 64.4314 18.9863 65.3958L23.911 70.3203L28.8358 65.3958Z" fill="url(#paint19_linear_145_391)"/>
<path d="M18.9863 80.2956C20.4477 81.26 22.1601 81.7742 23.911 81.7742C25.662 81.7742 27.3744 81.26 28.8358 80.2956L23.911 75.3711L18.9863 80.2956Z" fill="url(#paint20_linear_145_391)"/>
<path d="M82.549 4.9895H77.4981L67.9199 14.568L70.4453 17.0931L82.549 4.9895Z" fill="url(#paint21_linear_145_391)"/>
<path d="M26.4365 72.8459L31.3612 77.7704C32.3255 76.309 32.8396 74.5967 32.8396 72.8459C32.8396 71.095 32.3255 69.3827 31.3612 67.9214L26.4365 72.8459Z" fill="url(#paint22_linear_145_391)"/>
<path d="M43.5538 96.0598H4.26855V101.417H43.5538V96.0598Z" fill="url(#paint23_linear_145_391)"/>
<path d="M61.6067 28.4574C61.7726 28.6232 61.9694 28.7548 62.1861 28.8445C62.4027 28.9343 62.6349 28.9804 62.8694 28.9804C63.104 28.9804 63.3362 28.9343 63.5528 28.8445C63.7695 28.7548 63.9663 28.6232 64.1322 28.4574L69.1825 23.4068C69.517 23.0717 69.7048 22.6176 69.7048 22.1441C69.7048 21.6706 69.517 21.2165 69.1825 20.8814L64.1319 15.8306C63.7971 15.4957 63.3429 15.3076 62.8693 15.3076C62.3958 15.3076 61.9416 15.4957 61.6067 15.8306L56.5561 20.8823C56.2213 21.2172 56.0332 21.6713 56.0332 22.1449C56.0332 22.6184 56.2213 23.0726 56.5561 23.4075L61.6067 28.4574Z" fill="url(#paint24_linear_145_391)"/>
<path d="M90.5046 93.7511L85.6707 88.917H76.4358L72.1247 93.2279V96.0598H68.5533V92.4884C68.5533 92.2539 68.5995 92.0217 68.6892 91.805C68.7789 91.5884 68.9105 91.3915 69.0763 91.2257L73.1707 87.1313L66.0279 79.9886H60.3643L56.0535 84.2994V88.917H52.4821V83.5599C52.4821 83.3254 52.5282 83.0932 52.618 82.8766C52.7077 82.6599 52.8392 82.463 53.0051 82.2972L58.3621 76.9401C58.528 76.7743 58.7248 76.6428 58.9415 76.5531C59.1581 76.4633 59.3903 76.4172 59.6248 76.4172H64.9819V71.7996L53.5283 60.3459H47.125V101.417H98.9101V97.2689L91.1041 94.1464C90.8796 94.0565 90.6756 93.9221 90.5046 93.7511ZM50.6964 69.2744H54.2678V72.8458H50.6964V69.2744ZM84.6245 97.8455H81.0531V94.2741H84.6245V97.8455Z" fill="url(#paint25_linear_145_391)"/>
<path d="M34.6256 15.7036H13.1973V33.5605H34.6256V15.7036Z" fill="url(#paint26_linear_145_391)"/>
<path d="M55.2933 27.1946L45.7148 36.773V41.8239L57.8185 29.72L55.2933 27.1946Z" fill="url(#paint27_linear_145_391)"/>
<path d="M4.26855 92.4883H43.5538V47.8793C43.1538 47.7951 42.7951 47.5757 42.5382 47.2579C42.2812 46.9401 42.1417 46.5434 42.1431 46.1347V36.0333C42.143 35.5597 42.331 35.1055 42.6658 34.7705L43.5538 33.8828V6.77515H4.26855V92.4883ZM36.411 72.8457C36.4182 75.5454 35.5445 78.1737 33.9226 80.3318L36.538 82.9472L34.0126 85.4724L31.3972 82.8572C29.2357 84.4727 26.6096 85.3456 23.9112 85.3456C21.2127 85.3456 18.5866 84.4727 16.4251 82.8572L13.8097 85.4724L11.2843 82.9472L13.8997 80.3318C12.2842 78.1703 11.4113 75.5442 11.4113 72.8457C11.4113 70.1472 12.2842 67.5212 13.8997 65.3597L11.2843 62.7443L13.8097 60.2191L16.4251 62.8343C18.5866 61.2188 21.2127 60.3459 23.9112 60.3459C26.6096 60.3459 29.2357 61.2188 31.3972 62.8343L34.0126 60.2191L36.538 62.7443L33.9226 65.3597C35.5445 67.5178 36.4182 70.1461 36.411 72.8457ZM36.411 47.846V51.4174H11.4113V47.846H36.411ZM18.5541 44.2747V40.7033H22.1255V44.2747H18.5541ZM25.6969 44.2747V40.7033H29.2682V44.2747H25.6969ZM32.8396 44.2747V40.7033H36.411V44.2747H32.8396ZM9.62563 13.9179C9.62563 13.4443 9.81376 12.9901 10.1486 12.6552C10.4835 12.3204 10.9377 12.1322 11.4113 12.1322H36.411C36.8846 12.1322 37.3388 12.3204 37.6737 12.6552C38.0086 12.9901 38.1967 13.4443 38.1967 13.9179V35.3462C38.1967 35.8198 38.0086 36.274 37.6737 36.6089C37.3388 36.9438 36.8846 37.1319 36.411 37.1319H11.4113C10.9377 37.1319 10.4835 36.9438 10.1486 36.6089C9.81376 36.274 9.62563 35.8198 9.62563 35.3462V13.9179Z" fill="url(#paint28_linear_145_391)"/>
<path d="M103.19 57.6742L70.4876 27.1519L67.876 29.7634L98.3992 62.4664C98.7096 62.7993 99.0839 63.0662 99.4997 63.2514C99.9155 63.4366 100.364 63.5361 100.819 63.544C101.274 63.552 101.727 63.4682 102.149 63.2977C102.571 63.1272 102.954 62.8735 103.276 62.5516C103.598 62.2298 103.851 61.8464 104.022 61.4244C104.192 61.0023 104.276 60.5503 104.268 60.0952C104.26 59.6401 104.161 59.1913 103.975 58.7755C103.79 58.3597 103.523 57.9855 103.19 57.6751V57.6742Z" fill="url(#paint29_linear_145_391)"/>
</g>
<defs>
<filter id="filter0_f_145_391" x="0.268555" y="0.989502" width="108" height="104.427" filterUnits="userSpaceOnUse" color-interpolation-filters="sRGB">
<feFlood flood-opacity="0" result="BackgroundImageFix"/>
<feBlend mode="normal" in="SourceGraphic" in2="BackgroundImageFix" result="shape"/>
<feGaussianBlur stdDeviation="2" result="effect1_foregroundBlur_145_391"/>
</filter>
<linearGradient id="paint0_linear_145_391" x1="63.0798" y1="57.9502" x2="65.8655" y2="60.6364" gradientUnits="userSpaceOnUse">
<stop stop-color="#B5CD30"/>
<stop offset="0.442708" stop-color="white"/>
<stop offset="1" stop-color="#B5CD30"/>
</linearGradient>
<linearGradient id="paint1_linear_145_391" x1="78.9763" y1="66.6209" x2="81.762" y2="69.3071" gradientUnits="userSpaceOnUse">
<stop stop-color="#B5CD30"/>
<stop offset="0.442708" stop-color="white"/>
<stop offset="1" stop-color="#B5CD30"/>
</linearGradient>
<linearGradient id="paint2_linear_145_391" x1="55.8533" y1="47.8343" x2="58.639" y2="50.5204" gradientUnits="userSpaceOnUse">
<stop stop-color="#B5CD30"/>
<stop offset="0.442708" stop-color="white"/>
<stop offset="1" stop-color="#B5CD30"/>
</linearGradient>
<linearGradient id="paint3_linear_145_391" x1="12.1511" y1="58.4998" x2="19.0702" y2="62.8374" gradientUnits="userSpaceOnUse">
<stop stop-color="#B5CD30"/>
<stop offset="0.442708" stop-color="white"/>
<stop offset="1" stop-color="#B5CD30"/>
</linearGradient>
<linearGradient id="paint4_linear_145_391" x1="14.967" y1="54.3563" x2="19.6" y2="61.2283" gradientUnits="userSpaceOnUse">
<stop stop-color="#B5CD30"/>
<stop offset="0.442708" stop-color="white"/>
<stop offset="1" stop-color="#B5CD30"/>
</linearGradient>
<linearGradient id="paint5_linear_145_391" x1="14.967" y1="63.6259" x2="19.6" y2="70.4979" gradientUnits="userSpaceOnUse">
<stop stop-color="#B5CD30"/>
<stop offset="0.442708" stop-color="white"/>
<stop offset="1" stop-color="#B5CD30"/>
</linearGradient>
<linearGradient id="paint6_linear_145_391" x1="53.9791" y1="8.16026" x2="63.3166" y2="19.0428" gradientUnits="userSpaceOnUse">
<stop stop-color="#B5CD30"/>
<stop offset="0.442708" stop-color="white"/>
<stop offset="1" stop-color="#B5CD30"/>
</linearGradient>
<linearGradient id="paint7_linear_145_391" x1="21.4206" y1="58.4998" x2="28.3398" y2="62.8374" gradientUnits="userSpaceOnUse">
<stop stop-color="#B5CD30"/>
<stop offset="0.442708" stop-color="white"/>
<stop offset="1" stop-color="#B5CD30"/>
</linearGradient>
<linearGradient id="paint8_linear_145_391" x1="-0.568331" y1="80.095" x2="0.591092" y2="88.2937" gradientUnits="userSpaceOnUse">
<stop stop-color="#B5CD30"/>
<stop offset="0.442708" stop-color="white"/>
<stop offset="1" stop-color="#B5CD30"/>
</linearGradient>
<linearGradient id="paint9_linear_145_391" x1="44.4778" y1="16.9217" x2="55.1427" y2="27.2046" gradientUnits="userSpaceOnUse">
<stop stop-color="#B5CD30"/>
<stop offset="0.442708" stop-color="white"/>
<stop offset="1" stop-color="#B5CD30"/>
</linearGradient>
<linearGradient id="paint10_linear_145_391" x1="32.5763" y1="60.5481" x2="64.0305" y2="98.7908" gradientUnits="userSpaceOnUse">
<stop stop-color="#B5CD30"/>
<stop offset="0.442708" stop-color="white"/>
<stop offset="1" stop-color="#B5CD30"/>
</linearGradient>
<linearGradient id="paint11_linear_145_391" x1="8.85584" y1="18.3383" x2="22.6464" y2="34.2958" gradientUnits="userSpaceOnUse">
<stop stop-color="#B5CD30"/>
<stop offset="0.442708" stop-color="white"/>
<stop offset="1" stop-color="#B5CD30"/>
</linearGradient>
<linearGradient id="paint12_linear_145_391" x1="36.3203" y1="26.7924" x2="47.4535" y2="35.6744" gradientUnits="userSpaceOnUse">
<stop stop-color="#B5CD30"/>
<stop offset="0.442708" stop-color="white"/>
<stop offset="1" stop-color="#B5CD30"/>
</linearGradient>
<linearGradient id="paint13_linear_145_391" x1="-0.568331" y1="28.8889" x2="48.9035" y2="50.7534" gradientUnits="userSpaceOnUse">
<stop stop-color="#B5CD30"/>
<stop offset="0.442708" stop-color="white"/>
<stop offset="1" stop-color="#B5CD30"/>
</linearGradient>
<linearGradient id="paint14_linear_145_391" x1="51.2644" y1="32.459" x2="79.6509" y2="59.8313" gradientUnits="userSpaceOnUse">
<stop stop-color="#B5CD30"/>
<stop offset="0.442708" stop-color="white"/>
<stop offset="1" stop-color="#B5CD30"/>
</linearGradient>
<linearGradient id="paint15_linear_145_391" x1="76.9381" y1="70.4305" x2="80.3803" y2="73.7497" gradientUnits="userSpaceOnUse">
<stop stop-color="#B5CD30"/>
<stop offset="0.442708" stop-color="white"/>
<stop offset="1" stop-color="#B5CD30"/>
</linearGradient>
<linearGradient id="paint16_linear_145_391" x1="96.5807" y1="81.1446" x2="100.023" y2="84.4638" gradientUnits="userSpaceOnUse">
<stop stop-color="#B5CD30"/>
<stop offset="0.442708" stop-color="white"/>
<stop offset="1" stop-color="#B5CD30"/>
</linearGradient>
<linearGradient id="paint17_linear_145_391" x1="68.0104" y1="57.9307" x2="71.4525" y2="61.2499" gradientUnits="userSpaceOnUse">
<stop stop-color="#B5CD30"/>
<stop offset="0.442708" stop-color="white"/>
<stop offset="1" stop-color="#B5CD30"/>
</linearGradient>
<linearGradient id="paint18_linear_145_391" x1="14.0083" y1="71.1095" x2="22.5579" y2="76.4693" gradientUnits="userSpaceOnUse">
<stop stop-color="#B5CD30"/>
<stop offset="0.442708" stop-color="white"/>
<stop offset="1" stop-color="#B5CD30"/>
</linearGradient>
<linearGradient id="paint19_linear_145_391" x1="17.4879" y1="65.9899" x2="23.2126" y2="74.4813" gradientUnits="userSpaceOnUse">
<stop stop-color="#B5CD30"/>
<stop offset="0.442708" stop-color="white"/>
<stop offset="1" stop-color="#B5CD30"/>
</linearGradient>
<linearGradient id="paint20_linear_145_391" x1="17.4879" y1="77.4438" x2="23.2126" y2="85.9352" gradientUnits="userSpaceOnUse">
<stop stop-color="#B5CD30"/>
<stop offset="0.442708" stop-color="white"/>
<stop offset="1" stop-color="#B5CD30"/>
</linearGradient>
<linearGradient id="paint21_linear_145_391" x1="65.6943" y1="8.90747" x2="77.2322" y2="22.3545" gradientUnits="userSpaceOnUse">
<stop stop-color="#B5CD30"/>
<stop offset="0.442708" stop-color="white"/>
<stop offset="1" stop-color="#B5CD30"/>
</linearGradient>
<linearGradient id="paint22_linear_145_391" x1="25.4624" y1="71.1095" x2="34.012" y2="76.4693" gradientUnits="userSpaceOnUse">
<stop stop-color="#B5CD30"/>
<stop offset="0.442708" stop-color="white"/>
<stop offset="1" stop-color="#B5CD30"/>
</linearGradient>
<linearGradient id="paint23_linear_145_391" x1="-1.70817" y1="97.7939" x2="-0.275524" y2="107.925" gradientUnits="userSpaceOnUse">
<stop stop-color="#B5CD30"/>
<stop offset="0.442708" stop-color="white"/>
<stop offset="1" stop-color="#B5CD30"/>
</linearGradient>
<linearGradient id="paint24_linear_145_391" x1="53.9532" y1="19.7335" x2="67.1313" y2="32.4397" gradientUnits="userSpaceOnUse">
<stop stop-color="#B5CD30"/>
<stop offset="0.442708" stop-color="white"/>
<stop offset="1" stop-color="#B5CD30"/>
</linearGradient>
<linearGradient id="paint25_linear_145_391" x1="39.2466" y1="73.6407" x2="78.1132" y2="120.896" gradientUnits="userSpaceOnUse">
<stop stop-color="#B5CD30"/>
<stop offset="0.442708" stop-color="white"/>
<stop offset="1" stop-color="#B5CD30"/>
</linearGradient>
<linearGradient id="paint26_linear_145_391" x1="9.93723" y1="21.4839" x2="26.9777" y2="41.2019" gradientUnits="userSpaceOnUse">
<stop stop-color="#B5CD30"/>
<stop offset="0.442708" stop-color="white"/>
<stop offset="1" stop-color="#B5CD30"/>
</linearGradient>
<linearGradient id="paint27_linear_145_391" x1="43.8734" y1="31.9301" x2="57.6302" y2="42.9053" gradientUnits="userSpaceOnUse">
<stop stop-color="#B5CD30"/>
<stop offset="0.442708" stop-color="white"/>
<stop offset="1" stop-color="#B5CD30"/>
</linearGradient>
<linearGradient id="paint28_linear_145_391" x1="-1.70817" y1="34.5206" x2="59.4219" y2="61.5376" gradientUnits="userSpaceOnUse">
<stop stop-color="#B5CD30"/>
<stop offset="0.442708" stop-color="white"/>
<stop offset="1" stop-color="#B5CD30"/>
</linearGradient>
<linearGradient id="paint29_linear_145_391" x1="62.3393" y1="38.9322" x2="97.4153" y2="72.7549" gradientUnits="userSpaceOnUse">
<stop stop-color="#B5CD30"/>
<stop offset="0.442708" stop-color="white"/>
<stop offset="1" stop-color="#B5CD30"/>
</linearGradient>
</defs>
</svg>
