<svg width="144" height="106" viewBox="0 0 144 106" fill="none" xmlns="http://www.w3.org/2000/svg">
<path fill-rule="evenodd" clip-rule="evenodd" d="M56.4829 38.4603C48.3273 42.2244 42.0537 48.4979 38.2896 56.6535L17.5869 47.8706C23.8605 34.6961 34.5255 24.0311 47.6999 17.7576L56.4829 38.4603ZM52.0914 37.2055L46.4452 22.149C35.7802 27.7952 27.6246 35.9508 21.9784 46.6159L37.0349 52.2621C40.1717 45.9885 45.8179 40.3423 52.0914 37.2055Z" fill="url(#paint0_linear_145_437)"/>
<path fill-rule="evenodd" clip-rule="evenodd" d="M87.8506 38.4603C93.4968 40.9697 98.5156 44.7338 102.28 49.7526L104.789 48.4979C101.652 43.4791 97.2609 39.715 92.2421 37.2055L98.5156 22.149C108.553 27.7952 116.709 35.9508 122.355 46.6159L107.926 52.2621L105.417 54.7715C105.417 55.3988 106.044 56.0262 106.044 56.6535L126.747 47.8706C120.473 34.6961 109.808 24.0311 96.6335 17.7576L87.8506 38.4603Z" fill="url(#paint1_linear_145_437)"/>
<path fill-rule="evenodd" clip-rule="evenodd" d="M128.002 51.0073C130.511 57.9082 131.766 64.8091 131.766 72.3374C131.766 79.8656 130.511 86.7665 128.002 93.6674L107.299 84.8845C109.181 81.1203 109.808 76.7288 109.808 72.3374C109.808 67.9459 109.181 63.5544 107.299 59.7903L128.002 51.0073ZM126.119 55.3988L111.063 61.6723C112.318 64.8091 112.945 68.5732 112.945 72.3374C112.945 76.1015 112.318 79.8656 111.063 83.6297L126.119 89.2759C128.002 83.6297 128.629 77.9836 128.629 72.3374C128.629 66.6912 128.002 61.045 126.119 55.3988Z" fill="url(#paint2_linear_145_437)"/>
<path fill-rule="evenodd" clip-rule="evenodd" d="M37.0352 59.7903C35.1531 63.5544 34.5258 67.9459 34.5258 72.3374C34.5258 76.7288 35.1531 81.1203 37.0352 84.8845L16.3325 93.6674C13.8231 86.7665 12.5684 79.8656 12.5684 72.3374C12.5684 64.8091 13.8231 57.9082 16.3325 51.0073L37.0352 59.7903ZM33.2711 61.6723L18.2145 55.3988C16.3325 61.045 15.7051 66.6912 15.7051 72.3374C15.7051 77.9836 16.3325 83.6297 18.2145 89.2759L33.2711 83.6297C32.0163 79.8656 31.389 76.1015 31.389 72.3374C31.389 68.5732 32.0163 64.8091 33.2711 61.6723Z" fill="url(#paint3_linear_145_437)"/>
<path fill-rule="evenodd" clip-rule="evenodd" d="M72.167 12.7388C64.6387 12.7388 57.7378 13.9935 50.8369 16.5029L59.6199 37.2056C63.384 35.3235 67.7755 34.6962 72.167 34.6962C76.5584 34.6962 80.9499 35.3235 84.714 37.2056L93.497 16.5029C86.5961 13.9935 79.6952 12.7388 72.167 12.7388ZM55.2284 18.385L61.5019 33.4415C64.6387 32.1868 68.4028 31.5594 72.167 31.5594C75.9311 31.5594 79.6952 32.1868 83.4593 33.4415L89.1055 18.385C83.4593 16.5029 77.8131 15.8755 72.167 15.8755C66.5208 15.8755 60.8746 16.5029 55.2284 18.385Z" fill="url(#paint4_linear_145_437)"/>
<path fill-rule="evenodd" clip-rule="evenodd" d="M111.063 46.616L96.0066 64.1819C90.9878 69.8281 85.9689 75.4743 81.5775 81.1205C71.5398 94.9222 53.3465 77.3563 70.9124 67.946L90.9878 57.281L111.063 46.616ZM72.1671 72.3375C75.3039 72.3375 77.186 74.8469 77.186 77.3563C77.186 80.4931 75.3039 83.0025 72.1671 83.0025C69.0304 83.0025 67.1483 80.4931 67.1483 77.3563C67.1483 74.8469 69.0304 72.3375 72.1671 72.3375Z" fill="url(#paint5_linear_145_437)"/>
<g filter="url(#filter0_f_145_437)">
<path fill-rule="evenodd" clip-rule="evenodd" d="M56.4829 38.4603C48.3273 42.2244 42.0537 48.4979 38.2896 56.6535L17.5869 47.8706C23.8605 34.6961 34.5255 24.0311 47.6999 17.7576L56.4829 38.4603ZM52.0914 37.2055L46.4452 22.149C35.7802 27.7952 27.6246 35.9508 21.9784 46.6159L37.0349 52.2621C40.1717 45.9885 45.8179 40.3423 52.0914 37.2055Z" fill="url(#paint6_linear_145_437)"/>
<path fill-rule="evenodd" clip-rule="evenodd" d="M87.8506 38.4603C93.4968 40.9697 98.5156 44.7338 102.28 49.7526L104.789 48.4979C101.652 43.4791 97.2609 39.715 92.2421 37.2055L98.5156 22.149C108.553 27.7952 116.709 35.9508 122.355 46.6159L107.926 52.2621L105.417 54.7715C105.417 55.3988 106.044 56.0262 106.044 56.6535L126.747 47.8706C120.473 34.6961 109.808 24.0311 96.6335 17.7576L87.8506 38.4603Z" fill="url(#paint7_linear_145_437)"/>
<path fill-rule="evenodd" clip-rule="evenodd" d="M128.002 51.0073C130.511 57.9082 131.766 64.8091 131.766 72.3374C131.766 79.8656 130.511 86.7665 128.002 93.6674L107.299 84.8845C109.181 81.1203 109.808 76.7288 109.808 72.3374C109.808 67.9459 109.181 63.5544 107.299 59.7903L128.002 51.0073ZM126.119 55.3988L111.063 61.6723C112.318 64.8091 112.945 68.5732 112.945 72.3374C112.945 76.1015 112.318 79.8656 111.063 83.6297L126.119 89.2759C128.002 83.6297 128.629 77.9836 128.629 72.3374C128.629 66.6912 128.002 61.045 126.119 55.3988Z" fill="url(#paint8_linear_145_437)"/>
<path fill-rule="evenodd" clip-rule="evenodd" d="M37.0352 59.7903C35.1531 63.5544 34.5258 67.9459 34.5258 72.3374C34.5258 76.7288 35.1531 81.1203 37.0352 84.8845L16.3325 93.6674C13.8231 86.7665 12.5684 79.8656 12.5684 72.3374C12.5684 64.8091 13.8231 57.9082 16.3325 51.0073L37.0352 59.7903ZM33.2711 61.6723L18.2145 55.3988C16.3325 61.045 15.7051 66.6912 15.7051 72.3374C15.7051 77.9836 16.3325 83.6297 18.2145 89.2759L33.2711 83.6297C32.0163 79.8656 31.389 76.1015 31.389 72.3374C31.389 68.5732 32.0163 64.8091 33.2711 61.6723Z" fill="url(#paint9_linear_145_437)"/>
<path fill-rule="evenodd" clip-rule="evenodd" d="M72.167 12.7388C64.6387 12.7388 57.7378 13.9935 50.8369 16.5029L59.6199 37.2056C63.384 35.3235 67.7755 34.6962 72.167 34.6962C76.5584 34.6962 80.9499 35.3235 84.714 37.2056L93.497 16.5029C86.5961 13.9935 79.6952 12.7388 72.167 12.7388ZM55.2284 18.385L61.5019 33.4415C64.6387 32.1868 68.4028 31.5594 72.167 31.5594C75.9311 31.5594 79.6952 32.1868 83.4593 33.4415L89.1055 18.385C83.4593 16.5029 77.8131 15.8755 72.167 15.8755C66.5208 15.8755 60.8746 16.5029 55.2284 18.385Z" fill="url(#paint10_linear_145_437)"/>
<path fill-rule="evenodd" clip-rule="evenodd" d="M111.063 46.616L96.0066 64.1819C90.9878 69.8281 85.9689 75.4743 81.5775 81.1205C71.5398 94.9222 53.3465 77.3563 70.9124 67.946L90.9878 57.281L111.063 46.616ZM72.1671 72.3375C75.3039 72.3375 77.186 74.8469 77.186 77.3563C77.186 80.4931 75.3039 83.0025 72.1671 83.0025C69.0304 83.0025 67.1483 80.4931 67.1483 77.3563C67.1483 74.8469 69.0304 72.3375 72.1671 72.3375Z" fill="url(#paint11_linear_145_437)"/>
</g>
<defs>
<filter id="filter0_f_145_437" x="0.429056" y="0.599466" width="143.476" height="105.207" filterUnits="userSpaceOnUse" color-interpolation-filters="sRGB">
<feFlood flood-opacity="0" result="BackgroundImageFix"/>
<feBlend mode="normal" in="SourceGraphic" in2="BackgroundImageFix" result="shape"/>
<feGaussianBlur stdDeviation="6.06965" result="effect1_foregroundBlur_145_437"/>
</filter>
<linearGradient id="paint0_linear_145_437" x1="11.6694" y1="30.3482" x2="49.1581" y2="66.4976" gradientUnits="userSpaceOnUse">
<stop stop-color="#B5CD30"/>
<stop offset="0.442708" stop-color="white"/>
<stop offset="1" stop-color="#B5CD30"/>
</linearGradient>
<linearGradient id="paint1_linear_145_437" x1="81.9331" y1="30.3482" x2="119.422" y2="66.4976" gradientUnits="userSpaceOnUse">
<stop stop-color="#B5CD30"/>
<stop offset="0.442708" stop-color="white"/>
<stop offset="1" stop-color="#B5CD30"/>
</linearGradient>
<linearGradient id="paint2_linear_145_437" x1="103.577" y1="64.8165" x2="138.426" y2="84.0896" gradientUnits="userSpaceOnUse">
<stop stop-color="#B5CD30"/>
<stop offset="0.442708" stop-color="white"/>
<stop offset="1" stop-color="#B5CD30"/>
</linearGradient>
<linearGradient id="paint3_linear_145_437" x1="8.84606" y1="64.8165" x2="43.6955" y2="84.0896" gradientUnits="userSpaceOnUse">
<stop stop-color="#B5CD30"/>
<stop offset="0.442708" stop-color="white"/>
<stop offset="1" stop-color="#B5CD30"/>
</linearGradient>
<linearGradient id="paint4_linear_145_437" x1="44.3467" y1="20.6587" x2="65.0817" y2="55.5204" gradientUnits="userSpaceOnUse">
<stop stop-color="#B5CD30"/>
<stop offset="0.442708" stop-color="white"/>
<stop offset="1" stop-color="#B5CD30"/>
</linearGradient>
<linearGradient id="paint5_linear_145_437" x1="56.3472" y1="59.4359" x2="94.1443" y2="103.141" gradientUnits="userSpaceOnUse">
<stop stop-color="#B5CD30"/>
<stop offset="0.442708" stop-color="white"/>
<stop offset="1" stop-color="#B5CD30"/>
</linearGradient>
<linearGradient id="paint6_linear_145_437" x1="11.6694" y1="30.3482" x2="49.1581" y2="66.4976" gradientUnits="userSpaceOnUse">
<stop stop-color="#B5CD30"/>
<stop offset="0.442708" stop-color="white"/>
<stop offset="1" stop-color="#B5CD30"/>
</linearGradient>
<linearGradient id="paint7_linear_145_437" x1="81.9331" y1="30.3482" x2="119.422" y2="66.4976" gradientUnits="userSpaceOnUse">
<stop stop-color="#B5CD30"/>
<stop offset="0.442708" stop-color="white"/>
<stop offset="1" stop-color="#B5CD30"/>
</linearGradient>
<linearGradient id="paint8_linear_145_437" x1="103.577" y1="64.8165" x2="138.426" y2="84.0896" gradientUnits="userSpaceOnUse">
<stop stop-color="#B5CD30"/>
<stop offset="0.442708" stop-color="white"/>
<stop offset="1" stop-color="#B5CD30"/>
</linearGradient>
<linearGradient id="paint9_linear_145_437" x1="8.84606" y1="64.8165" x2="43.6955" y2="84.0896" gradientUnits="userSpaceOnUse">
<stop stop-color="#B5CD30"/>
<stop offset="0.442708" stop-color="white"/>
<stop offset="1" stop-color="#B5CD30"/>
</linearGradient>
<linearGradient id="paint10_linear_145_437" x1="44.3467" y1="20.6587" x2="65.0817" y2="55.5204" gradientUnits="userSpaceOnUse">
<stop stop-color="#B5CD30"/>
<stop offset="0.442708" stop-color="white"/>
<stop offset="1" stop-color="#B5CD30"/>
</linearGradient>
<linearGradient id="paint11_linear_145_437" x1="56.3472" y1="59.4359" x2="94.1443" y2="103.141" gradientUnits="userSpaceOnUse">
<stop stop-color="#B5CD30"/>
<stop offset="0.442708" stop-color="white"/>
<stop offset="1" stop-color="#B5CD30"/>
</linearGradient>
</defs>
</svg>
