<svg width="68" height="88" viewBox="0 0 68 88" fill="none" xmlns="http://www.w3.org/2000/svg">
<path d="M63.8246 18.7953C63.8246 14.0674 59.9144 10.3068 54.4731 7.7675C49.0319 5.22832 41.7447 3.73877 33.7116 3.73877C25.6786 3.73877 18.3914 5.22832 12.9501 7.7675C7.5089 10.3068 3.59863 14.0674 3.59863 18.7953C3.63345 35.439 3.59863 52.7753 3.59863 69.611C3.59863 74.3388 7.5089 78.07 12.9501 80.6093C18.3914 83.1485 25.6786 84.6675 33.7116 84.6675C41.7447 84.6675 49.0319 83.1485 54.4731 80.6093C59.9144 78.07 63.8246 74.3388 63.8246 69.611M33.7116 7.50289C41.2701 7.50289 48.1087 8.94981 52.8851 11.1787C57.6615 13.4078 60.0605 16.2471 60.0605 18.7953C60.0605 21.3435 57.6615 24.1534 52.8851 26.3823C48.1087 28.6113 41.2701 30.0876 33.7116 30.0876C26.1533 30.0876 19.3145 28.6113 14.5381 26.3823C9.76173 24.1534 7.36276 21.3435 7.36276 18.7953C7.36276 16.2471 9.76173 13.4078 14.5381 11.1787C19.3145 8.94981 26.1533 7.50289 33.7116 7.50289ZM7.36276 26.2352C8.88845 27.5999 10.7987 28.7896 12.9501 29.7936C18.3914 32.3329 25.6786 33.8518 33.7116 33.8518C41.7447 33.8518 49.0319 32.3329 54.4731 29.7936C56.6246 28.7896 58.5348 27.5999 60.0605 26.2352V35.7338C60.0605 38.2821 57.6615 41.092 52.8851 43.3209C48.1087 45.5498 41.2701 47.0262 33.7116 47.0262C26.1533 47.0262 19.3145 45.5498 14.5381 43.3209C9.76173 41.092 7.36276 38.2821 7.36276 35.7338V26.2352ZM7.36276 43.1445C8.88826 44.5179 10.7882 45.7232 12.9501 46.7321C18.3914 49.2714 25.6786 50.7903 33.7116 50.7903C41.7447 50.7903 49.0319 49.2714 54.4731 46.7321C56.6351 45.7232 58.535 44.5179 60.0605 43.1445V52.6724C60.0605 55.2206 57.6615 58.0305 52.8851 60.2595C48.1087 62.4884 41.2701 63.9648 33.7116 63.9648C26.1533 63.9648 19.3145 62.4884 14.5381 60.2595C9.76173 58.0305 7.36276 55.2206 7.36276 52.6724V43.1445ZM7.36276 60.083C8.88826 61.4565 10.7882 62.6617 12.9501 63.6707C18.3914 66.21 25.6786 67.7289 33.7116 67.7289C41.7447 67.7289 49.0319 66.21 54.4731 63.6707C56.6351 62.6617 58.535 61.4565 60.0605 60.083V69.611C60.0605 72.1592 57.6615 74.9691 52.8851 77.198C48.1087 79.4269 41.2701 80.9033 33.7116 80.9033C26.1533 80.9033 19.3145 79.4269 14.5381 77.198C9.76173 74.9691 7.36276 72.1592 7.36276 69.611V60.083Z" fill="url(#paint0_linear_145_457)"/>
<g filter="url(#filter0_f_145_457)">
<path d="M63.8246 18.7953C63.8246 14.0674 59.9144 10.3068 54.4731 7.7675C49.0319 5.22832 41.7447 3.73877 33.7116 3.73877C25.6786 3.73877 18.3914 5.22832 12.9501 7.7675C7.5089 10.3068 3.59863 14.0674 3.59863 18.7953C3.63345 35.439 3.59863 52.7753 3.59863 69.611C3.59863 74.3388 7.5089 78.07 12.9501 80.6093C18.3914 83.1485 25.6786 84.6675 33.7116 84.6675C41.7447 84.6675 49.0319 83.1485 54.4731 80.6093C59.9144 78.07 63.8246 74.3388 63.8246 69.611M33.7116 7.50289C41.2701 7.50289 48.1087 8.94981 52.8851 11.1787C57.6615 13.4078 60.0605 16.2471 60.0605 18.7953C60.0605 21.3435 57.6615 24.1534 52.8851 26.3823C48.1087 28.6113 41.2701 30.0876 33.7116 30.0876C26.1533 30.0876 19.3145 28.6113 14.5381 26.3823C9.76173 24.1534 7.36276 21.3435 7.36276 18.7953C7.36276 16.2471 9.76173 13.4078 14.5381 11.1787C19.3145 8.94981 26.1533 7.50289 33.7116 7.50289ZM7.36276 26.2352C8.88845 27.5999 10.7987 28.7896 12.9501 29.7936C18.3914 32.3329 25.6786 33.8518 33.7116 33.8518C41.7447 33.8518 49.0319 32.3329 54.4731 29.7936C56.6246 28.7896 58.5348 27.5999 60.0605 26.2352V35.7338C60.0605 38.2821 57.6615 41.092 52.8851 43.3209C48.1087 45.5498 41.2701 47.0262 33.7116 47.0262C26.1533 47.0262 19.3145 45.5498 14.5381 43.3209C9.76173 41.092 7.36276 38.2821 7.36276 35.7338V26.2352ZM7.36276 43.1445C8.88826 44.5179 10.7882 45.7232 12.9501 46.7321C18.3914 49.2714 25.6786 50.7903 33.7116 50.7903C41.7447 50.7903 49.0319 49.2714 54.4731 46.7321C56.6351 45.7232 58.535 44.5179 60.0605 43.1445V52.6724C60.0605 55.2206 57.6615 58.0305 52.8851 60.2595C48.1087 62.4884 41.2701 63.9648 33.7116 63.9648C26.1533 63.9648 19.3145 62.4884 14.5381 60.2595C9.76173 58.0305 7.36276 55.2206 7.36276 52.6724V43.1445ZM7.36276 60.083C8.88826 61.4565 10.7882 62.6617 12.9501 63.6707C18.3914 66.21 25.6786 67.7289 33.7116 67.7289C41.7447 67.7289 49.0319 66.21 54.4731 63.6707C56.6351 62.6617 58.535 61.4565 60.0605 60.083V69.611C60.0605 72.1592 57.6615 74.9691 52.8851 77.198C48.1087 79.4269 41.2701 80.9033 33.7116 80.9033C26.1533 80.9033 19.3145 79.4269 14.5381 77.198C9.76173 74.9691 7.36276 72.1592 7.36276 69.611V60.083Z" fill="url(#paint1_linear_145_457)"/>
</g>
<defs>
<filter id="filter0_f_145_457" x="0.361485" y="0.501622" width="66.6999" height="87.403" filterUnits="userSpaceOnUse" color-interpolation-filters="sRGB">
<feFlood flood-opacity="0" result="BackgroundImageFix"/>
<feBlend mode="normal" in="SourceGraphic" in2="BackgroundImageFix" result="shape"/>
<feGaussianBlur stdDeviation="1.61857" result="effect1_foregroundBlur_145_457"/>
</filter>
<linearGradient id="paint0_linear_145_457" x1="-5.56396" y1="29.9355" x2="68.3794" y2="82.9972" gradientUnits="userSpaceOnUse">
<stop stop-color="#B5CD30"/>
<stop offset="0.442708" stop-color="white"/>
<stop offset="1" stop-color="#B5CD30"/>
</linearGradient>
<linearGradient id="paint1_linear_145_457" x1="-5.56396" y1="29.9355" x2="68.3794" y2="82.9972" gradientUnits="userSpaceOnUse">
<stop stop-color="#B5CD30"/>
<stop offset="0.442708" stop-color="white"/>
<stop offset="1" stop-color="#B5CD30"/>
</linearGradient>
</defs>
</svg>
