<svg width="49" height="88" viewBox="0 0 49 88" fill="none" xmlns="http://www.w3.org/2000/svg">
<path d="M45.3175 34.9529C45.0747 34.5539 44.6422 34.3055 44.1706 34.2985L33.4823 34.1129L45.4082 5.60338C45.5896 5.16943 45.5296 4.67269 45.2506 4.29316C44.9701 3.91502 44.5054 3.70432 44.0366 3.74339L22.2819 5.49594C21.7489 5.53919 21.2912 5.88384 21.1084 6.38058L9.02059 39.3943C8.86989 39.8073 8.93129 40.2678 9.18664 40.6278C9.44338 40.9864 9.85919 41.2013 10.3043 41.2013H20.5838L18.5019 82.4196C18.4698 83.0545 18.8912 83.6251 19.5121 83.7884C19.6307 83.8191 19.7493 83.8344 19.8652 83.8344C20.3675 83.8344 20.8419 83.5596 21.0805 83.1005L45.3622 36.2618C45.5771 35.846 45.5603 35.352 45.3175 34.9529ZM21.5465 76.2871L23.3828 39.9189C23.4023 39.5506 23.267 39.1906 23.0089 38.9227C22.7507 38.6548 22.3935 38.5027 22.021 38.5027H12.2508L23.3786 8.1122L42.0343 6.60942L30.1949 34.9111C30.0218 35.3241 30.0679 35.7929 30.3149 36.1655C30.5618 36.5394 30.9804 36.7669 31.4311 36.7752L41.9338 36.9566L21.5465 76.2871Z" fill="url(#paint0_linear_145_467)"/>
<path d="M9.44075 67.3289C9.23006 66.6131 8.47099 66.2029 7.7482 66.4094C7.02402 66.6173 6.60961 67.3666 6.81891 68.0824L11.1696 82.8618C11.344 83.452 11.8882 83.8344 12.4798 83.8344C12.6054 83.8344 12.7351 83.8162 12.8607 83.7799C13.5849 83.5734 14.0007 82.8227 13.7914 82.1083L9.44075 67.3289Z" fill="url(#paint1_linear_145_467)"/>
<path d="M37.9354 68.6362C37.2726 68.279 36.4452 68.519 36.0824 69.1721L28.6075 82.6706C28.2448 83.325 28.4889 84.144 29.1503 84.5026C29.3582 84.6129 29.5829 84.6673 29.8047 84.6673C30.2875 84.6673 30.755 84.4133 31.0033 83.9668L38.4782 70.4669C38.841 69.8125 38.5968 68.9935 37.9354 68.6362Z" fill="url(#paint2_linear_145_467)"/>
<path d="M5.95088 62.4661C7.22087 62.4661 8.2504 61.4472 8.2504 60.1903C8.2504 58.9335 7.22087 57.9146 5.95088 57.9146C4.68089 57.9146 3.65137 58.9335 3.65137 60.1903C3.65137 61.4472 4.68089 62.4661 5.95088 62.4661Z" fill="url(#paint3_linear_145_467)"/>
<path d="M41.0488 64.8873C42.3967 64.8873 43.4893 63.8046 43.4893 62.4691C43.4893 61.1337 42.3967 60.051 41.0488 60.051C39.701 60.051 38.6084 61.1337 38.6084 62.4691C38.6084 63.8046 39.701 64.8873 41.0488 64.8873Z" fill="url(#paint4_linear_145_467)"/>
<g filter="url(#filter0_f_145_467)">
<path d="M45.3175 34.9529C45.0747 34.5539 44.6422 34.3055 44.1706 34.2985L33.4823 34.1129L45.4082 5.60338C45.5896 5.16943 45.5296 4.67269 45.2506 4.29316C44.9701 3.91502 44.5054 3.70432 44.0366 3.74339L22.2819 5.49594C21.7489 5.53919 21.2912 5.88384 21.1084 6.38058L9.02059 39.3943C8.86989 39.8073 8.93129 40.2678 9.18664 40.6278C9.44338 40.9864 9.85919 41.2013 10.3043 41.2013H20.5838L18.5019 82.4196C18.4698 83.0545 18.8912 83.6251 19.5121 83.7884C19.6307 83.8191 19.7493 83.8344 19.8652 83.8344C20.3675 83.8344 20.8419 83.5596 21.0805 83.1005L45.3622 36.2618C45.5771 35.846 45.5603 35.352 45.3175 34.9529ZM21.5465 76.2871L23.3828 39.9189C23.4023 39.5506 23.267 39.1906 23.0089 38.9227C22.7507 38.6548 22.3935 38.5027 22.021 38.5027H12.2508L23.3786 8.1122L42.0343 6.60942L30.1949 34.9111C30.0218 35.3241 30.0679 35.7929 30.3149 36.1655C30.5618 36.5394 30.9804 36.7669 31.4311 36.7752L41.9338 36.9566L21.5465 76.2871Z" fill="url(#paint5_linear_145_467)"/>
<path d="M9.44075 67.3289C9.23006 66.6131 8.47099 66.2029 7.7482 66.4094C7.02402 66.6173 6.60961 67.3666 6.81891 68.0824L11.1696 82.8618C11.344 83.452 11.8882 83.8344 12.4798 83.8344C12.6054 83.8344 12.7351 83.8162 12.8607 83.7799C13.5849 83.5734 14.0007 82.8227 13.7914 82.1083L9.44075 67.3289Z" fill="url(#paint6_linear_145_467)"/>
<path d="M37.9354 68.6362C37.2726 68.279 36.4452 68.519 36.0824 69.1721L28.6075 82.6706C28.2448 83.325 28.4889 84.144 29.1503 84.5026C29.3582 84.6129 29.5829 84.6673 29.8047 84.6673C30.2875 84.6673 30.755 84.4133 31.0033 83.9668L38.4782 70.4669C38.841 69.8125 38.5968 68.9935 37.9354 68.6362Z" fill="url(#paint7_linear_145_467)"/>
<path d="M5.95088 62.4661C7.22087 62.4661 8.2504 61.4472 8.2504 60.1903C8.2504 58.9335 7.22087 57.9146 5.95088 57.9146C4.68089 57.9146 3.65137 58.9335 3.65137 60.1903C3.65137 61.4472 4.68089 62.4661 5.95088 62.4661Z" fill="url(#paint8_linear_145_467)"/>
<path d="M41.0488 64.8873C42.3967 64.8873 43.4893 63.8046 43.4893 62.4691C43.4893 61.1337 42.3967 60.051 41.0488 60.051C39.701 60.051 38.6084 61.1337 38.6084 62.4691C38.6084 63.8046 39.701 64.8873 41.0488 64.8873Z" fill="url(#paint9_linear_145_467)"/>
</g>
<defs>
<filter id="filter0_f_145_467" x="0.41422" y="0.501622" width="48.3356" height="87.4028" filterUnits="userSpaceOnUse" color-interpolation-filters="sRGB">
<feFlood flood-opacity="0" result="BackgroundImageFix"/>
<feBlend mode="normal" in="SourceGraphic" in2="BackgroundImageFix" result="shape"/>
<feGaussianBlur stdDeviation="1.61857" result="effect1_foregroundBlur_145_467"/>
</filter>
<linearGradient id="paint0_linear_145_467" x1="3.37538" y1="29.6659" x2="60.3545" y2="54.7538" gradientUnits="userSpaceOnUse">
<stop stop-color="#B5CD30"/>
<stop offset="0.442708" stop-color="white"/>
<stop offset="1" stop-color="#B5CD30"/>
</linearGradient>
<linearGradient id="paint1_linear_145_467" x1="5.68738" y1="72.0137" x2="17.1141" y2="76.4776" gradientUnits="userSpaceOnUse">
<stop stop-color="#B5CD30"/>
<stop offset="0.442708" stop-color="white"/>
<stop offset="1" stop-color="#B5CD30"/>
</linearGradient>
<linearGradient id="paint2_linear_145_467" x1="26.8866" y1="73.7136" x2="40.7515" y2="82.1388" gradientUnits="userSpaceOnUse">
<stop stop-color="#B5CD30"/>
<stop offset="0.442708" stop-color="white"/>
<stop offset="1" stop-color="#B5CD30"/>
</linearGradient>
<linearGradient id="paint3_linear_145_467" x1="2.95168" y1="59.3879" x2="7.34002" y2="63.6636" gradientUnits="userSpaceOnUse">
<stop stop-color="#B5CD30"/>
<stop offset="0.442708" stop-color="white"/>
<stop offset="1" stop-color="#B5CD30"/>
</linearGradient>
<linearGradient id="paint4_linear_145_467" x1="37.8658" y1="61.6165" x2="42.5285" y2="66.1541" gradientUnits="userSpaceOnUse">
<stop stop-color="#B5CD30"/>
<stop offset="0.442708" stop-color="white"/>
<stop offset="1" stop-color="#B5CD30"/>
</linearGradient>
<linearGradient id="paint5_linear_145_467" x1="3.37538" y1="29.6659" x2="60.3545" y2="54.7538" gradientUnits="userSpaceOnUse">
<stop stop-color="#B5CD30"/>
<stop offset="0.442708" stop-color="white"/>
<stop offset="1" stop-color="#B5CD30"/>
</linearGradient>
<linearGradient id="paint6_linear_145_467" x1="5.68738" y1="72.0137" x2="17.1141" y2="76.4776" gradientUnits="userSpaceOnUse">
<stop stop-color="#B5CD30"/>
<stop offset="0.442708" stop-color="white"/>
<stop offset="1" stop-color="#B5CD30"/>
</linearGradient>
<linearGradient id="paint7_linear_145_467" x1="26.8866" y1="73.7136" x2="40.7515" y2="82.1388" gradientUnits="userSpaceOnUse">
<stop stop-color="#B5CD30"/>
<stop offset="0.442708" stop-color="white"/>
<stop offset="1" stop-color="#B5CD30"/>
</linearGradient>
<linearGradient id="paint8_linear_145_467" x1="2.95168" y1="59.3879" x2="7.34002" y2="63.6636" gradientUnits="userSpaceOnUse">
<stop stop-color="#B5CD30"/>
<stop offset="0.442708" stop-color="white"/>
<stop offset="1" stop-color="#B5CD30"/>
</linearGradient>
<linearGradient id="paint9_linear_145_467" x1="37.8658" y1="61.6165" x2="42.5285" y2="66.1541" gradientUnits="userSpaceOnUse">
<stop stop-color="#B5CD30"/>
<stop offset="0.442708" stop-color="white"/>
<stop offset="1" stop-color="#B5CD30"/>
</linearGradient>
</defs>
</svg>
