<svg width="716" height="706" viewBox="0 0 716 706" fill="none" xmlns="http://www.w3.org/2000/svg">
<g opacity="0.5">
<g filter="url(#filter0_f_3110_4434)">
<path fill-rule="evenodd" clip-rule="evenodd" d="M570.544 345.636C570.544 478.9 465.991 586.931 337.017 586.931C208.045 586.931 103.492 478.9 103.492 345.636C103.492 212.373 208.045 104.342 337.017 104.342C465.991 104.342 570.544 212.373 570.544 345.636ZM548.244 345.63C548.244 466.061 453.673 563.69 337.014 563.69C220.355 563.69 125.785 466.061 125.785 345.63C125.785 225.198 220.355 127.569 337.014 127.569C453.673 127.569 548.244 225.198 548.244 345.63Z" fill="#EFEFEF"/>
</g>
<path fill-rule="evenodd" clip-rule="evenodd" d="M570.544 345.636C570.544 478.9 465.991 586.931 337.017 586.931C208.045 586.931 103.492 478.9 103.492 345.636C103.492 212.373 208.045 104.342 337.017 104.342C465.991 104.342 570.544 212.373 570.544 345.636ZM548.244 345.63C548.244 466.061 453.673 563.69 337.014 563.69C220.355 563.69 125.785 466.061 125.785 345.63C125.785 225.198 220.355 127.569 337.014 127.569C453.673 127.569 548.244 225.198 548.244 345.63Z" fill="#EFEFEF"/>
<g filter="url(#filter1_f_3110_4434)">
<path d="M394.74 395.243C394.74 407.586 385.117 417.509 373.147 417.509H316.35H308.136V369.831H367.749H372.912C384.883 369.831 394.504 379.753 394.504 392.096V395.243H394.74ZM308.136 286.575H316.35H367.749C378.31 286.575 387.229 295.772 387.229 306.663V309.809C387.229 320.701 378.31 329.897 367.749 329.897H308.136V286.575ZM413.516 346.839C421.026 336.916 425.485 323.605 425.485 309.809V306.663C425.485 274.958 401.546 248.82 371.035 246.642V224.377H332.31V246.642H316.585V224.377H277.86V246.642H268.941H249.461V286.817H268.941V329.897V370.073V417.75H249.461V457.927H268.941H277.86V476.319H316.585V457.927H332.31V476.319H371.035V457.927H372.444C406.005 457.927 432.995 430.094 432.995 395.485V391.612C432.761 374.429 425.485 357.488 413.516 346.839Z" fill="#EFEFEF"/>
</g>
<path d="M394.74 395.241C394.74 407.584 385.117 417.507 373.147 417.507H316.35H308.136V369.829H367.749H372.912C384.883 369.829 394.504 379.751 394.504 392.094V395.241H394.74ZM308.136 286.573H316.35H367.749C378.31 286.573 387.229 295.77 387.229 306.661V309.807C387.229 320.699 378.31 329.895 367.749 329.895H308.136V286.573ZM413.516 346.837C421.026 336.914 425.485 323.603 425.485 309.807V306.661C425.485 274.956 401.546 248.818 371.035 246.64V224.375H332.31V246.64H316.585V224.375H277.86V246.64H268.941H249.461V286.815H268.941V329.895V370.071V417.748H249.461V457.925H268.941H277.86V476.317H316.585V457.925H332.31V476.317H371.035V457.925H372.444C406.005 457.925 432.995 430.092 432.995 395.483V391.61C432.761 374.427 425.485 357.486 413.516 346.837Z" fill="#EFEFEF"/>
<g filter="url(#filter2_f_3110_4434)">
<path d="M188.317 639.318C154.183 622.111 121.813 599.035 94.4155 570.642C67.1902 542.421 45.1034 508.717 29.0435 472.41C12.9827 436.103 3.77896 396.363 0.979617 356.721C-1.81981 317.079 2.94734 276.374 13.9841 237.955L60.4301 255.856C46.9351 287.833 39.5487 322.601 38.0701 357.964C37.1047 393.842 41.3664 429.967 53.1951 465.03C75.654 533.957 123.986 597.889 188.317 639.318Z" fill="#EFEFEF"/>
<path d="M59.0833 311.604L35.11 253.775L-21.9937 276.995L-8.53008 242.995L48.5742 219.775L73.7247 277.454L59.0833 311.604Z" fill="#EFEFEF"/>
</g>
<path d="M188.317 639.318C154.183 622.111 121.813 599.035 94.4155 570.642C67.1902 542.421 45.1034 508.717 29.0435 472.41C12.9827 436.103 3.77896 396.363 0.979617 356.721C-1.81981 317.079 2.94734 276.374 13.9841 237.955L60.4301 255.856C46.9351 287.833 39.5487 322.601 38.0701 357.964C37.1047 393.842 41.3664 429.967 53.1951 465.03C75.654 533.957 123.986 597.889 188.317 639.318Z" fill="#EFEFEF"/>
<path d="M59.0833 311.604L35.11 253.775L-21.9937 276.995L-8.53008 242.995L48.5742 219.775L73.7247 277.454L59.0833 311.604Z" fill="#EFEFEF"/>
<g filter="url(#filter3_f_3110_4434)">
<path d="M166.039 87.9453C196.891 67.0189 231.872 51.548 269.309 42.5188C306.747 33.4888 345.809 31.3921 385.139 35.8724C423.801 40.6782 463.08 52.7398 499.252 70.9888C535.424 89.2378 567.997 114.508 596.934 144.442L561.502 174.397C539.498 146.087 513.004 121.583 482.537 101.738C451.571 82.3894 417.639 67.376 382.131 59.417C346.623 51.4567 309.018 49.7002 272.696 54.534C235.19 59.1822 198.966 70.4208 166.039 87.9453Z" fill="#EFEFEF"/>
<path d="M512.341 145.179L573.639 153.703L579.434 92.1193L603.476 121.471L597.184 183.554L535.372 174.516L512.341 145.179Z" fill="#EFEFEF"/>
</g>
<path d="M166.039 87.9453C196.891 67.0189 231.872 51.548 269.309 42.5188C306.747 33.4888 345.809 31.3921 385.139 35.8724C423.801 40.6782 463.08 52.7398 499.252 70.9888C535.424 89.2378 567.997 114.508 596.934 144.442L561.502 174.397C539.498 146.087 513.004 121.583 482.537 101.738C451.571 82.3894 417.639 67.376 382.131 59.417C346.623 51.4567 309.018 49.7002 272.696 54.534C235.19 59.1822 198.966 70.4208 166.039 87.9453Z" fill="#EFEFEF"/>
<path d="M512.341 145.179L573.639 153.703L579.434 92.1193L603.476 121.471L597.184 183.554L535.372 174.516L512.341 145.179Z" fill="#EFEFEF"/>
<g filter="url(#filter4_f_3110_4434)">
<path d="M657.734 351.963C663.703 389.464 661.778 428.696 653.76 466.149C644.729 503.588 629.108 539.745 606.687 572.091C584.268 604.437 555.536 631.798 522.848 653.877C489.989 675.784 452.135 690.705 413.022 700.383L402.506 652.029C436.792 646.153 469.816 635.032 500.565 618.317C530.8 601.089 558.431 578.932 582.117 552.166C604.62 525.214 623.523 494.331 636.987 460.331C649.792 427.332 656.799 389.863 657.734 351.963Z" fill="#EFEFEF"/>
<path d="M450.286 625.821L414.824 675.66L466.277 712.51L429.286 717.671L378.842 680.836L413.466 631.153L450.286 625.821Z" fill="#EFEFEF"/>
</g>
<path d="M657.734 351.963C663.703 389.464 661.778 428.696 653.76 466.149C644.729 503.588 629.108 539.745 606.687 572.091C584.268 604.437 555.536 631.798 522.848 653.877C489.989 675.784 452.135 690.705 413.022 700.383L402.506 652.029C436.792 646.153 469.816 635.032 500.565 618.317C530.8 601.089 558.431 578.932 582.117 552.166C604.62 525.214 623.523 494.331 636.987 460.331C649.792 427.332 656.799 389.863 657.734 351.963Z" fill="#EFEFEF"/>
<path d="M450.286 625.821L414.824 675.66L466.277 712.51L429.286 717.671L378.842 680.836L413.466 631.153L450.286 625.821Z" fill="#EFEFEF"/>
</g>
<defs>
<filter id="filter0_f_3110_4434" x="77.5962" y="78.4458" width="518.843" height="534.382" filterUnits="userSpaceOnUse" color-interpolation-filters="sRGB">
<feFlood flood-opacity="0" result="BackgroundImageFix"/>
<feBlend mode="normal" in="SourceGraphic" in2="BackgroundImageFix" result="shape"/>
<feGaussianBlur stdDeviation="12.948" result="effect1_foregroundBlur_3110_4434"/>
</filter>
<filter id="filter1_f_3110_4434" x="223.565" y="198.481" width="235.327" height="303.733" filterUnits="userSpaceOnUse" color-interpolation-filters="sRGB">
<feFlood flood-opacity="0" result="BackgroundImageFix"/>
<feBlend mode="normal" in="SourceGraphic" in2="BackgroundImageFix" result="shape"/>
<feGaussianBlur stdDeviation="12.948" result="effect1_foregroundBlur_3110_4434"/>
</filter>
<filter id="filter2_f_3110_4434" x="-146.81" y="176.934" width="500.925" height="500.925" filterUnits="userSpaceOnUse" color-interpolation-filters="sRGB">
<feFlood flood-opacity="0" result="BackgroundImageFix"/>
<feBlend mode="normal" in="SourceGraphic" in2="BackgroundImageFix" result="shape"/>
<feGaussianBlur stdDeviation="12.948" result="effect1_foregroundBlur_3110_4434"/>
</filter>
<filter id="filter3_f_3110_4434" x="140.143" y="-142.58" width="519.796" height="519.796" filterUnits="userSpaceOnUse" color-interpolation-filters="sRGB">
<feFlood flood-opacity="0" result="BackgroundImageFix"/>
<feBlend mode="normal" in="SourceGraphic" in2="BackgroundImageFix" result="shape"/>
<feGaussianBlur stdDeviation="12.948" result="effect1_foregroundBlur_3110_4434"/>
</filter>
<filter id="filter4_f_3110_4434" x="327.971" y="326.065" width="443.569" height="443.569" filterUnits="userSpaceOnUse" color-interpolation-filters="sRGB">
<feFlood flood-opacity="0" result="BackgroundImageFix"/>
<feBlend mode="normal" in="SourceGraphic" in2="BackgroundImageFix" result="shape"/>
<feGaussianBlur stdDeviation="12.948" result="effect1_foregroundBlur_3110_4434"/>
</filter>
</defs>
</svg>
