<svg width="24" height="25" viewBox="0 0 24 25" fill="none" xmlns="http://www.w3.org/2000/svg">
<path d="M11.25 4.25V3.5C11.25 3.30109 11.329 3.11032 11.4697 2.96967C11.6103 2.82902 11.8011 2.75 12 2.75C12.1989 2.75 12.3897 2.82902 12.5303 2.96967C12.671 3.11032 12.75 3.30109 12.75 3.5V4.25C12.75 4.44891 12.671 4.63968 12.5303 4.78033C12.3897 4.92098 12.1989 5 12 5C11.8011 5 11.6103 4.92098 11.4697 4.78033C11.329 4.63968 11.25 4.44891 11.25 4.25ZM18 12.5C18 13.6867 17.6481 14.8467 16.9888 15.8334C16.3295 16.8201 15.3925 17.5892 14.2961 18.0433C13.1997 18.4974 11.9933 18.6162 10.8295 18.3847C9.66557 18.1532 8.59647 17.5818 7.75736 16.7426C6.91824 15.9035 6.3468 14.8344 6.11529 13.6705C5.88378 12.5067 6.0026 11.3003 6.45672 10.2039C6.91085 9.10754 7.67988 8.17047 8.66658 7.51118C9.65327 6.85189 10.8133 6.5 12 6.5C13.5908 6.50174 15.1159 7.13444 16.2407 8.25928C17.3656 9.38412 17.9983 10.9092 18 12.5ZM16.5 12.5C16.5 11.61 16.2361 10.74 15.7416 9.99993C15.2471 9.25991 14.5443 8.68314 13.7221 8.34254C12.8998 8.00195 11.995 7.91283 11.1221 8.08647C10.2492 8.2601 9.44736 8.68868 8.81802 9.31802C8.18868 9.94736 7.7601 10.7492 7.58647 11.6221C7.41283 12.495 7.50195 13.3998 7.84254 14.2221C8.18314 15.0443 8.75991 15.7471 9.49993 16.2416C10.24 16.7361 11.11 17 12 17C13.1931 16.9988 14.337 16.5243 15.1806 15.6806C16.0243 14.837 16.4988 13.6931 16.5 12.5ZM5.46938 7.03063C5.61011 7.17136 5.80098 7.25042 6 7.25042C6.19902 7.25042 6.38989 7.17136 6.53063 7.03063C6.67136 6.88989 6.75042 6.69902 6.75042 6.5C6.75042 6.30098 6.67136 6.11011 6.53063 5.96938L5.78062 5.21938C5.63989 5.07864 5.44902 4.99958 5.25 4.99958C5.05098 4.99958 4.86011 5.07864 4.71938 5.21938C4.57864 5.36011 4.49958 5.55098 4.49958 5.75C4.49958 5.94902 4.57864 6.13989 4.71938 6.28062L5.46938 7.03063ZM5.46938 17.9694L4.71938 18.7194C4.57864 18.8601 4.49958 19.051 4.49958 19.25C4.49958 19.449 4.57864 19.6399 4.71938 19.7806C4.86011 19.9214 5.05098 20.0004 5.25 20.0004C5.44902 20.0004 5.63989 19.9214 5.78062 19.7806L6.53063 19.0306C6.60031 18.9609 6.65558 18.8782 6.6933 18.7872C6.73101 18.6961 6.75042 18.5985 6.75042 18.5C6.75042 18.4015 6.73101 18.3039 6.6933 18.2128C6.65558 18.1218 6.60031 18.0391 6.53063 17.9694C6.46094 17.8997 6.37822 17.8444 6.28717 17.8067C6.19613 17.769 6.09855 17.7496 6 17.7496C5.90145 17.7496 5.80387 17.769 5.71283 17.8067C5.62178 17.8444 5.53906 17.8997 5.46938 17.9694ZM18 7.25C18.0985 7.25008 18.1961 7.23074 18.2871 7.1931C18.3782 7.15546 18.4609 7.10025 18.5306 7.03063L19.2806 6.28062C19.4214 6.13989 19.5004 5.94902 19.5004 5.75C19.5004 5.55098 19.4214 5.36011 19.2806 5.21938C19.1399 5.07864 18.949 4.99958 18.75 4.99958C18.551 4.99958 18.3601 5.07864 18.2194 5.21938L17.4694 5.96938C17.3644 6.07427 17.2928 6.20796 17.2639 6.35352C17.2349 6.49908 17.2497 6.64998 17.3065 6.78709C17.3633 6.92421 17.4596 7.04139 17.583 7.12379C17.7065 7.20619 17.8516 7.25012 18 7.25ZM18.5306 17.9694C18.3899 17.8286 18.199 17.7496 18 17.7496C17.801 17.7496 17.6101 17.8286 17.4694 17.9694C17.3286 18.1101 17.2496 18.301 17.2496 18.5C17.2496 18.699 17.3286 18.8899 17.4694 19.0306L18.2194 19.7806C18.2891 19.8503 18.3718 19.9056 18.4628 19.9433C18.5539 19.981 18.6515 20.0004 18.75 20.0004C18.8485 20.0004 18.9461 19.981 19.0372 19.9433C19.1282 19.9056 19.2109 19.8503 19.2806 19.7806C19.3503 19.7109 19.4056 19.6282 19.4433 19.5372C19.481 19.4461 19.5004 19.3485 19.5004 19.25C19.5004 19.1515 19.481 19.0539 19.4433 18.9628C19.4056 18.8718 19.3503 18.7891 19.2806 18.7194L18.5306 17.9694ZM3.75 11.75H3C2.80109 11.75 2.61032 11.829 2.46967 11.9697C2.32902 12.1103 2.25 12.3011 2.25 12.5C2.25 12.6989 2.32902 12.8897 2.46967 13.0303C2.61032 13.171 2.80109 13.25 3 13.25H3.75C3.94891 13.25 4.13968 13.171 4.28033 13.0303C4.42098 12.8897 4.5 12.6989 4.5 12.5C4.5 12.3011 4.42098 12.1103 4.28033 11.9697C4.13968 11.829 3.94891 11.75 3.75 11.75ZM12 20C11.8011 20 11.6103 20.079 11.4697 20.2197C11.329 20.3603 11.25 20.5511 11.25 20.75V21.5C11.25 21.6989 11.329 21.8897 11.4697 22.0303C11.6103 22.171 11.8011 22.25 12 22.25C12.1989 22.25 12.3897 22.171 12.5303 22.0303C12.671 21.8897 12.75 21.6989 12.75 21.5V20.75C12.75 20.5511 12.671 20.3603 12.5303 20.2197C12.3897 20.079 12.1989 20 12 20ZM21 11.75H20.25C20.0511 11.75 19.8603 11.829 19.7197 11.9697C19.579 12.1103 19.5 12.3011 19.5 12.5C19.5 12.6989 19.579 12.8897 19.7197 13.0303C19.8603 13.171 20.0511 13.25 20.25 13.25H21C21.1989 13.25 21.3897 13.171 21.5303 13.0303C21.671 12.8897 21.75 12.6989 21.75 12.5C21.75 12.3011 21.671 12.1103 21.5303 11.9697C21.3897 11.829 21.1989 11.75 21 11.75Z" fill="#333333"/>
</svg>
