<svg width="24" height="25" viewBox="0 0 24 25" fill="none" xmlns="http://www.w3.org/2000/svg">
<path d="M16.3125 4.97635C15.1545 3.63895 13.8511 2.43465 12.4266 1.38573C12.3005 1.29739 12.1502 1.25 11.9963 1.25C11.8423 1.25 11.692 1.29739 11.5659 1.38573C10.144 2.43509 8.84317 3.63937 7.6875 4.97635C5.11031 7.93604 3.75 11.056 3.75 13.9998C3.75 16.1878 4.61919 18.2862 6.16637 19.8334C7.71354 21.3806 9.81196 22.2498 12 22.2498C14.188 22.2498 16.2865 21.3806 17.8336 19.8334C19.3808 18.2862 20.25 16.1878 20.25 13.9998C20.25 11.056 18.8897 7.93604 16.3125 4.97635ZM12 20.7498C10.2104 20.7478 8.49466 20.036 7.22922 18.7706C5.96378 17.5051 5.25199 15.7894 5.25 13.9998C5.25 8.63448 10.4503 4.15604 12 2.93729C13.5497 4.15604 18.75 8.6326 18.75 13.9998C18.748 15.7894 18.0362 17.5051 16.7708 18.7706C15.5053 20.036 13.7896 20.7478 12 20.7498ZM17.2397 14.8754C17.0452 15.9617 16.5226 16.9623 15.7422 17.7426C14.9618 18.5228 13.961 19.0452 12.8747 19.2395C12.8334 19.2461 12.7918 19.2495 12.75 19.2498C12.5619 19.2497 12.3806 19.179 12.2422 19.0516C12.1038 18.9241 12.0183 18.7494 12.0028 18.5619C11.9872 18.3744 12.0426 18.1879 12.1581 18.0394C12.2736 17.8909 12.4407 17.7912 12.6262 17.7601C14.1797 17.4985 15.4978 16.1804 15.7612 14.6242C15.7946 14.428 15.9045 14.2531 16.0667 14.1379C16.229 14.0228 16.4304 13.9768 16.6266 14.0101C16.8227 14.0434 16.9976 14.1533 17.1128 14.3156C17.228 14.4779 17.2739 14.6792 17.2406 14.8754H17.2397Z" fill="#333333"/>
</svg>
